<?xml version="1.0" encoding="UTF-8" standalone="no"?>
<svg
   xmlns:dc="http://purl.org/dc/elements/1.1/"
   xmlns:cc="http://creativecommons.org/ns#"
   xmlns:rdf="http://www.w3.org/1999/02/22-rdf-syntax-ns#"
   xmlns:svg="http://www.w3.org/2000/svg"
   xmlns="http://www.w3.org/2000/svg"
   xmlns:sodipodi="http://sodipodi.sourceforge.net/DTD/sodipodi-0.dtd"
   xmlns:inkscape="http://www.inkscape.org/namespaces/inkscape"
   inkscape:version="1.0 (4035a4f, 2020-05-01)"
   sodipodi:docname="toydb.svg"
   id="svg477"
   style="clip-rule:evenodd;fill-rule:evenodd;stroke-linejoin:round;stroke-miterlimit:2"
   xml:space="preserve"
   version="1.1"
   viewBox="0 0 450.78741 791.00024"
   height="791.00024"
   width="450.78741"><metadata
   id="metadata481"><rdf:RDF><cc:Work
       rdf:about=""><dc:format>image/svg+xml</dc:format><dc:type
         rdf:resource="http://purl.org/dc/dcmitype/StillImage" /><dc:title></dc:title></cc:Work></rdf:RDF></metadata><sodipodi:namedview
   inkscape:current-layer="svg477"
   inkscape:window-maximized="0"
   inkscape:window-y="158"
   inkscape:window-x="456"
   inkscape:cy="476.5"
   inkscape:cx="225.49994"
   inkscape:zoom="0.6251321"
   fit-margin-bottom="-80"
   fit-margin-right="-250"
   fit-margin-left="-250"
   fit-margin-top="-80"
   showgrid="false"
   id="namedview479"
   inkscape:window-height="1102"
   inkscape:window-width="1542"
   inkscape:pageshadow="2"
   inkscape:pageopacity="0"
   guidetolerance="10"
   gridtolerance="10"
   objecttolerance="10"
   borderopacity="1"
   bordercolor="#666666"
   pagecolor="#ffffff" />
    <g
   id="g443"
   transform="translate(-1702.9999,-201.99972)">
        <g
   transform="matrix(0.799653,0,0,0.799832,823.673,-445.881)"
   id="Artboard1">
            <g
   id="g440">
                <rect
   id="rect400"
   style="fill:none"
   height="1189"
   width="1189"
   y="710"
   x="787" />
                <g
   id="g404"
   transform="matrix(1.25054,0,0,1.25026,90.7433,-577.343)">
                    <path
   id="path402"
   style="fill:url(#_Linear1)"
   d="m 852.157,1625.66 h 388.003 v 183 c 0,50.5 -86.93,91.5 -194,91.5 -107.074,0 -194.003,-41 -194.003,-91.5 z" />
                </g>
                <g
   id="g408"
   transform="matrix(1.25054,0,0,1.25026,711.209,454.321)">
                    <path
   id="path406"
   style="fill:url(#_Linear2)"
   d="M 651.316,722.482 C 706.899,738.571 744,767.508 744,800.5 744,851 657.072,892 550,892 491.625,892 439.237,879.813 403.684,860.518 433.178,869.072 467.878,874 505,874 c 107.072,0 194,-41 194,-91.5 0,-22.968 -17.981,-43.97 -47.684,-60.018 z" />
                </g>
                <g
   id="g412"
   transform="matrix(1.25054,0,0,1.25026,654.935,431.817)">
                    <path
   id="path410"
   style="fill:#0057e2"
   d="M 448.684,878.518 C 418.981,862.47 401,841.468 401,818.5 401,768 487.928,727 595,727 c 37.122,0 71.822,4.928 101.316,13.482 C 726.019,756.53 744,777.532 744,800.5 744,851 657.072,892 550,892 c -37.122,0 -71.822,-4.928 -101.316,-13.482 z" />
                </g>
                <g
   id="g416"
   transform="matrix(1.25054,0,0,1.25026,90.7433,-577.343)">
                    <path
   id="path414"
   style="fill:url(#_Linear3)"
   d="m 824.157,1409.66 h 388.003 v 183 c 0,50.5 -86.93,91.5 -194,91.5 -107.074,0 -194.003,-41 -194.003,-91.5 z" />
                </g>
                <g
   id="g420"
   transform="matrix(1.25054,0,0,1.25026,676.194,184.264)">
                    <ellipse
   id="ellipse418"
   style="fill:url(#_Linear4)"
   ry="91.5"
   rx="194"
   cy="800.5"
   cx="550" />
                </g>
                <g
   id="g424"
   transform="matrix(1.25054,0,0,1.25026,696.203,165.511)">
                    <ellipse
   id="ellipse422"
   style="fill:#a90049"
   ry="91.5"
   rx="194"
   cy="800.5"
   cx="550" />
                </g>
                <g
   id="g428"
   transform="matrix(1.25054,0,0,1.25026,90.7433,-577.343)">
                    <path
   id="path426"
   style="fill:url(#_Linear5)"
   d="m 852.157,1201.66 h 388.003 v 183 c 0,50.5 -86.93,91.5 -194,91.5 -107.074,0 -194.003,-41 -194.003,-91.5 z" />
                </g>
                <g
   id="g432"
   transform="matrix(1.25054,0,0,1.25026,711.209,-75.7902)">
                    <ellipse
   id="ellipse430"
   style="fill:url(#_Linear6)"
   ry="91.5"
   rx="194"
   cy="800.5"
   cx="550" />
                </g>
                <g
   id="g434"
   transform="matrix(1.25054,0,0,1.25026,-1030.04,557.468)">
                </g>
                <g
   id="g436"
   transform="matrix(1.25054,0,0,1.25026,-1030.04,557.468)">
                </g>
                <g
   id="g438"
   transform="matrix(1.25054,0,0,1.25026,-1030.04,557.468)">
                </g>
            </g>
        </g>
    </g>
    <defs
   id="defs475">
        <linearGradient
   gradientTransform="matrix(-388,0,0,-388,1240.16,1699.16)"
   gradientUnits="userSpaceOnUse"
   y2="0"
   x2="1"
   y1="0"
   x1="0"
   id="_Linear1"><stop
     id="stop445"
     style="stop-color:rgb(58,134,255);stop-opacity:1"
     offset="0" /><stop
     id="stop447"
     style="stop-color:rgb(0,62,159);stop-opacity:1"
     offset="1" /></linearGradient>
        <linearGradient
   gradientTransform="matrix(-208,100.343,-100.343,-208,744,791.5)"
   gradientUnits="userSpaceOnUse"
   y2="0"
   x2="1"
   y1="0"
   x1="0"
   id="_Linear2"><stop
     id="stop450"
     style="stop-color:rgb(111,166,255);stop-opacity:1"
     offset="0" /><stop
     id="stop452"
     style="stop-color:rgb(0,94,245);stop-opacity:1"
     offset="1" /></linearGradient>
        <linearGradient
   gradientTransform="matrix(-388,0,0,-388,1212.16,1534.16)"
   gradientUnits="userSpaceOnUse"
   y2="0"
   x2="1"
   y1="0"
   x1="0"
   id="_Linear3"><stop
     id="stop455"
     style="stop-color:rgb(255,0,110);stop-opacity:1"
     offset="0" /><stop
     id="stop457"
     style="stop-color:rgb(186,0,80);stop-opacity:1"
     offset="1" /></linearGradient>
        <linearGradient
   gradientTransform="matrix(-255,125.75,-125.75,-255,661.5,729.75)"
   gradientUnits="userSpaceOnUse"
   y2="0"
   x2="1"
   y1="0"
   x1="0"
   id="_Linear4"><stop
     id="stop460"
     style="stop-color:rgb(214,0,92);stop-opacity:1"
     offset="0" /><stop
     id="stop462"
     style="stop-color:rgb(221,0,95);stop-opacity:1"
     offset="1" /></linearGradient>
        <linearGradient
   gradientTransform="matrix(-388,0,0,-388,1240.16,1303.16)"
   gradientUnits="userSpaceOnUse"
   y2="0"
   x2="1"
   y1="0"
   x1="0"
   id="_Linear5"><stop
     id="stop465"
     style="stop-color:rgb(255,190,11);stop-opacity:1"
     offset="0" /><stop
     id="stop467"
     style="stop-color:rgb(204,149,0);stop-opacity:1"
     offset="1" /></linearGradient>
        <linearGradient
   gradientTransform="matrix(-270,121,-121,-270,662.843,725.843)"
   gradientUnits="userSpaceOnUse"
   y2="0"
   x2="1"
   y1="0"
   x1="0"
   id="_Linear6"><stop
     id="stop470"
     style="stop-color:rgb(255,214,102);stop-opacity:1"
     offset="0" /><stop
     id="stop472"
     style="stop-color:rgb(255,187,1);stop-opacity:1"
     offset="1" /></linearGradient>
    </defs>
</svg>
