<?xml version="1.0" encoding="UTF-8" standalone="no"?>
<svg
   width="185.03963"
   height="112.0609"
   viewBox="0 0 185.03963 112.0609"
   version="1.1"
   id="svg4632"
   xmlns="http://www.w3.org/2000/svg"
   xmlns:svg="http://www.w3.org/2000/svg">
  <defs
     id="defs151">
    <clipPath
       id="clip-0">
      <path
         clip-rule="nonzero"
         d="m 154,102 h 124.92187 v 93 H 154 Z m 0,0"
         id="path138" />
    </clipPath>
    <clipPath
       id="clip-1">
      <path
         clip-rule="nonzero"
         d="M 148,96 H 278.92187 V 196.80078 H 148 Z m 0,0"
         id="path139" />
    </clipPath>
    <clipPath
       id="clip-2">
      <path
         clip-rule="nonzero"
         d="M 146,94 H 278.92187 V 196.80078 H 146 Z m 0,0"
         id="path140" />
    </clipPath>
    <clipPath
       id="clip-3">
      <path
         clip-rule="nonzero"
         d="M 144,93 H 278.92187 V 196.80078 H 144 Z m 0,0"
         id="path141" />
    </clipPath>
    <clipPath
       id="clip-4">
      <path
         clip-rule="nonzero"
         d="M 93.71875,109 H 136 v 33 H 93.71875 Z m 0,0"
         id="path142" />
    </clipPath>
    <clipPath
       id="clip-5">
      <path
         clip-rule="nonzero"
         d="M 93.71875,107 H 134 v 33 H 93.71875 Z m 0,0"
         id="path143" />
    </clipPath>
    <clipPath
       id="clip-6">
      <path
         clip-rule="nonzero"
         d="M 93.71875,105 H 131 v 33 H 93.71875 Z m 0,0"
         id="path144" />
    </clipPath>
    <clipPath
       id="clip-7">
      <path
         clip-rule="nonzero"
         d="m 122,173 h 33 v 23.80078 h -33 z m 0,0"
         id="path145" />
    </clipPath>
    <clipPath
       id="clip-8">
      <path
         clip-rule="nonzero"
         d="m 122,173 h 36 v 23.80078 h -36 z m 0,0"
         id="path146" />
    </clipPath>
    <clipPath
       id="clip-9">
      <path
         clip-rule="nonzero"
         d="m 122,173 h 38 v 23.80078 h -38 z m 0,0"
         id="path147" />
    </clipPath>
    <clipPath
       id="clip-10">
      <path
         clip-rule="nonzero"
         d="m 153,194 h 3 v 2.80078 h -3 z m 0,0"
         id="path148" />
    </clipPath>
    <clipPath
       id="clip-11">
      <path
         clip-rule="nonzero"
         d="m 151,192 h 6 v 4.80078 h -6 z m 0,0"
         id="path149" />
    </clipPath>
    <clipPath
       id="clip-12">
      <path
         clip-rule="nonzero"
         d="m 101,84 h 143 v 30 H 101 Z m 0,0"
         id="path150" />
    </clipPath>
    <clipPath
       id="clip-13">
      <path
         clip-rule="nonzero"
         d="m 100,84 h 22 v 17 h -22 z m 0,0"
         id="path151" />
    </clipPath>
  </defs>
  <g
     clip-path="url(#clip-0)"
     id="g152"
     transform="translate(-93.721625,-84.335554)">
    <path
       fill-rule="nonzero"
       fill="#ffffbf"
       fill-opacity="1"
       d="m 159.21875,102.10547 h 114.26172 c 2.66015,0 4.80078,2.14062 4.80078,4.79687 v 82.5 c 0,2.66016 -2.14063,4.79688 -4.80078,4.79688 H 159.21875 c -2.66016,0 -4.80078,-2.13672 -4.80078,-4.79688 v -82.5 c 0,-2.65625 2.14062,-4.79687 4.80078,-4.79687"
       id="path152" />
  </g>
  <g
     clip-path="url(#clip-1)"
     id="g153"
     transform="translate(-93.721625,-84.335554)">
    <path
       fill="none"
       stroke-width="9.6"
       stroke-linecap="butt"
       stroke-linejoin="miter"
       stroke="#000000"
       stroke-opacity="1"
       stroke-miterlimit="4"
       d="m 1592.1875,6898.9453 h 1142.6172 c 26.6016,0 48.0078,-21.4062 48.0078,-48.0078 v -824.9609 c 0,-26.6016 -21.4062,-48.0079 -48.0078,-48.0079 H 1592.1875 c -26.6016,0 -48.0078,21.4063 -48.0078,48.0079 v 824.9609 c 0,26.6016 21.4062,48.0078 48.0078,48.0078 z m 0,0"
       transform="matrix(0.1,0,0,-0.1,0,792)"
       id="path153" />
  </g>
  <path
     fill-rule="nonzero"
     fill="#ffffbf"
     fill-opacity="1"
     d="M 63.063535,16.066786 H 177.32915 c 2.66016,0 4.80078,2.14454 4.80078,4.80079 v 82.496084 c 0,2.66015 -2.14062,4.80078 -4.80078,4.80078 H 63.063535 c -2.65625,0 -4.79688,-2.14063 -4.79688,-4.80078 V 20.867576 c 0,-2.65625 2.14063,-4.80079 4.79688,-4.80079"
     id="path154" />
  <g
     clip-path="url(#clip-2)"
     id="g155"
     transform="translate(-93.721625,-84.335554)">
    <path
       fill="none"
       stroke-width="9.6"
       stroke-linecap="butt"
       stroke-linejoin="miter"
       stroke="#000000"
       stroke-opacity="1"
       stroke-miterlimit="4"
       d="m 1567.8516,6915.9375 h 1142.6562 c 26.6016,0 48.0078,-21.4063 48.0078,-47.9688 v -825 c 0,-26.5625 -21.4062,-48.0078 -48.0078,-48.0078 H 1567.8516 c -26.5625,0 -47.9688,21.4453 -47.9688,48.0078 v 825 c 0,26.5625 21.4063,47.9688 47.9688,47.9688 z m 0,0"
       transform="matrix(0.1,0,0,-0.1,0,792)"
       id="path155" />
  </g>
  <path
     fill-rule="nonzero"
     fill="#ffffbf"
     fill-opacity="1"
     d="M 60.633845,14.367571 H 174.89556 c 2.66015,0 4.80078,2.140625 4.80078,4.800785 v 82.496084 c 0,2.66016 -2.14063,4.80078 -4.80078,4.80078 H 60.633845 c -2.66016,0 -4.80078,-2.14062 -4.80078,-4.80078 V 19.168356 c 0,-2.66016 2.14062,-4.800785 4.80078,-4.800785"
     id="path156" />
  <g
     clip-path="url(#clip-3)"
     id="g157"
     transform="translate(-93.721625,-84.335554)">
    <path
       fill="none"
       stroke-width="9.6"
       stroke-linecap="butt"
       stroke-linejoin="miter"
       stroke="#000000"
       stroke-opacity="1"
       stroke-miterlimit="4"
       d="m 1543.5547,6932.9687 h 1142.6172 c 26.6015,0 48.0078,-21.4062 48.0078,-48.0078 V 6060 c 0,-26.6016 -21.4063,-48.0078 -48.0078,-48.0078 H 1543.5547 c -26.6016,0 -48.0078,21.4062 -48.0078,48.0078 v 824.9609 c 0,26.6016 21.4062,48.0078 48.0078,48.0078 z m 0,0"
       transform="matrix(0.1,0,0,-0.1,0,792)"
       id="path157" />
  </g>
  <path
     fill-rule="nonzero"
     fill="#ffffbf"
     fill-opacity="1"
     d="M 58.200245,12.664446 H 172.46587 c 2.65625,0 4.79687,2.144531 4.79687,4.80078 v 82.5 c 0,2.656244 -2.14062,4.800774 -4.79687,4.800774 H 58.200245 c -2.66015,0 -4.80078,-2.14453 -4.80078,-4.800774 v -82.5 c 0,-2.656249 2.14063,-4.80078 4.80078,-4.80078"
     id="path158" />
  <path
     fill="none"
     stroke-width="0.96"
     stroke-linecap="butt"
     stroke-linejoin="miter"
     stroke="#000000"
     stroke-opacity="1"
     stroke-miterlimit="4"
     d="M 58.200255,12.668356 H 172.46587 c 2.65625,0 4.79688,2.14062 4.79688,4.79687 v 82.5 c 0,2.656244 -2.14063,4.800774 -4.79688,4.800774 H 58.200255 c -2.66016,0 -4.80079,-2.14453 -4.80079,-4.800774 v -82.5 c 0,-2.65625 2.14063,-4.79687 4.80079,-4.79687 z m 0,0"
     id="path159" />
  <path
     fill-rule="nonzero"
     fill="#ffffbf"
     fill-opacity="1"
     d="M 55.766655,10.965227 H 170.03228 c 2.65625,0 4.80078,2.140625 4.80078,4.800779 v 82.4961 c 0,2.660144 -2.14453,4.800774 -4.80078,4.800774 H 55.766655 c -2.65625,0 -4.79687,-2.14063 -4.79687,-4.800774 v -82.4961 c 0,-2.660154 2.14062,-4.800779 4.79687,-4.800779"
     id="path160" />
  <path
     fill="none"
     stroke-width="1.28"
     stroke-linecap="butt"
     stroke-linejoin="miter"
     stroke="#000000"
     stroke-opacity="1"
     stroke-miterlimit="4"
     d="M 55.766662,10.965229 H 170.02838 c 2.66016,0 4.80077,2.140623 4.80077,4.800777 v 82.496097 c 0,2.660147 -2.14061,4.800777 -4.80077,4.800777 H 55.766662 c -2.656259,0 -4.80079,-2.14063 -4.80079,-4.800777 V 15.766006 c 0,-2.660154 2.144531,-4.800777 4.80079,-4.800777 z m 0,0"
     id="path161" />
  <path
     fill-rule="nonzero"
     fill="#000000"
     fill-opacity="1"
     d="m 59.676815,18.019916 c -0.004,-1.09766 -0.75391,-1.73438 -2.04688,-1.73438 -1.22656,0 -1.98828,0.62891 -1.98828,1.64454 0,0.68359 0.36328,1.11718 1.09766,1.30468 l 1.39062,0.36719 c 0.70313,0.19141 1.03125,0.46875 1.03125,0.90625 0,0.30078 -0.16406,0.60547 -0.40234,0.77734 -0.22266,0.15625 -0.57422,0.23438 -1.03125,0.23438 -0.60547,0 -1.01953,-0.14063 -1.28906,-0.46094 -0.20313,-0.25 -0.29688,-0.51562 -0.29297,-0.86328 h -0.67188 c 0.004,0.51563 0.10547,0.85156 0.32813,1.15625 0.38281,0.52734 1.03125,0.80078 1.88281,0.80078 0.66797,0 1.21094,-0.14844 1.57422,-0.42969 0.375,-0.29296 0.61328,-0.79296 0.61328,-1.28125 0,-0.6875 -0.43359,-1.19921 -1.1875,-1.40625 l -1.40625,-0.375 c -0.67578,-0.18359 -0.92578,-0.40234 -0.92578,-0.83203 0,-0.57031 0.5,-0.94531 1.25781,-0.94531 0.88672,0 1.38672,0.41016 1.39453,1.13672 z m 4.49218,2.16016 c 0,-0.61329 -0.043,-0.98438 -0.15625,-1.28125 -0.26171,-0.66407 -0.875,-1.0586 -1.6289,-1.0586 -1.1211,0 -1.84375,0.85547 -1.84375,2.17969 0,1.32031 0.69922,2.13281 1.83203,2.13281 0.91797,0 1.55469,-0.51953 1.71875,-1.39453 h -0.64453 c -0.1836,0.52734 -0.53906,0.80859 -1.0586,0.80859 -0.40625,0 -0.75,-0.1875 -0.96875,-0.52343 -0.14843,-0.23438 -0.20312,-0.46485 -0.21093,-0.86328 z m -2.9414,-0.51954 c 0.0469,-0.74609 0.5039,-1.23046 1.14844,-1.23046 0.63281,0 1.11328,0.52343 1.11328,1.17968 0,0.0195 0,0.0312 -0.008,0.0508 z m 3.8125,-1.70703 v 4.02344 h 0.64062 v -2.08594 c 0,-0.57422 0.14453,-0.95703 0.45703,-1.17578 0.20313,-0.14844 0.38672,-0.19531 0.83985,-0.19922 v -0.65625 c -0.11328,-0.0117 -0.16406,-0.0195 -0.25,-0.0195 -0.41406,0 -0.73047,0.2461 -1.10156,0.84375 v -0.73047 z m 4.21875,4.02344 1.54687,-4.02344 h -0.71875 l -1.13672,3.26172 -1.07812,-3.26172 h -0.72266 l 1.41016,4.02344 z m 5.58984,-1.79687 c 0,-0.61329 -0.043,-0.98438 -0.15625,-1.28125 -0.26172,-0.66407 -0.875,-1.0586 -1.6289,-1.0586 -1.1211,0 -1.84375,0.85547 -1.84375,2.17969 0,1.32031 0.69921,2.13281 1.82812,2.13281 0.92188,0 1.55859,-0.51953 1.71875,-1.39453 h -0.64062 c -0.1836,0.52734 -0.53907,0.80859 -1.0586,0.80859 -0.40625,0 -0.75,-0.1875 -0.96875,-0.52343 -0.14844,-0.23438 -0.20703,-0.46485 -0.21094,-0.86328 z m -2.9414,-0.51954 c 0.0508,-0.74609 0.5039,-1.23046 1.14843,-1.23046 0.63282,0 1.11328,0.52343 1.11328,1.17968 0,0.0195 0,0.0312 -0.008,0.0508 z m 3.8125,-1.70703 v 4.02344 h 0.64453 v -2.08594 c 0,-0.57422 0.14062,-0.95703 0.45312,-1.17578 0.19922,-0.14844 0.39063,-0.19531 0.83985,-0.19922 v -0.65625 c -0.11329,-0.0117 -0.16407,-0.0195 -0.25,-0.0195 -0.41407,0 -0.73438,0.2461 -1.10157,0.84375 v -0.73047"
     id="path162" />
  <path
     fill-rule="nonzero"
     fill="#abdda4"
     fill-opacity="1"
     d="m 63.180715,70.285536 h 73.171875 c 2.65625,0 4.79687,2.14063 4.79687,4.80078 v 15.83594 c 0,2.66016 -2.14062,4.80078 -4.79687,4.80078 H 63.180715 c -2.66015,0 -4.80078,-2.14062 -4.80078,-4.80078 v -15.83594 c 0,-2.66015 2.14063,-4.80078 4.80078,-4.80078"
     id="path163" />
  <path
     fill="none"
     stroke-width="1.28"
     stroke-linecap="butt"
     stroke-linejoin="miter"
     stroke="#000000"
     stroke-opacity="1"
     stroke-miterlimit="4"
     d="m 63.180715,70.285536 h 73.171875 c 2.65625,0 4.79687,2.14063 4.79687,4.80079 v 15.83593 c 0,2.66016 -2.14062,4.80078 -4.79687,4.80078 H 63.180715 c -2.66015,0 -4.80078,-2.14062 -4.80078,-4.80078 v -15.83593 c 0,-2.66016 2.14063,-4.80079 4.80078,-4.80079 z m 0,0"
     id="path164" />
  <path
     fill-rule="nonzero"
     fill="#000000"
     fill-opacity="1"
     d="m 62.696345,73.410536 h -0.71875 v 5.60157 h 3.48047 v -0.63282 h -2.76172 z m 5.03125,1.46485 c -1.125,0 -1.8125,0.80468 -1.8125,2.15625 0,1.34765 0.67578,2.15234 1.82422,2.15234 1.125,0 1.82031,-0.80469 1.82031,-2.12109 0,-1.39453 -0.66797,-2.1875 -1.83203,-2.1875 z m 0.0117,0.58593 c 0.71875,0 1.15234,0.59375 1.15234,1.59375 0,0.94532 -0.44531,1.54297 -1.15234,1.54297 -0.71875,0 -1.15625,-0.59375 -1.15625,-1.5664 0,-0.96875 0.4375,-1.57032 1.15625,-1.57032 z m 5.33984,-0.47656 v 0.58203 c -0.32031,-0.47265 -0.71484,-0.6914 -1.22656,-0.6914 -1.02344,0 -1.71094,0.88672 -1.71094,2.1914 0,0.66407 0.17188,1.19922 0.50391,1.58203 0.30078,0.33594 0.73437,0.53516 1.15234,0.53516 0.50391,0 0.86328,-0.21094 1.22266,-0.71484 v 0.20312 c 0,0.54688 -0.0742,0.875 -0.23047,1.10156 -0.16797,0.23829 -0.5,0.375 -0.89453,0.375 -0.29297,0 -0.55078,-0.0742 -0.73047,-0.21875 -0.14453,-0.11328 -0.20703,-0.21875 -0.24219,-0.45703 h -0.65234 c 0.0703,0.75782 0.65625,1.21094 1.60156,1.21094 0.60156,0 1.11719,-0.19141 1.375,-0.51172 0.3125,-0.36719 0.42578,-0.8789 0.42578,-1.82422 v -3.36328 z m -1.15625,0.47656 c 0.6875,0 1.09766,0.58594 1.09766,1.59375 0,0.95704 -0.41797,1.54297 -1.09375,1.54297 -0.69922,0 -1.11719,-0.59375 -1.11719,-1.5664 0,-0.96875 0.42578,-1.57032 1.11328,-1.57032"
     id="path165" />
  <path
     fill-rule="nonzero"
     fill="#b6883c"
     fill-opacity="1"
     d="m 152.98931,94.769916 c 0,1.61719 -3.13672,2.92969 -7.00782,2.92969 -3.86718,0 -7.00781,-1.3125 -7.00781,-2.92969 0,-1.6211 3.14063,-2.92969 7.00781,-2.92969 3.8711,0 7.00782,1.30859 7.00782,2.92969"
     id="path166" />
  <path
     fill="none"
     stroke-width="0.492315"
     stroke-linecap="butt"
     stroke-linejoin="miter"
     stroke="#705c2c"
     stroke-opacity="1"
     stroke-miterlimit="4"
     d="m 152.98931,94.769913 c 0,1.621099 -3.13672,2.933596 -7.00781,2.933596 -3.8711,0 -7.00781,-1.312497 -7.00781,-2.933596 0,-1.617182 3.13671,-2.929679 7.00781,-2.929679 3.87109,0 7.00781,1.312497 7.00781,2.929679 z m 0,0"
     id="path167" />
  <path
     fill-rule="nonzero"
     fill="#b6883c"
     fill-opacity="1"
     d="m 152.98931,91.055066 c 0,1.61719 -3.13672,2.92969 -7.00782,2.92969 -3.86718,0 -7.00781,-1.3125 -7.00781,-2.92969 0,-1.61718 3.14063,-2.92968 7.00781,-2.92968 3.8711,0 7.00782,1.3125 7.00782,2.92968"
     id="path168" />
  <path
     fill="none"
     stroke-width="0.492315"
     stroke-linecap="butt"
     stroke-linejoin="miter"
     stroke="#705c2c"
     stroke-opacity="1"
     stroke-miterlimit="4"
     d="m 152.98931,91.058983 c 0,1.617182 -3.13672,2.929679 -7.00781,2.929679 -3.8711,0 -7.00781,-1.312497 -7.00781,-2.929679 0,-1.621099 3.13671,-2.933596 7.00781,-2.933596 3.87109,0 7.00781,1.312497 7.00781,2.933596 z m 0,0"
     id="path169" />
  <path
     fill-rule="nonzero"
     fill="#b6883c"
     fill-opacity="1"
     d="m 153.02837,87.344136 c 0,1.61718 -3.13672,2.92968 -7.00781,2.92968 -3.8711,0 -7.00782,-1.3125 -7.00782,-2.92968 0,-1.6211 3.13672,-2.9336 7.00782,-2.9336 3.87109,0 7.00781,1.3125 7.00781,2.9336"
     id="path170" />
  <path
     fill="none"
     stroke-width="0.492159"
     stroke-linecap="butt"
     stroke-linejoin="miter"
     stroke="#705c2c"
     stroke-opacity="1"
     stroke-miterlimit="4"
     d="m 153.02837,87.344136 c 0,1.617182 -3.13672,2.929679 -7.00781,2.929679 -3.87109,0 -7.00781,-1.312497 -7.00781,-2.929679 0,-1.617195 3.13672,-2.929691 7.00781,-2.929691 3.87109,0 7.00781,1.312496 7.00781,2.929691 z m 0,0"
     id="path171" />
  <path
     fill-rule="nonzero"
     fill="#abdda4"
     fill-opacity="1"
     d="m 118.07915,15.582415 h 46.32813 c 2.66015,0 4.80078,2.140621 4.80078,4.800781 v 35.07031 c 0,2.66016 -2.14063,4.80078 -4.80078,4.80078 h -46.32813 c -2.66016,0 -4.80078,-2.14062 -4.80078,-4.80078 v -35.07031 c 0,-2.66016 2.14062,-4.800781 4.80078,-4.800781"
     id="path172" />
  <path
     fill="none"
     stroke-width="1.28"
     stroke-linecap="butt"
     stroke-linejoin="miter"
     stroke="#000000"
     stroke-opacity="1"
     stroke-miterlimit="4"
     d="m 118.07915,15.582416 h 46.32813 c 2.66015,0 4.80078,2.14062 4.80078,4.80078 v 35.07031 c 0,2.66016 -2.14063,4.80078 -4.80078,4.80078 h -46.32813 c -2.66015,0 -4.80078,-2.14062 -4.80078,-4.80078 v -35.07031 c 0,-2.66016 2.14063,-4.80078 4.80078,-4.80078 z m 0,0"
     id="path173" />
  <path
     fill-rule="nonzero"
     fill="#000000"
     fill-opacity="1"
     d="m 120.20024,19.711326 c -0.008,-1.09766 -0.75781,-1.73438 -2.05078,-1.73438 -1.22656,0 -1.98828,0.62891 -1.98828,1.64063 0,0.6875 0.36328,1.12109 1.09766,1.30859 l 1.39062,0.36719 c 0.70703,0.1875 1.03125,0.46875 1.03125,0.90625 0,0.30078 -0.16406,0.60547 -0.40234,0.77734 -0.22266,0.15625 -0.57422,0.23438 -1.03125,0.23438 -0.60547,0 -1.01953,-0.14454 -1.28516,-0.46094 -0.20703,-0.25 -0.30078,-0.51953 -0.29297,-0.86328 h -0.67578 c 0.004,0.51172 0.10547,0.85156 0.33203,1.15625 0.37891,0.52343 1.03125,0.80078 1.87891,0.80078 0.66797,0 1.21484,-0.14844 1.57422,-0.4336 0.37891,-0.29296 0.61328,-0.79296 0.61328,-1.27734 0,-0.6875 -0.42969,-1.20312 -1.1875,-1.40625 l -1.40625,-0.375 c -0.67578,-0.18359 -0.92578,-0.40234 -0.92578,-0.83203 0,-0.57031 0.5,-0.94531 1.25781,-0.94531 0.88672,0 1.38672,0.40625 1.39453,1.13672 z m 2.50391,-0.0664 h -0.66016 v -1.10938 h -0.63671 v 1.10938 h -0.54688 v 0.52344 h 0.54688 v 3.03906 c 0,0.40625 0.27734,0.63672 0.77734,0.63672 0.15234,0 0.30859,-0.0117 0.51953,-0.0508 v -0.53516 c -0.082,0.0156 -0.17969,0.0273 -0.30469,0.0273 -0.27734,0 -0.35547,-0.0781 -0.35547,-0.35937 v -2.75781 h 0.66016 z m 4.29297,3.64844 c -0.0742,0.0117 -0.10156,0.0117 -0.14453,0.0117 -0.21875,0 -0.34375,-0.10938 -0.34375,-0.3125 v -2.36719 c 0,-0.71485 -0.51953,-1.09375 -1.51172,-1.09375 -0.58203,0 -1.07031,0.16797 -1.33594,0.46875 -0.18359,0.20703 -0.26562,0.4375 -0.27734,0.83203 h 0.64453 c 0.0547,-0.48828 0.34375,-0.71484 0.94531,-0.71484 0.57422,0 0.89844,0.21875 0.89844,0.60156 v 0.16797 c 0,0.26953 -0.16406,0.38672 -0.66797,0.44531 -0.90625,0.11719 -1.04297,0.14844 -1.28906,0.25 -0.46875,0.1875 -0.70703,0.55078 -0.70703,1.07422 0,0.73047 0.50781,1.1875 1.32031,1.1875 0.50781,0 0.91016,-0.17578 1.36719,-0.58594 0.043,0.40234 0.24609,0.58594 0.65625,0.58594 0.13281,0 0.23437,-0.0117 0.44531,-0.0703 z m -1.125,-0.89453 c 0,0.21875 -0.0625,0.35156 -0.25,0.52734 -0.26172,0.23437 -0.58203,0.35937 -0.95703,0.35937 -0.5,0 -0.78516,-0.24218 -0.78516,-0.64843 0,-0.41797 0.28125,-0.63672 0.96094,-0.73828 0.67969,-0.0859 0.82031,-0.11719 1.03125,-0.21875 z m 3.23828,-2.75391 h -0.66406 v -1.10938 h -0.63672 v 1.10938 h -0.54297 v 0.52344 h 0.54297 v 3.03906 c 0,0.40625 0.28125,0.63672 0.78125,0.63672 0.14844,0 0.30469,-0.0117 0.51953,-0.0508 v -0.53516 c -0.082,0.0156 -0.18359,0.0273 -0.30859,0.0273 -0.27344,0 -0.35547,-0.0781 -0.35547,-0.35937 v -2.75781 h 0.66406 z m 4.11719,2.22266 c 0,-0.60938 -0.0469,-0.98047 -0.15625,-1.28125 -0.26563,-0.66016 -0.875,-1.05469 -1.63281,-1.05469 -1.11719,0 -1.84375,0.85547 -1.84375,2.17969 0,1.32031 0.69921,2.13281 1.83203,2.13281 0.91797,0 1.55468,-0.51953 1.71875,-1.39453 h -0.64453 c -0.17969,0.52734 -0.53516,0.80859 -1.05469,0.80859 -0.40625,0 -0.75,-0.19141 -0.96875,-0.52734 -0.15235,-0.23047 -0.20703,-0.46094 -0.21485,-0.86328 z m -2.94531,-0.51563 c 0.0508,-0.74609 0.50781,-1.23437 1.14843,-1.23437 0.63282,0 1.11328,0.52734 1.11328,1.18359 0,0.0156 0,0.0312 -0.004,0.0508 z m 9.0039,2.31641 1.57813,-4.69141 v 4.69141 h 0.67187 v -5.60157 h -0.98828 l -1.62891,4.87891 -1.65625,-4.87891 h -0.99609 v 5.60157 h 0.67578 v -4.69141 l 1.59375,4.69141 z m 6.92578,-0.375 c -0.0781,0.0117 -0.10156,0.0117 -0.14453,0.0117 -0.21875,0 -0.34375,-0.10938 -0.34375,-0.3125 v -2.36719 c 0,-0.71485 -0.51953,-1.09375 -1.51172,-1.09375 -0.58203,0 -1.07031,0.16797 -1.33984,0.46875 -0.17969,0.20703 -0.26172,0.4375 -0.27344,0.83203 h 0.64453 c 0.0547,-0.48828 0.34375,-0.71484 0.94141,-0.71484 0.57422,0 0.90234,0.21875 0.90234,0.60156 v 0.16797 c 0,0.26953 -0.16406,0.38672 -0.66797,0.44531 -0.91015,0.11719 -1.04687,0.14844 -1.28906,0.25 -0.46875,0.1875 -0.70703,0.55078 -0.70703,1.07422 0,0.73047 0.50781,1.1875 1.32031,1.1875 0.50391,0 0.91407,-0.17578 1.36719,-0.58594 0.0469,0.40234 0.24609,0.58594 0.65625,0.58594 0.13281,0 0.23047,-0.0117 0.44531,-0.0703 z m -1.125,-0.89453 c 0,0.21875 -0.0625,0.35156 -0.25,0.52734 -0.26172,0.23437 -0.58203,0.35937 -0.95703,0.35937 -0.5,0 -0.78906,-0.24218 -0.78906,-0.64843 0,-0.41797 0.28125,-0.63672 0.96484,-0.73828 0.67969,-0.0859 0.81641,-0.11719 1.03125,-0.21875 z m 4.90625,-1.40625 c -0.0312,-0.38672 -0.12109,-0.64063 -0.26953,-0.86719 -0.27344,-0.375 -0.76172,-0.59375 -1.32422,-0.59375 -1.08203,0 -1.78906,0.85547 -1.78906,2.19531 0,1.29688 0.69531,2.11719 1.78125,2.11719 0.96484,0 1.57031,-0.57422 1.64453,-1.5586 h -0.64453 c -0.10547,0.64454 -0.4375,0.97266 -0.98047,0.97266 -0.70703,0 -1.13281,-0.58203 -1.13281,-1.53125 0,-1.00781 0.41406,-1.60937 1.11328,-1.60937 0.53906,0 0.875,0.32031 0.95703,0.875 z m 0.75782,-2.92579 v 5.60157 h 0.63671 v -2.21875 c 0,-0.82422 0.4336,-1.36328 1.09375,-1.36328 0.20704,0 0.41407,0.0703 0.57032,0.1875 0.17968,0.13281 0.2539,0.32031 0.2539,0.60937 v 2.78516 h 0.64063 v -3.04297 c 0,-0.67578 -0.48047,-1.09375 -1.26563,-1.09375 -0.5664,0 -0.91797,0.17578 -1.29297,0.66406 v -2.12891 z m 4.88671,1.57813 h -0.63671 v 4.02344 h 0.63671 z m 0,-1.57813 h -0.64062 v 0.8086 h 0.64062 z m 1.09766,1.57813 v 4.02344 h 0.64453 v -2.21875 c 0,-0.82422 0.42969,-1.36328 1.09375,-1.36328 0.50391,0 0.83203,0.30859 0.83203,0.79687 v 2.78516 h 0.63672 v -3.04297 c 0,-0.66797 -0.5,-1.09375 -1.27344,-1.09375 -0.60156,0 -0.98828,0.22656 -1.33984,0.78515 v -0.67187 z m 7.67578,2.22266 c 0,-0.60938 -0.043,-0.98047 -0.15625,-1.28125 -0.26172,-0.66016 -0.875,-1.05469 -1.63281,-1.05469 -1.11719,0 -1.84375,0.85547 -1.84375,2.17969 0,1.32031 0.69922,2.13281 1.83203,2.13281 0.91797,0 1.55859,-0.51953 1.71875,-1.39453 h -0.64453 c -0.17969,0.52734 -0.53516,0.80859 -1.05469,0.80859 -0.40625,0 -0.75,-0.19141 -0.96875,-0.52734 -0.15234,-0.23047 -0.20703,-0.46094 -0.21094,-0.86328 z m -2.94531,-0.51563 c 0.0508,-0.74609 0.50781,-1.23437 1.15234,-1.23437 0.62891,0 1.10938,0.52734 1.10938,1.18359 0,0.0156 0,0.0312 -0.004,0.0508"
     id="path174" />
  <path
     fill="none"
     stroke-width="0.96"
     stroke-linecap="round"
     stroke-linejoin="miter"
     stroke="#000000"
     stroke-opacity="1"
     stroke-miterlimit="4"
     d="m 72.551815,49.933976 c -3.01172,5.91406 0.17969,13.17188 2.32812,16.19922"
     id="path175" />
  <path
     fill-rule="evenodd"
     fill="#000000"
     fill-opacity="1"
     d="m 76.165095,67.941786 -3.49219,-1.59765 3.13281,-2.22266"
     id="path176" />
  <path
     fill="none"
     stroke-width="0.48"
     stroke-linecap="butt"
     stroke-linejoin="miter"
     stroke="#000000"
     stroke-opacity="1"
     stroke-miterlimit="4"
     d="m 76.165095,67.941786 -3.49219,-1.59765 3.13281,-2.22266 z m 0,0"
     id="path177" />
  <path
     fill-rule="nonzero"
     fill="#abdda4"
     fill-opacity="1"
     d="m 62.325245,26.742576 h 37.10547 c 2.660155,0 4.800775,2.14062 4.800775,4.80078 v 15.15625 c 0,2.66015 -2.14062,4.80078 -4.800775,4.80078 h -37.10547 c -2.66015,0 -4.80078,-2.14063 -4.80078,-4.80078 v -15.15625 c 0,-2.66016 2.14063,-4.80078 4.80078,-4.80078"
     id="path178" />
  <path
     fill="none"
     stroke-width="1.28"
     stroke-linecap="butt"
     stroke-linejoin="miter"
     stroke="#000000"
     stroke-opacity="1"
     stroke-miterlimit="4"
     d="m 62.325255,26.742576 h 37.10546 c 2.660155,0 4.800785,2.14062 4.800785,4.80078 v 15.16015 c 0,2.65625 -2.14063,4.80078 -4.800785,4.80078 h -37.10546 c -2.66016,0 -4.80079,-2.14453 -4.80079,-4.80078 v -15.16015 c 0,-2.66016 2.14063,-4.80078 4.80079,-4.80078 z m 0,0"
     id="path179" />
  <path
     fill-rule="nonzero"
     fill="#000000"
     fill-opacity="1"
     d="m 64.958065,31.605856 c -0.22657,-1.23047 -0.9336,-1.83203 -2.16407,-1.83203 -0.75,0 -1.35546,0.23828 -1.77734,0.69921 -0.50391,0.5586 -0.77734,1.35157 -0.77734,2.25782 0,0.92187 0.27734,1.71875 0.80859,2.26172 0.43359,0.4414 0.98828,0.64843 1.71484,0.64843 1.36719,0 2.13672,-0.73828 2.30469,-2.21875 h -0.73437 c -0.0664,0.39063 -0.14063,0.64453 -0.25782,0.8711 -0.22656,0.46093 -0.70703,0.71875 -1.30078,0.71875 -1.11718,0 -1.82422,-0.88672 -1.82422,-2.28907 0,-1.4375 0.67579,-2.32031 1.76172,-2.32031 0.44922,0 0.875,0.14063 1.10547,0.35938 0.20703,0.1875 0.32031,0.42187 0.40625,0.84375 z m 2.54687,-0.27735 c -1.125,0 -1.8125,0.8086 -1.8125,2.15625 0,1.35157 0.67578,2.15625 1.82422,2.15625 1.125,0 1.82031,-0.80468 1.82031,-2.125 0,-1.39062 -0.66797,-2.1875 -1.83203,-2.1875 z m 0.0117,0.58985 c 0.72266,0 1.15234,0.59375 1.15234,1.59375 0,0.9414 -0.44531,1.54297 -1.15234,1.54297 -0.71875,0 -1.15234,-0.59375 -1.15234,-1.57032 0,-0.96875 0.43359,-1.5664 1.15234,-1.5664 z m 2.71484,-0.47657 v 4.02735 h 0.64454 v -2.21875 c 0,-0.82813 0.42968,-1.36328 1.09375,-1.36328 0.5039,0 0.82812,0.30468 0.82812,0.79297 v 2.78906 h 0.64063 v -3.04688 c 0,-0.66797 -0.5,-1.09375 -1.27735,-1.09375 -0.59765,0 -0.98828,0.22657 -1.33594,0.78907 v -0.67579 z m 7.10157,1.1211 c -0.008,-0.78906 -0.52735,-1.23438 -1.45703,-1.23438 -0.9375,0 -1.54297,0.48438 -1.54297,1.22657 0,0.6289 0.3164,0.92968 1.27343,1.16406 l 0.60157,0.14062 c 0.4414,0.10938 0.61718,0.26953 0.61718,0.5625 0,0.375 -0.375,0.63282 -0.9375,0.63282 -0.34375,0 -0.63671,-0.10157 -0.80078,-0.26954 -0.0977,-0.11718 -0.14453,-0.23046 -0.17968,-0.51953 h -0.67579 c 0.0312,0.9336 0.55079,1.375 1.60547,1.375 1.01172,0 1.65625,-0.5 1.65625,-1.27343 0,-0.60157 -0.33593,-0.92579 -1.13672,-1.11719 l -0.61328,-0.15235 c -0.52343,-0.11718 -0.74218,-0.28515 -0.74218,-0.57421 0,-0.3711 0.33203,-0.60547 0.84765,-0.60547 0.51563,0 0.79297,0.22265 0.8086,0.64453 z m 4.41406,1.10547 c 0,-0.61328 -0.0469,-0.98438 -0.15625,-1.28125 -0.26563,-0.66407 -0.875,-1.0586 -1.63281,-1.0586 -1.11719,0 -1.84375,0.85547 -1.84375,2.1836 0,1.3164 0.69922,2.1289 1.83203,2.1289 0.91797,0 1.55469,-0.51562 1.71875,-1.39062 h -0.64453 c -0.17969,0.52344 -0.53907,0.80469 -1.05469,0.80469 -0.41016,0 -0.75,-0.1875 -0.96875,-0.52344 -0.15234,-0.23438 -0.20703,-0.46485 -0.21484,-0.86328 z m -2.94531,-0.51953 c 0.0508,-0.7461 0.5039,-1.23047 1.14843,-1.23047 0.63282,0 1.11329,0.52343 1.11329,1.17968 0,0.0195 0,0.0312 -0.008,0.0508 z m 3.82031,-1.70704 v 4.02735 h 0.64062 v -2.21875 c 0,-0.82813 0.4336,-1.36328 1.09375,-1.36328 0.50782,0 0.83204,0.30468 0.83204,0.79297 v 2.78906 h 0.63671 v -3.04688 c 0,-0.66797 -0.5,-1.09375 -1.27343,-1.09375 -0.60157,0 -0.98828,0.22657 -1.33594,0.78907 v -0.67579 z m 7.09766,1.1211 c -0.004,-0.78906 -0.52344,-1.23438 -1.45704,-1.23438 -0.9375,0 -1.54296,0.48438 -1.54296,1.22657 0,0.6289 0.32031,0.92968 1.27734,1.16406 l 0.59766,0.14062 c 0.44531,0.10938 0.62109,0.26953 0.62109,0.5625 0,0.375 -0.375,0.63282 -0.94141,0.63282 -0.34375,0 -0.63672,-0.10157 -0.79687,-0.26954 -0.10156,-0.11718 -0.14453,-0.23046 -0.1836,-0.51953 h -0.67187 c 0.0273,0.9336 0.54687,1.375 1.60547,1.375 1.01172,0 1.65625,-0.5 1.65625,-1.27343 0,-0.60157 -0.33985,-0.92579 -1.13672,-1.11719 l -0.61328,-0.15235 c -0.52735,-0.11718 -0.7461,-0.28515 -0.7461,-0.57421 0,-0.3711 0.33204,-0.60547 0.85157,-0.60547 0.51172,0 0.79297,0.22265 0.80468,0.64453 z m 4.17968,2.90625 v -4.02735 h -0.64062 v 2.28125 c 0,0.82422 -0.42188,1.36329 -1.08985,1.36329 -0.50781,0 -0.83203,-0.3125 -0.83203,-0.79297 v -2.85157 h -0.63672 v 3.10547 c 0,0.66407 0.5,1.09375 1.27735,1.09375 0.59765,0 0.97265,-0.20703 1.34765,-0.73828 v 0.56641 z m 3.9375,-2.90625 c -0.008,-0.78906 -0.52734,-1.23438 -1.45703,-1.23438 -0.9375,0 -1.54297,0.48438 -1.54297,1.22657 0,0.6289 0.32032,0.92968 1.27344,1.16406 l 0.60156,0.14062 c 0.44532,0.10938 0.61719,0.26953 0.61719,0.5625 0,0.375 -0.375,0.63282 -0.9375,0.63282 -0.34375,0 -0.63672,-0.10157 -0.80078,-0.26954 -0.0977,-0.11718 -0.14063,-0.23046 -0.17969,-0.51953 h -0.67578 c 0.0312,0.9336 0.55078,1.375 1.60547,1.375 1.01562,0 1.65625,-0.5 1.65625,-1.27343 0,-0.60157 -0.33594,-0.92579 -1.13672,-1.11719 l -0.61328,-0.15235 c -0.52344,-0.11718 -0.74219,-0.28515 -0.74219,-0.57421 0,-0.3711 0.33203,-0.60547 0.85156,-0.60547 0.51172,0 0.79297,0.22265 0.80469,0.64453"
     id="path180" />
  <path
     fill-rule="nonzero"
     fill="#000000"
     fill-opacity="1"
     d="m 63.461965,45.066786 1.57422,-4.6914 v 4.6914 h 0.67578 v -5.59765 h -0.98828 l -1.6289,4.875 -1.65625,-4.875 h -0.9961 v 5.59765 h 0.67578 v -4.6914 l 1.59375,4.6914 z m 4.89844,-4.13671 c -1.125,0 -1.8125,0.80468 -1.8125,2.15625 0,1.34765 0.67578,2.15624 1.82422,2.15624 1.125,0 1.82031,-0.80859 1.82031,-2.12499 0,-1.39454 -0.66797,-2.1875 -1.83203,-2.1875 z m 0.0117,0.58593 c 0.71875,0 1.15234,0.59375 1.15234,1.59375 0,0.94531 -0.44531,1.54297 -1.15234,1.54297 -0.71484,0 -1.15625,-0.58984 -1.15625,-1.5664 0,-0.96875 0.44141,-1.57032 1.15625,-1.57032 z m 5.97656,-2.04687 h -0.63672 v 2.07812 c -0.26953,-0.40625 -0.69531,-0.61718 -1.23828,-0.61718 -1.04297,0 -1.72656,0.83593 -1.72656,2.11718 0,1.35547 0.67187,2.19531 1.75,2.19531 0.55859,0 0.9375,-0.20703 1.28125,-0.70703 v 0.53125 h 0.57031 z m -1.76172,2.05469 c 0.6875,0 1.125,0.61718 1.125,1.57421 0,0.9336 -0.44531,1.54297 -1.12109,1.54297 -0.70703,0 -1.17188,-0.61719 -1.17188,-1.55468 0,-0.9375 0.46485,-1.5625 1.16797,-1.5625 z m 5.9375,3.54296 v -4.02343 h -0.64062 v 2.28125 c 0,0.82421 -0.42188,1.35937 -1.08985,1.35937 -0.50781,0 -0.83203,-0.30859 -0.83203,-0.79297 v -2.84765 h -0.63672 v 3.10546 c 0,0.66407 0.5,1.09375 1.28125,1.09375 0.59375,0 0.96875,-0.20703 1.34375,-0.73828 v 0.5625 z m 1.74219,-5.59765 h -0.64453 v 5.59765 h 0.64453 z m 4.48047,3.79687 c 0,-0.61328 -0.0469,-0.98047 -0.15625,-1.28125 -0.26563,-0.66015 -0.875,-1.05468 -1.63281,-1.05468 -1.11719,0 -1.84375,0.85546 -1.84375,2.17968 0,1.32031 0.69922,2.13281 1.83203,2.13281 0.91797,0 1.55469,-0.51953 1.71875,-1.39453 h -0.64453 c -0.17969,0.52735 -0.53907,0.80469 -1.05469,0.80469 -0.41016,0 -0.75,-0.18359 -0.96875,-0.52344 -0.15234,-0.23047 -0.20703,-0.46093 -0.21484,-0.86328 z m -2.94531,-0.51562 c 0.0508,-0.7461 0.5039,-1.23438 1.14843,-1.23438 0.63282,0 1.11329,0.52735 1.11329,1.1836 0,0.0195 0,0.0312 -0.008,0.0508"
     id="path181" />
  <path
     fill="none"
     stroke-width="0.96"
     stroke-linecap="round"
     stroke-linejoin="miter"
     stroke="#000000"
     stroke-opacity="1"
     stroke-miterlimit="4"
     d="m 14.782285,28.848036 c 15.29687,-20.7148404 30.91406,-9.98437 40.83203,-2.94531"
     id="path182" />
  <path
     fill-rule="evenodd"
     fill="#000000"
     fill-opacity="1"
     d="m 57.422905,27.183976 -3.82031,-0.35547 2.22265,-3.13281"
     id="path183" />
  <path
     fill="none"
     stroke-width="0.48"
     stroke-linecap="butt"
     stroke-linejoin="miter"
     stroke="#000000"
     stroke-opacity="1"
     stroke-miterlimit="4"
     d="m 57.422905,27.183976 -3.82031,-0.35547 2.22266,-3.13281 z m 0,0"
     id="path184" />
  <path
     fill-rule="nonzero"
     fill="#ffffbf"
     fill-opacity="1"
     d="M 7.6182152,31.016006 H 32.911185 c 1.4375,0 2.59766,0.82813 2.59766,1.85938 v 16.29297 c 0,1.02734 -1.16016,1.85546 -2.59766,1.85546 H 7.6182152 c -1.437496,0 -2.597652,-0.82812 -2.597652,-1.85546 v -16.29297 c 0,-1.03125 1.160156,-1.85938 2.597652,-1.85938"
     id="path185" />
  <g
     clip-path="url(#clip-4)"
     id="g186"
     transform="translate(-93.721625,-84.335554)">
    <path
       fill="none"
       stroke-width="10.88"
       stroke-linecap="butt"
       stroke-linejoin="miter"
       stroke="#000000"
       stroke-opacity="1"
       stroke-miterlimit="4"
       d="m 1013.3984,6766.4844 h 252.9297 c 14.375,0 25.9766,-8.2813 25.9766,-18.5938 v -162.9297 c 0,-10.2734 -11.6016,-18.5547 -25.9766,-18.5547 h -252.9297 c -14.37496,0 -25.97653,8.2813 -25.97653,18.5547 v 162.9297 c 0,10.3125 11.60157,18.5938 25.97653,18.5938 z m 0,0"
       transform="matrix(0.1,0,0,-0.1,0,792)"
       id="path186" />
  </g>
  <path
     fill-rule="nonzero"
     fill="#ffffbf"
     fill-opacity="1"
     d="M 5.6963442,29.098036 H 30.993215 c 1.4375,0 2.59766,0.82813 2.59766,1.85547 v 16.29297 c 0,1.03125 -1.16016,1.85938 -2.59766,1.85938 H 5.6963442 c -1.4375,0 -2.59375,-0.82813 -2.59375,-1.85938 v -16.29297 c 0,-1.02734 1.15625,-1.85547 2.59375,-1.85547"
     id="path187" />
  <g
     clip-path="url(#clip-5)"
     id="g188"
     transform="translate(-93.721625,-84.335554)">
    <path
       fill="none"
       stroke-width="10.88"
       stroke-linecap="butt"
       stroke-linejoin="miter"
       stroke="#000000"
       stroke-opacity="1"
       stroke-miterlimit="4"
       d="m 994.17969,6785.6641 h 252.96871 c 14.375,0 25.9766,-8.2813 25.9766,-18.5547 v -162.9297 c 0,-10.3125 -11.6016,-18.5938 -25.9766,-18.5938 H 994.17969 c -14.375,0 -25.9375,8.2813 -25.9375,18.5938 v 162.9297 c 0,10.2734 11.5625,18.5547 25.9375,18.5547 z m 0,0"
       transform="matrix(0.1,0,0,-0.1,0,792)"
       id="path188" />
  </g>
  <path
     fill-rule="nonzero"
     fill="#ffffbf"
     fill-opacity="1"
     d="M 3.1377502,27.176166 H 28.430715 c 1.44141,0 2.59766,0.82812 2.59766,1.85937 v 16.28907 c 0,1.03125 -1.15625,1.85937 -2.59766,1.85937 H 3.1377502 c -1.4375,0 -2.59375,-0.82812 -2.59375,-1.85937 v -16.28907 c 0,-1.03125 1.15625,-1.85937 2.59375,-1.85937"
     id="path189" />
  <g
     clip-path="url(#clip-6)"
     id="g190"
     transform="translate(-93.721625,-84.335554)">
    <path
       fill="none"
       stroke-width="10.88"
       stroke-linecap="butt"
       stroke-linejoin="miter"
       stroke="#000000"
       stroke-opacity="1"
       stroke-miterlimit="4"
       d="m 968.59375,6804.8828 h 252.92965 c 14.4141,0 25.9766,-8.2812 25.9766,-18.5937 v -162.8907 c 0,-10.3125 -11.5625,-18.5937 -25.9766,-18.5937 H 968.59375 c -14.375,0 -25.9375,8.2812 -25.9375,18.5937 v 162.8907 c 0,10.3125 11.5625,18.5937 25.9375,18.5937 z m 0,0"
       transform="matrix(0.1,0,0,-0.1,0,792)"
       id="path190" />
  </g>
  <path
     fill-rule="nonzero"
     fill="#000000"
     fill-opacity="1"
     d="m 9.4775952,33.355856 c -0.22266,-1.23047 -0.92969,-1.83203 -2.16406,-1.83203 -0.75,0 -1.355472,0.23828 -1.773441,0.70312 -0.503907,0.55469 -0.78125,1.34766 -0.78125,2.25391 0,0.92578 0.28125,1.71875 0.8125,2.26172 0.429687,0.44531 0.988281,0.65234 1.714841,0.65234 1.36719,0 2.13672,-0.73828 2.30469,-2.21875 h -0.73828 c -0.0625,0.38672 -0.13672,0.64062 -0.25781,0.86719 -0.22266,0.46484 -0.70313,0.71875 -1.29688,0.71875 -1.121092,0 -1.824218,-0.88672 -1.824218,-2.28516 0,-1.44141 0.671876,-2.32031 1.761718,-2.32031 0.44922,0 0.875,0.13672 1.10547,0.35547 0.20703,0.1875 0.32031,0.42578 0.40625,0.84375 z m 1.6328098,-1.73828 h -0.64453 v 5.60156 h 0.64453 z m 1.6875,1.57812 h -0.63672 v 4.02344 h 0.63672 z m 0,-1.57812 h -0.64062 v 0.80859 h 0.64062 z m 4.5,3.80078 c 0,-0.61328 -0.043,-0.98047 -0.15625,-1.28125 -0.26172,-0.66016 -0.875,-1.05469 -1.63281,-1.05469 -1.11719,0 -1.83984,0.85547 -1.83984,2.17969 0,1.32031 0.69921,2.13281 1.82812,2.13281 0.92188,0 1.55859,-0.51953 1.71875,-1.39453 h -0.64062 c -0.1836,0.52344 -0.53907,0.80469 -1.0586,0.80469 -0.40625,0 -0.75,-0.1875 -0.96875,-0.52344 -0.14844,-0.23047 -0.20703,-0.46485 -0.21094,-0.86328 z m -2.9414,-0.51953 c 0.0508,-0.74219 0.5039,-1.23047 1.14843,-1.23047 0.62891,0 1.11328,0.52734 1.11328,1.18359 0,0.0156 0,0.0312 -0.008,0.0469 z m 3.8164,-1.70313 v 4.02344 h 0.64453 v -2.21875 c 0,-0.82422 0.42969,-1.36328 1.09375,-1.36328 0.50782,0 0.83203,0.30859 0.83203,0.79297 v 2.78906 h 0.63672 v -3.04297 c 0,-0.66797 -0.5,-1.09375 -1.27343,-1.09375 -0.60157,0 -0.98829,0.22266 -1.33985,0.78516 v -0.67188 z m 5.6875,0 h -0.66015 v -1.10937 h -0.64063 v 1.10937 h -0.54297 v 0.52344 h 0.54297 v 3.03906 c 0,0.40234 0.28125,0.63672 0.78125,0.63672 0.15234,0 0.30859,-0.0117 0.51953,-0.0508 v -0.53906 c -0.082,0.0195 -0.17969,0.0312 -0.30469,0.0312 -0.27734,0 -0.35546,-0.0781 -0.35546,-0.35938 v -2.75781 h 0.66015"
     id="path191" />
  <path
     fill="none"
     stroke-width="0.96"
     stroke-linecap="round"
     stroke-linejoin="miter"
     stroke="#000000"
     stroke-opacity="1"
     stroke-miterlimit="4"
     d="m 57.141655,38.344136 c -15.21094,6.48047 -34.61328,28.26953 -23.26172,55.28515"
     id="path192" />
  <g
     clip-path="url(#clip-7)"
     id="g193"
     transform="translate(-93.721625,-84.335554)">
    <path
       fill="none"
       stroke-width="9.6"
       stroke-linecap="round"
       stroke-linejoin="miter"
       stroke="#000000"
       stroke-opacity="1"
       stroke-miterlimit="4"
       d="m 1279.0625,6135.2344 c 71.875,-93.4766 145.1563,-149.375 212.4219,-126.211"
       transform="matrix(0.1,0,0,-0.1,0,792)"
       id="path193" />
  </g>
  <path
     fill-rule="evenodd"
     fill="#000000"
     fill-opacity="1"
     d="m 56.473685,106.40272 -1.25781,1.44922 -0.625,-1.81641"
     id="path194" />
  <path
     fill="none"
     stroke-width="0.24"
     stroke-linecap="butt"
     stroke-linejoin="miter"
     stroke="#000000"
     stroke-opacity="1"
     stroke-miterlimit="4"
     d="m 56.473685,106.40272 -1.25781,1.44922 -0.625,-1.81641 z m 0,0"
     id="path195" />
  <g
     clip-path="url(#clip-8)"
     id="g196"
     transform="translate(-93.721625,-84.335554)">
    <path
       fill="none"
       stroke-width="9.6"
       stroke-linecap="round"
       stroke-linejoin="miter"
       stroke="#000000"
       stroke-opacity="1"
       stroke-miterlimit="4"
       d="m 1279.0625,6135.3906 c 85.0391,-148.75 165.2734,-161.1328 243.0469,-147.539"
       transform="matrix(0.1,0,0,-0.1,0,792)"
       id="path196" />
  </g>
  <path
     fill-rule="evenodd"
     fill="#000000"
     fill-opacity="1"
     d="m 59.579155,108.68788 -1.47266,1.23437 -0.33203,-1.89453"
     id="path197" />
  <path
     fill="none"
     stroke-width="0.24"
     stroke-linecap="butt"
     stroke-linejoin="miter"
     stroke="#000000"
     stroke-opacity="1"
     stroke-miterlimit="4"
     d="m 59.579155,108.68788 -1.47265,1.23437 -0.33204,-1.89453 z m 0,0"
     id="path198" />
  <g
     clip-path="url(#clip-9)"
     id="g199"
     transform="translate(-93.721625,-84.335554)">
    <path
       fill="none"
       stroke-width="9.6"
       stroke-linecap="round"
       stroke-linejoin="miter"
       stroke="#000000"
       stroke-opacity="1"
       stroke-miterlimit="4"
       d="m 1279.1016,6135.2344 c 36.6406,-145.6641 178.9062,-196.6797 262.6953,-165.586"
       transform="matrix(0.1,0,0,-0.1,0,792)"
       id="path199" />
  </g>
  <g
     clip-path="url(#clip-10)"
     id="g200"
     transform="translate(-93.721625,-84.335554)">
    <path
       fill-rule="evenodd"
       fill="#000000"
       fill-opacity="1"
       d="m 155.21875,194.65234 -1.22266,1.47657 -0.66797,-1.80079"
       id="path200" />
  </g>
  <g
     clip-path="url(#clip-11)"
     id="g201"
     transform="translate(-93.721625,-84.335554)">
    <path
       fill="none"
       stroke-width="2.4"
       stroke-linecap="butt"
       stroke-linejoin="miter"
       stroke="#000000"
       stroke-opacity="1"
       stroke-miterlimit="4"
       d="m 1552.1875,5973.4766 -12.2266,-14.7657 -6.6796,18.0078 z m 0,0"
       transform="matrix(0.1,0,0,-0.1,0,792)"
       id="path201" />
  </g>
  <path
     fill="none"
     stroke-width="0.96"
     stroke-linecap="round"
     stroke-linejoin="miter"
     stroke="#000000"
     stroke-opacity="1"
     stroke-miterlimit="4"
     d="m 141.89946,79.121476 c 8.5,-1.5664 9.01563,-10.45312 7.50782,-14.55469"
     id="path202" />
  <path
     fill-rule="evenodd"
     fill="#000000"
     fill-opacity="1"
     d="m 148.63774,62.488666 2.94922,2.45312 -3.60156,1.32813"
     id="path203" />
  <path
     fill="none"
     stroke-width="0.48"
     stroke-linecap="butt"
     stroke-linejoin="miter"
     stroke="#000000"
     stroke-opacity="1"
     stroke-miterlimit="4"
     d="m 148.63775,62.488666 2.94921,2.45312 -3.60156,1.32813 z m 0,0"
     id="path204" />
  <path
     fill-rule="nonzero"
     fill="#d7e3f4"
     fill-opacity="1"
     stroke-width="0.64"
     stroke-linecap="round"
     stroke-linejoin="miter"
     stroke="#000000"
     stroke-opacity="1"
     stroke-miterlimit="4"
     d="m 64.387755,91.430076 h 72.261705 v -9.73829 H 64.387755 Z m 0,0"
     id="path205" />
  <path
     fill="none"
     stroke-width="0.64"
     stroke-linecap="butt"
     stroke-linejoin="miter"
     stroke="#000000"
     stroke-opacity="1"
     stroke-miterlimit="4"
     d="m 85.055715,81.801166 v 9.58203"
     id="path206" />
  <path
     fill="none"
     stroke-width="0.64"
     stroke-linecap="butt"
     stroke-linejoin="miter"
     stroke="#000000"
     stroke-opacity="1"
     stroke-miterlimit="4"
     d="m 105.64165,81.801166 v 9.58203"
     id="path207" />
  <path
     fill-rule="nonzero"
     fill="#000000"
     fill-opacity="1"
     d="m 69.102595,86.551166 1.35156,-1.94531 h -0.71875 l -0.96875,1.46093 -0.96875,-1.46093 h -0.73437 l 1.34765,1.97656 -1.42187,2.05078 h 0.73437 l 1.01563,-1.54688 1.00781,1.54688 h 0.74219"
     id="path208" />
  <path
     fill-rule="nonzero"
     fill="#000000"
     fill-opacity="1"
     d="m 72.524465,85.383196 h 0.28125 c -0.14453,0.28906 -0.25781,0.49609 -0.33203,0.60937 -0.0703,0.11719 -0.20312,0.29297 -0.39062,0.53125 h 5.92187 v 0.375 h -5.92187 c 0.25781,0.26954 0.5,0.65235 0.73437,1.15235 h -0.28515 c -0.32422,-0.35938 -0.59766,-0.62891 -0.82422,-0.8125 -0.23047,-0.1836 -0.46875,-0.33594 -0.71485,-0.45703 v -0.16407 c 0.21485,-0.0898 0.44532,-0.23046 0.67969,-0.41796 0.24219,-0.19141 0.52734,-0.46485 0.85156,-0.81641"
     id="path209" />
  <path
     fill-rule="nonzero"
     fill="#000000"
     fill-opacity="1"
     d="m 80.079155,86.137106 h 0.082 l 0.28906,-0.0117 c 0.74219,0 1.125,0.33593 1.125,0.99218 0,0.6836 -0.41796,1.08985 -1.125,1.08985 -0.73828,0 -1.10156,-0.3711 -1.15234,-1.15625 h -0.67578 c 0.0352,0.4375 0.11328,0.71875 0.23828,0.96875 0.28125,0.51562 0.82031,0.78515 1.5625,0.78515 1.12109,0 1.84375,-0.66796 1.84375,-1.6914 0,-0.69531 -0.26953,-1.07813 -0.92578,-1.30078 0.51562,-0.19922 0.76562,-0.58203 0.76562,-1.13282 0,-0.9375 -0.62109,-1.49218 -1.65625,-1.49218 -1.10156,0 -1.6914,0.59375 -1.70703,1.75781 h 0.67578 c 0.004,-0.33203 0.0352,-0.51563 0.125,-0.68359 0.14844,-0.30079 0.48438,-0.48829 0.91016,-0.48829 0.60156,0 0.95703,0.35938 0.95703,0.9336 0,0.3789 -0.13672,0.60937 -0.4375,0.73828 -0.17969,0.0742 -0.41797,0.10547 -0.89453,0.10937"
     id="path210" />
  <path
     fill-rule="nonzero"
     fill="#000000"
     fill-opacity="1"
     d="m 90.313535,84.605856 -1.11329,3.13281 -1.03125,-3.13281 h -0.67968 l 1.35547,4.03906 -0.2461,0.63672 c -0.0977,0.28515 -0.25,0.39453 -0.51562,0.39453 -0.0898,0 -0.20313,-0.0156 -0.33985,-0.043 v 0.57422 c 0.13282,0.0664 0.26172,0.0977 0.42969,0.0977 0.20703,0 0.43359,-0.0664 0.60156,-0.1914 0.19922,-0.14453 0.3125,-0.3125 0.4375,-0.63672 l 1.78907,-4.87109"
     id="path211" />
  <path
     fill-rule="nonzero"
     fill="#000000"
     fill-opacity="1"
     d="m 92.997125,85.383196 h 0.28125 c -0.14844,0.28906 -0.25781,0.49609 -0.33203,0.60937 -0.0703,0.11719 -0.20313,0.29297 -0.39453,0.53125 h 5.92578 v 0.375 h -5.92578 c 0.25781,0.26954 0.5039,0.65235 0.73828,1.15235 h -0.28516 c -0.32422,-0.35938 -0.59765,-0.62891 -0.82812,-0.8125 -0.22657,-0.1836 -0.46485,-0.33594 -0.71094,-0.45703 v -0.16407 c 0.21484,-0.0898 0.44531,-0.23046 0.67969,-0.41796 0.24218,-0.19141 0.52734,-0.46485 0.85156,-0.81641"
     id="path212" />
  <path
     fill-rule="nonzero"
     fill="#000000"
     fill-opacity="1"
     d="m 100.84087,84.750386 v 3.88281 h 0.67187 v -5.44531 h -0.4414 c -0.23828,0.83593 -0.39063,0.94922 -1.437495,1.08203 v 0.48047"
     id="path213" />
  <path
     fill="none"
     stroke-width="0.64"
     stroke-linecap="butt"
     stroke-linejoin="miter"
     stroke="#000000"
     stroke-opacity="1"
     stroke-miterlimit="4"
     d="m 126.12212,81.801166 v 9.58203"
     id="path214" />
  <path
     fill-rule="nonzero"
     fill="#000000"
     fill-opacity="1"
     d="m 110.90728,84.605856 -1.11329,3.13281 -1.03125,-3.13281 h -0.67968 l 1.35547,4.03906 -0.2461,0.63672 c -0.0977,0.28515 -0.25,0.39453 -0.51953,0.39453 -0.0859,0 -0.19922,-0.0156 -0.33594,-0.043 v 0.57422 c 0.13282,0.0664 0.26172,0.0977 0.42969,0.0977 0.20703,0 0.43359,-0.0664 0.60156,-0.1914 0.19922,-0.14453 0.3125,-0.3125 0.4375,-0.63672 l 1.78907,-4.87109"
     id="path215" />
  <path
     fill-rule="nonzero"
     fill="#000000"
     fill-opacity="1"
     d="m 113.59087,85.383196 h 0.28125 c -0.14844,0.28906 -0.25781,0.49609 -0.33203,0.60937 -0.0742,0.11719 -0.20313,0.29297 -0.39453,0.53125 h 5.92578 v 0.375 h -5.92578 c 0.25781,0.26954 0.5039,0.65235 0.73828,1.15235 h -0.28906 c -0.32032,-0.35938 -0.59766,-0.62891 -0.82422,-0.8125 -0.23047,-0.1836 -0.46875,-0.33594 -0.71485,-0.45703 v -0.16407 c 0.21875,-0.0898 0.44532,-0.23046 0.6836,-0.41796 0.23828,-0.19141 0.52343,-0.46485 0.85156,-0.81641"
     id="path216" />
  <path
     fill-rule="nonzero"
     fill="#000000"
     fill-opacity="1"
     d="m 119.84868,87.387106 c 0.13281,0.88671 0.71485,1.41796 1.54297,1.41796 0.60156,0 1.14453,-0.28515 1.46484,-0.77343 0.34375,-0.53125 0.5,-1.19922 0.5,-2.1875 0,-0.91407 -0.14453,-1.5 -0.46484,-1.98047 -0.29687,-0.4375 -0.77344,-0.67578 -1.375,-0.67578 -1.03516,0 -1.77734,0.76953 -1.77734,1.83203 0,1.01562 0.68359,1.73047 1.67187,1.73047 0.51172,0 0.88672,-0.1875 1.2461,-0.60547 -0.0156,1.32422 -0.4375,2.0625 -1.21485,2.0625 -0.48047,0 -0.8125,-0.30078 -0.91797,-0.82031 z m 1.66406,-3.61329 c 0.625,0 1.10547,0.52735 1.10547,1.23438 0,0.66797 -0.46875,1.14062 -1.1289,1.14062 -0.65625,0 -1.06641,-0.44921 -1.06641,-1.17968 0,-0.69532 0.46484,-1.19532 1.08984,-1.19532"
     id="path217" />
  <path
     fill-rule="nonzero"
     fill="#000000"
     fill-opacity="1"
     d="m 129.81353,86.156636 h -0.80079 v 0.80078 h 0.80079 z m 2.1289,0 h -0.80078 v 0.80078 h 0.80078 z m 2.13281,0 h -0.80078 v 0.80078 h 0.80078"
     id="path218" />
  <path
     fill="none"
     stroke-width="0.96"
     stroke-linecap="round"
     stroke-linejoin="miter"
     stroke="#000000"
     stroke-opacity="1"
     stroke-miterlimit="4"
     d="m 33.782285,93.519916 c 3.85156,5.94531 11.60156,12.300774 18.64062,10.988274"
     id="path219" />
  <path
     fill-rule="evenodd"
     fill="#000000"
     fill-opacity="1"
     d="m 53.512745,104.30506 -1.45703,1.25 -0.34765,-1.89062"
     id="path220" />
  <path
     fill="none"
     stroke-width="0.24"
     stroke-linecap="butt"
     stroke-linejoin="miter"
     stroke="#000000"
     stroke-opacity="1"
     stroke-miterlimit="4"
     d="m 53.512755,104.30507 -1.45704,1.25 -0.34765,-1.89063 z m 0,0"
     id="path221" />
  <g
     clip-path="url(#clip-12)"
     id="g222"
     transform="translate(-93.721625,-84.335554)">
    <path
       fill="none"
       stroke-width="9.6"
       stroke-linecap="round"
       stroke-linejoin="miter"
       stroke="#000000"
       stroke-opacity="1"
       stroke-miterlimit="4"
       d="m 2380.5469,6927.7734 c -636.4063,267.5782 -1270.3125,118.0078 -1308.086,-89.3359"
       transform="matrix(0.1,0,0,-0.1,0,792)"
       id="path222" />
  </g>
  <path
     fill-rule="evenodd"
     fill="#000000"
     fill-opacity="1"
     d="m 13.129935,26.000386 -1.29687,-3.61328 3.78125,0.6875"
     id="path223" />
  <path
     fill="none"
     stroke-width="0.48"
     stroke-linecap="butt"
     stroke-linejoin="miter"
     stroke="#000000"
     stroke-opacity="1"
     stroke-miterlimit="4"
     d="m 13.129935,26.000386 -1.29687,-3.61328 3.78125,0.6875 z m 0,0"
     id="path224" />
  <path
     fill="none"
     stroke-width="0.96"
     stroke-linecap="butt"
     stroke-linejoin="miter"
     stroke="#000000"
     stroke-opacity="1"
     stroke-miterlimit="4"
     d="m 44.92291,67.937886 c 0,2.527344 -2.148437,4.578119 -4.792968,4.578119 -2.644531,0 -4.789069,-2.050775 -4.789069,-4.578119 0,-2.527343 2.144538,-4.578128 4.789069,-4.578128 2.644531,0 4.792968,2.050785 4.792968,4.578128 z m 0,0"
     id="path225" />
  <path
     fill-rule="nonzero"
     fill="#000000"
     fill-opacity="1"
     d="m 39.235405,70.066786 h 2.61719 v 0.62891 h -3.51953 v -0.62891 c 0.28515,-0.29687 0.67187,-0.6914 1.16406,-1.1875 0.49219,-0.49609 0.80078,-0.8164 0.92578,-0.95703 0.23828,-0.26953 0.41016,-0.5 0.50391,-0.6875 0.0977,-0.1875 0.14453,-0.37109 0.14453,-0.55078 0,-0.29297 -0.10547,-0.53516 -0.3125,-0.71875 -0.20313,-0.1875 -0.47266,-0.28125 -0.80469,-0.28125 -0.23437,0 -0.48047,0.043 -0.74609,0.125 -0.26172,0.0859 -0.53907,0.20703 -0.83594,0.37109 v -0.75781 c 0.30078,-0.12109 0.58203,-0.21094 0.84375,-0.27344 0.26172,-0.0625 0.50391,-0.0937 0.72266,-0.0937 0.57031,0 1.02734,0.14063 1.37109,0.42969 0.33984,0.28516 0.51172,0.67188 0.51172,1.14844 0,0.23047 -0.043,0.44922 -0.13281,0.65234 -0.082,0.20313 -0.23438,0.44532 -0.46094,0.72266 -0.0625,0.0742 -0.26172,0.27734 -0.59375,0.62109 -0.32813,0.33985 -0.79688,0.82032 -1.39844,1.4375"
     id="path226" />
  <path
     fill="none"
     stroke-width="0.96"
     stroke-linecap="butt"
     stroke-linejoin="miter"
     stroke="#000000"
     stroke-opacity="1"
     stroke-miterlimit="4"
     d="m 44.176808,24.406632 c 0,2.527343 -2.144527,4.574219 -4.789058,4.574219 -2.648441,0 -4.792968,-2.046876 -4.792968,-4.574219 0,-2.527344 2.144527,-4.578119 4.792968,-4.578119 2.644531,0 4.789058,2.050775 4.789058,4.578119 z m 0,0"
     id="path227" />
  <path
     fill-rule="nonzero"
     fill="#000000"
     fill-opacity="1"
     d="m 37.977595,26.535536 h 1.22265 v -4.22656 l -1.32812,0.26953 v -0.6875 l 1.32422,-0.26172 h 0.75 v 4.90625 h 1.21875 v 0.62891 h -3.1875"
     id="path228" />
  <path
     fill="none"
     stroke-width="0.96"
     stroke-linecap="butt"
     stroke-linejoin="miter"
     stroke="#000000"
     stroke-opacity="1"
     stroke-miterlimit="4"
     d="m 161.91119,73.789443 c 0,2.531252 -2.14454,4.578128 -4.78907,4.578128 -2.64453,0 -4.78906,-2.046876 -4.78906,-4.578128 0,-2.523435 2.14453,-4.574219 4.78906,-4.574219 2.64453,0 4.78907,2.050784 4.78907,4.574219 z m 0,0"
     id="path229" />
  <path
     fill-rule="nonzero"
     fill="#000000"
     fill-opacity="1"
     d="m 157.84868,73.562886 c 0.36328,0.0781 0.64453,0.23828 0.84375,0.48437 0.19922,0.23828 0.30078,0.53906 0.30078,0.89063 0,0.55078 -0.1875,0.97656 -0.5625,1.27734 -0.375,0.29688 -0.91015,0.44141 -1.59765,0.44141 -0.23828,0 -0.47657,-0.0234 -0.71875,-0.0664 -0.25,-0.0469 -0.5,-0.11328 -0.76563,-0.20703 v -0.72656 c 0.20703,0.125 0.4375,0.21875 0.6836,0.28125 0.24218,0.0625 0.5039,0.0898 0.77343,0.0898 0.46875,0 0.82813,-0.0937 1.07422,-0.27734 0.2461,-0.1875 0.3711,-0.45703 0.3711,-0.8125 0,-0.32422 -0.11719,-0.57813 -0.34375,-0.76172 -0.23047,-0.1875 -0.55079,-0.28125 -0.95704,-0.28125 h -0.64453 v -0.61328 h 0.67578 c 0.36329,0 0.64844,-0.0703 0.84375,-0.21875 0.19532,-0.14844 0.29297,-0.36328 0.29297,-0.63672 0,-0.28516 -0.10156,-0.50391 -0.30468,-0.65625 -0.19922,-0.15235 -0.48829,-0.23047 -0.86329,-0.23047 -0.20312,0 -0.42578,0.0234 -0.66406,0.0703 -0.23437,0.043 -0.49219,0.11328 -0.77344,0.20313 v -0.66797 c 0.28516,-0.0781 0.55079,-0.13672 0.80079,-0.17578 0.25,-0.0391 0.48437,-0.0625 0.70312,-0.0625 0.56641,0 1.01953,0.13281 1.35156,0.39453 0.33203,0.26172 0.5,0.60547 0.5,1.04297 0,0.30859 -0.0898,0.57031 -0.26953,0.78125 -0.17578,0.21093 -0.42578,0.35547 -0.75,0.4375"
     id="path230" />
  <path
     fill="none"
     stroke-width="0.96"
     stroke-linecap="butt"
     stroke-linejoin="miter"
     stroke="#000000"
     stroke-opacity="1"
     stroke-miterlimit="4"
     d="m 69.07916,60.379288 c 0,2.527344 -2.140628,4.578129 -4.78516,4.578129 -2.64844,0 -4.792967,-2.050785 -4.792967,-4.578129 0,-2.523434 2.144527,-4.578128 4.792967,-4.578128 2.644532,0 4.78516,2.054694 4.78516,4.578128 z m 0,0"
     id="path231" />
  <path
     fill-rule="nonzero"
     fill="#000000"
     fill-opacity="1"
     d="m 63.395565,62.508196 h 2.61718 v 0.63281 h -3.51562 v -0.63281 c 0.28125,-0.29297 0.66797,-0.69141 1.16016,-1.1875 0.49218,-0.49609 0.80078,-0.8125 0.92578,-0.95703 0.24218,-0.26953 0.41015,-0.5 0.50781,-0.6836 0.0937,-0.1875 0.14062,-0.37109 0.14062,-0.55078 0,-0.29687 -0.10156,-0.53515 -0.3125,-0.71875 -0.20312,-0.1875 -0.47265,-0.28125 -0.80468,-0.28125 -0.23438,0 -0.48047,0.043 -0.74219,0.125 -0.26563,0.082 -0.54297,0.20703 -0.83984,0.36719 v -0.75781 c 0.30078,-0.11719 0.58203,-0.21094 0.84375,-0.27344 0.26171,-0.0625 0.5039,-0.0937 0.72656,-0.0937 0.57031,0 1.02734,0.14453 1.36719,0.43359 0.33984,0.28516 0.51171,0.67188 0.51171,1.14844 0,0.23047 -0.043,0.44531 -0.1289,0.64844 -0.0859,0.20703 -0.23828,0.44922 -0.46485,0.72656 -0.0625,0.0703 -0.25781,0.27735 -0.59375,0.61719 -0.32812,0.34375 -0.79687,0.82422 -1.39843,1.4375"
     id="path232" />
  <g
     clip-path="url(#clip-13)"
     id="g233"
     transform="translate(-93.721625,-84.335554)">
    <path
       fill="none"
       stroke-width="9.60756"
       stroke-linecap="butt"
       stroke-linejoin="miter"
       stroke="#000000"
       stroke-opacity="1"
       stroke-miterlimit="4"
       d="m 1117.5153,-7305.4037 c 0,26.3172 -20.6273,47.672 -46.0638,47.672 -25.4365,0 -46.0637,-21.3548 -46.0637,-47.672 0,-26.3172 20.6272,-47.6719 46.0637,-47.6719 25.4365,0 46.0638,21.3547 46.0638,47.6719 z m 0,0"
       transform="matrix(0.103966,0,0,0.0960339,0,792)"
       id="path233" />
  </g>
  <path
     fill-rule="nonzero"
     fill="#000000"
     fill-opacity="1"
     d="m 18.196345,3.9691336 -1.89453,2.957031 h 1.89453 z m -0.19922,-0.648438 h 0.94141 v 3.605469 h 0.78906 v 0.625 h -0.78906 v 1.308593 h -0.74219 v -1.308593 h -2.50781 v -0.726563"
     id="path234" />
  <path
     fill-rule="nonzero"
     fill="#d7e3f4"
     fill-opacity="1"
     d="m 131.98931,56.519916 h 21.07031 v -29.25 h -21.07031 z m 0,0"
     id="path235" />
  <path
     fill="none"
     stroke-width="0.64"
     stroke-linecap="round"
     stroke-linejoin="miter"
     stroke="#000000"
     stroke-opacity="1"
     stroke-miterlimit="4"
     d="m 131.98931,56.519916 h 21.07031 v -29.24609 h -21.07031 z m 0,0"
     id="path236" />
  <path
     fill-rule="nonzero"
     fill="#000000"
     fill-opacity="1"
     d="m 138.69634,32.433976 1.35156,-1.94531 h -0.71875 l -0.96875,1.46094 -0.96875,-1.46094 h -0.73047 l 1.34375,1.97656 -1.42187,2.05078 h 0.73047 l 1.01953,-1.54687 1.00781,1.54687 h 0.74219 z m 3.24219,1.28125 h -0.80079 v 0.80078 h 0.80079 z m 0,-3.22656 h -0.80079 v 0.80078 h 0.80079 z m 4.3164,1.53125 h 0.0781 l 0.28906,-0.0117 c 0.74219,0 1.125,0.33594 1.125,0.99219 0,0.68359 -0.41797,1.08984 -1.125,1.08984 -0.73828,0 -1.10156,-0.37109 -1.14844,-1.15625 h -0.67578 c 0.0312,0.4375 0.11328,0.71875 0.23828,0.96875 0.27735,0.51953 0.81641,0.78516 1.5586,0.78516 1.12109,0 1.84375,-0.66797 1.84375,-1.69141 0,-0.69531 -0.26563,-1.07422 -0.92188,-1.30078 0.51175,-0.19924 0.76175,-0.58205 0.76175,-1.13283 0,-0.9375 -0.61719,-1.49219 -1.65625,-1.49219 -1.10156,0 -1.6875,0.59375 -1.70703,1.75391 h 0.67578 c 0.004,-0.32813 0.0391,-0.51172 0.125,-0.67969 0.14844,-0.30078 0.48828,-0.48828 0.91406,-0.48828 0.59766,0 0.95313,0.35937 0.95313,0.93359 0,0.37891 -0.13672,0.60938 -0.4375,0.73438 -0.17969,0.0781 -0.41797,0.10937 -0.89063,0.11328"
     id="path237" />
  <path
     fill-rule="nonzero"
     fill="#000000"
     fill-opacity="1"
     d="m 139.43462,40.090226 -1.11328,3.12891 -1.03125,-3.12891 h -0.67969 l 1.35547,4.03516 -0.24219,0.64062 c -0.10156,0.28516 -0.25,0.39063 -0.51953,0.39063 -0.0898,0 -0.19922,-0.0117 -0.33984,-0.043 v 0.57422 c 0.13281,0.0703 0.26562,0.10156 0.43359,0.10156 0.20703,0 0.42969,-0.0703 0.59766,-0.19531 0.19922,-0.14453 0.3125,-0.3125 0.4375,-0.63672 l 1.78906,-4.86719 z m 2.50391,3.22266 h -0.80079 v 0.80078 h 0.80079 z m 0,-3.22266 h -0.80079 v 0.80078 h 0.80079 z m 3.01953,2.78125 c 0.13281,0.88672 0.71484,1.41797 1.54687,1.41797 0.59766,0 1.14063,-0.28906 1.46094,-0.77344 0.34375,-0.53515 0.5,-1.20312 0.5,-2.1914 0,-0.91016 -0.14453,-1.5 -0.46094,-1.98047 -0.30078,-0.4375 -0.77734,-0.67188 -1.375,-0.67188 -1.03906,0 -1.78515,0.76563 -1.78515,1.82813 0,1.01953 0.6914,1.73047 1.67578,1.73047 0.51562,0 0.89062,-0.1836 1.24609,-0.60547 -0.0117,1.32422 -0.4375,2.0625 -1.21484,2.0625 -0.48047,0 -0.8125,-0.29688 -0.91797,-0.81641 z m 1.66406,-3.61328 c 0.625,0 1.10547,0.52344 1.10547,1.23047 0,0.66797 -0.46875,1.14453 -1.13281,1.14453 -0.65625,0 -1.0586,-0.44922 -1.0586,-1.18359 0,-0.69141 0.46094,-1.19141 1.08594,-1.19141"
     id="path238" />
  <path
     fill-rule="nonzero"
     fill="#000000"
     fill-opacity="1"
     d="m 139.85259,49.687886 h -3 v 0.5625 h 2.24219 l -2.40625,2.89062 v 0.57422 h 3.27734 v -0.5625 h -2.5 l 2.38672,-2.89453 z m 2.08594,3.22656 h -0.80079 v 0.80078 h 0.80079 z m 0,-3.22656 h -0.80079 v 0.80078 h 0.80079 z m 4.72656,-1.41797 c -0.50391,0 -0.96875,0.21875 -1.25,0.59375 -0.35547,0.48047 -0.53125,1.20703 -0.53125,2.21094 0,1.83984 0.61328,2.8164 1.78125,2.8164 1.14844,0 1.78125,-0.97656 1.78125,-2.76562 0,-1.0625 -0.16797,-1.76563 -0.53125,-2.26172 -0.28125,-0.38281 -0.73828,-0.59375 -1.25,-0.59375 z m 0,0.59375 c 0.73047,0 1.08984,0.73828 1.08984,2.19922 0,1.54687 -0.35156,2.26953 -1.10156,2.26953 -0.71875,0 -1.08203,-0.75781 -1.08203,-2.24219 0,-1.49609 0.36328,-2.22656 1.09375,-2.22656"
     id="path239" />
</svg>
