<?xml version="1.0" encoding="UTF-8" standalone="no"?>
<svg
   width="208.30859pt"
   height="86.355461pt"
   viewBox="0 0 208.30859 86.355461"
   version="1.1"
   id="svg4230"
   xmlns="http://www.w3.org/2000/svg"
   xmlns:svg="http://www.w3.org/2000/svg">
  <defs
     id="defs172">
    <clipPath
       id="clip-0">
      <path
         clip-rule="nonzero"
         d="M 328.67969,95 H 358 v 7 h -29.32031 z m 0,0"
         id="path165" />
    </clipPath>
    <clipPath
       id="clip-1">
      <path
         clip-rule="nonzero"
         d="m 432,163 h 55 v 7.76172 h -55 z m 0,0"
         id="path166" />
    </clipPath>
  </defs>
  <path
     fill-rule="nonzero"
     fill="#cef2ce"
     fill-opacity="1"
     d="m 97.785162,35.093752 h 25.429698 c 5.94922,0 10.74218,3.07812 10.74218,6.90234 0,3.82422 -4.79296,6.89844 -10.74218,6.89844 H 97.785162 c -5.94922,0 -10.74219,-3.07422 -10.74219,-6.89844 0,-3.82422 4.79297,-6.90234 10.74219,-6.90234"
     id="path2352" />
  <path
     fill="none"
     stroke-width="0.96"
     stroke-linecap="round"
     stroke-linejoin="miter"
     stroke="#000000"
     stroke-opacity="1"
     stroke-miterlimit="4"
     d="m 97.785162,35.093752 h 25.429698 c 5.94922,0 10.74218,3.07812 10.74218,6.90234 0,3.82422 -4.79296,6.89844 -10.74218,6.89844 H 97.785162 c -5.94922,0 -10.74219,-3.07422 -10.74219,-6.89844 0,-3.82422 4.79297,-6.90234 10.74219,-6.90234 z m 0,0"
     id="path2353" />
  <path
     fill-rule="nonzero"
     fill="#000000"
     fill-opacity="1"
     d="m 98.523442,40.890622 c -0.0195,-0.45703 -0.10156,-0.74609 -0.24219,-1.00781 -0.3164,-0.53906 -0.86328,-0.82422 -1.58203,-0.82422 -0.90234,0 -1.64453,0.36328 -2.24609,1.08594 -0.60547,0.72656 -0.98047,1.78906 -0.98047,2.75 0,0.53906 0.14844,1.01953 0.4375,1.38281 0.35156,0.44141 0.83984,0.64844 1.51953,0.64844 0.8125,0 1.51953,-0.29688 2.01953,-0.84375 0.30078,-0.33203 0.55078,-0.75 0.80469,-1.375 h -0.75 c -0.19531,0.4375 -0.32031,0.67187 -0.45703,0.85547 -0.31641,0.45703 -0.90625,0.74609 -1.51172,0.74609 -0.80078,0 -1.32422,-0.625 -1.32422,-1.55859 0,-0.69141 0.23047,-1.46094 0.61719,-2.05078 0.46875,-0.6836 1.03125,-1.01563 1.73828,-1.01563 0.77344,0 1.16406,0.375 1.21875,1.20703 z m 3.875008,3.46875 c -0.0703,0.0195 -0.10156,0.0195 -0.125,0.0195 -0.19922,0 -0.29297,-0.0703 -0.29297,-0.22656 0,-0.0312 0,-0.0508 0.004,-0.0742 l 0.49609,-2.3125 c 0.043,-0.20703 0.043,-0.20703 0.043,-0.28906 0,-0.51953 -0.53125,-0.86328 -1.33984,-0.86328 -1.06641,0 -1.718758,0.44922 -1.859388,1.30078 h 0.64063 c 0.0703,-0.21484 0.121098,-0.32031 0.234378,-0.42578 0.16797,-0.16797 0.48438,-0.28906 0.81641,-0.28906 0.46484,0 0.8125,0.20703 0.8125,0.49609 0,0.0312 -0.004,0.082 -0.0117,0.14453 l -0.0234,0.13672 c -0.0703,0.32031 -0.21484,0.40234 -0.77734,0.45703 -1.023448,0.0937 -1.347668,0.16797 -1.722668,0.40625 -0.40234,0.25391 -0.63281,0.66016 -0.63281,1.10547 0,0.61328 0.41406,0.98047 1.10547,0.98047 0.269538,0 0.589848,-0.0469 0.871098,-0.14844 0.24219,-0.0898 0.36328,-0.16406 0.67188,-0.4375 v 0.082 c 0,0.31641 0.21484,0.50391 0.58203,0.50391 0.0898,0 0.11328,0 0.30078,-0.043 0.0195,-0.004 0.0625,-0.0195 0.10547,-0.0234 z m -0.92578,-0.87109 c -0.10156,0.48047 -0.77344,0.89062 -1.45703,0.89062 -0.437508,0 -0.679698,-0.1914 -0.679698,-0.50781 0,-0.25781 0.14453,-0.50781 0.375,-0.65234 0.1875,-0.10938 0.417978,-0.17188 0.792978,-0.22266 0.71875,-0.10156 0.78125,-0.11328 1.11719,-0.22656 z m 2.35156,-2.76172 -0.85156,4.02344 h 0.64453 l 0.46875,-2.21875 c 0.1875,-0.84375 0.72266,-1.36719 1.41406,-1.36719 0.38672,0 0.66797,0.26953 0.66797,0.625 0,0.043 -0.0117,0.15625 -0.0469,0.28125 l -0.56641,2.67969 h 0.64453 l 0.61722,-2.88672 c 0.0195,-0.0977 0.0234,-0.19141 0.0234,-0.29297 0,-0.58203 -0.40625,-0.95703 -1.04297,-0.95703 -0.58203,0 -1.08594,0.20703 -1.48828,0.61328 l 0.10156,-0.5 z m 7.87891,-1.57422 h -0.64453 l -0.46094,2.15625 c -0.24219,-0.49609 -0.55469,-0.69531 -1.09766,-0.69531 -1.27734,0 -2.22656,1.21484 -2.22656,2.83203 0,0.89844 0.51172,1.48047 1.3125,1.48047 0.33203,0 0.67969,-0.10547 0.98828,-0.28516 0.23047,-0.14453 0.33203,-0.25781 0.4375,-0.46875 l -0.12109,0.57813 h 0.62109 z m -2.26953,2.04688 c 0.57031,0 0.90625,0.39062 0.90625,1.03906 0,0.45703 -0.11719,0.92578 -0.34766,1.32422 -0.30078,0.51562 -0.67578,0.77734 -1.14453,0.77734 -0.56641,0 -0.89844,-0.39062 -0.89844,-1.05078 0,-0.42578 0.12891,-0.91797 0.33594,-1.3125 0.29297,-0.52734 0.66406,-0.77734 1.14844,-0.77734 z m 3.55859,-0.47266 h -0.64453 l -0.85547,4.02344 h 0.64453 z m 0.33594,-1.57422 h -0.64453 l -0.16797,0.79297 h 0.64453 z m 4.35937,0 h -0.64062 l -0.46094,2.15625 c -0.24609,-0.49609 -0.55859,-0.69531 -1.10156,-0.69531 -1.27735,0 -2.22656,1.21484 -2.22656,2.83203 0,0.89844 0.51171,1.48047 1.3125,1.48047 0.33203,0 0.68359,-0.10547 0.98828,-0.28516 0.23047,-0.14453 0.33203,-0.25781 0.4375,-0.46875 l -0.11719,0.57813 h 0.61719 z m -2.26562,2.04688 c 0.5664,0 0.90625,0.39062 0.90625,1.03906 0,0.45703 -0.1211,0.92578 -0.35156,1.32422 -0.30079,0.51562 -0.67579,0.77734 -1.14063,0.77734 -0.57031,0 -0.90234,-0.39062 -0.90234,-1.05078 0,-0.42578 0.13281,-0.91797 0.33593,-1.3125 0.29688,-0.52734 0.66407,-0.77734 1.15235,-0.77734 z m 5.78515,3.16015 c -0.0664,0.0195 -0.0976,0.0195 -0.12109,0.0195 -0.20312,0 -0.29687,-0.0703 -0.29687,-0.22656 0,-0.0312 0,-0.0508 0.008,-0.0742 l 0.49219,-2.3125 c 0.0469,-0.20703 0.0469,-0.20703 0.0469,-0.28906 0,-0.51953 -0.53516,-0.86328 -1.33984,-0.86328 -1.07032,0 -1.71875,0.44922 -1.86328,1.30078 h 0.64453 c 0.0703,-0.21484 0.11718,-0.32031 0.23047,-0.42578 0.16796,-0.16797 0.48828,-0.28906 0.82031,-0.28906 0.46094,0 0.8125,0.20703 0.8125,0.49609 0,0.0312 -0.008,0.082 -0.0117,0.14453 l -0.0273,0.13672 c -0.0664,0.32031 -0.21094,0.40234 -0.77344,0.45703 -1.02735,0.0937 -1.35156,0.16797 -1.72656,0.40625 -0.39844,0.25391 -0.62891,0.66016 -0.62891,1.10547 0,0.61328 0.41016,0.98047 1.10547,0.98047 0.26953,0 0.58594,-0.0469 0.86719,-0.14844 0.24218,-0.0898 0.36328,-0.16406 0.67578,-0.4375 v 0.082 c 0,0.31641 0.21484,0.50391 0.58203,0.50391 0.0859,0 0.11328,0 0.30078,-0.043 0.0156,-0.004 0.0625,-0.0195 0.10547,-0.0234 z m -0.92187,-0.87109 c -0.10156,0.48047 -0.77734,0.89062 -1.45703,0.89062 -0.4375,0 -0.6836,-0.1914 -0.6836,-0.50781 0,-0.25781 0.14454,-0.50781 0.375,-0.65234 0.1875,-0.10938 0.41797,-0.17188 0.79688,-0.22266 0.71875,-0.10156 0.78125,-0.11328 1.11719,-0.22656 z m 3.77344,-2.76172 h -0.6875 l 0.24609,-1.10547 h -0.65234 l -0.23828,1.10547 h -0.54297 l -0.10547,0.51172 h 0.54297 l -0.60547,2.84375 c -0.0195,0.0742 -0.0274,0.16406 -0.0274,0.23828 0,0.375 0.26563,0.60547 0.6875,0.60547 0.15235,0 0.39063,-0.0195 0.4961,-0.0469 l 0.125,-0.5664 c -0.23828,0.0586 -0.27735,0.0664 -0.3711,0.0664 -0.16796,0 -0.27343,-0.0898 -0.27343,-0.20703 0,-0.0273 0.008,-0.0625 0.0117,-0.11328 l 0.60156,-2.82031 h 0.6875 z m 3.64453,2.22266 0.0234,-0.1211 c 0.0703,-0.37109 0.10546,-0.69531 0.10546,-0.90234 0,-0.73828 -0.63671,-1.3125 -1.46875,-1.3125 -0.66796,0 -1.3125,0.3125 -1.69921,0.82422 -0.35547,0.48828 -0.64454,1.36328 -0.64454,1.98437 0,0.41797 0.1836,0.83594 0.47657,1.125 0.26562,0.26172 0.60937,0.37891 1.05078,0.37891 0.91797,0 1.71094,-0.56641 1.94922,-1.39453 h -0.64453 c -0.28125,0.52734 -0.6875,0.80859 -1.19922,0.80859 -0.60547,0 -0.95703,-0.38281 -0.95703,-1.03125 0,-0.16406 0.0117,-0.23828 0.043,-0.35937 z m -2.82813,-0.54688 c 0.19922,-0.70703 0.76953,-1.20312 1.38672,-1.20312 0.54688,0 0.89453,0.37109 0.89453,0.94531 0,0.082 -0.0117,0.13281 -0.0234,0.25781"
     id="path2354" />
  <path
     fill="none"
     stroke-width="0.96"
     stroke-linecap="round"
     stroke-linejoin="miter"
     stroke="#000000"
     stroke-opacity="1"
     stroke-miterlimit="4"
     d="m 169.42579,49.437502 c 0.44532,26.34375 -90.531248,15.58203 -102.878908,1.65625"
     id="path2355" />
  <path
     fill-rule="evenodd"
     fill="#000000"
     fill-opacity="1"
     d="m 65.078132,49.437502 3.64062,1.21093 -2.875,2.54688"
     id="path2356" />
  <path
     fill="none"
     stroke-width="0.48"
     stroke-linecap="butt"
     stroke-linejoin="miter"
     stroke="#000000"
     stroke-opacity="1"
     stroke-miterlimit="4"
     d="m 65.078132,49.437502 3.64062,1.21093 -2.875,2.54688 z m 0,0"
     id="path2357" />
  <path
     fill-rule="nonzero"
     fill="#cef2ce"
     fill-opacity="1"
     d="m 33.785162,35.093752 h 25.42969 c 5.94922,0 10.74218,3.07812 10.74218,6.90234 0,3.82422 -4.79296,6.89844 -10.74218,6.89844 h -25.42969 c -5.94922,0 -10.74219,-3.07422 -10.74219,-6.89844 0,-3.82422 4.79297,-6.90234 10.74219,-6.90234"
     id="path2358" />
  <path
     fill="none"
     stroke-width="0.96"
     stroke-linecap="round"
     stroke-linejoin="miter"
     stroke="#000000"
     stroke-opacity="1"
     stroke-miterlimit="4"
     d="m 33.785162,35.093752 h 25.42969 c 5.94922,0 10.74219,3.07812 10.74219,6.90234 0,3.82422 -4.79297,6.89844 -10.74219,6.89844 h -25.42969 c -5.94922,0 -10.74219,-3.07422 -10.74219,-6.89844 0,-3.82422 4.79297,-6.90234 10.74219,-6.90234 z m 0,0"
     id="path2359" />
  <path
     fill-rule="nonzero"
     fill="#000000"
     fill-opacity="1"
     d="m 33.558602,42.199222 h 2.66797 l 0.13281,-0.62891 h -2.67188 l 0.39063,-1.78906 h 3.03125 l 0.1289,-0.62891 h -3.7539 l -1.1875,5.59766 h 0.71875 z m 5.6914,-1.58594 c -0.71484,0 -1.34375,0.32031 -1.73828,0.88672 -0.34375,0.49609 -0.60156,1.33984 -0.60156,1.98828 0,0.85547 0.59375,1.4375 1.45703,1.4375 0.73828,0 1.31641,-0.29688 1.75,-0.88672 0.34766,-0.48828 0.60547,-1.32422 0.60547,-1.99219 0,-0.40625 -0.15625,-0.79687 -0.42578,-1.05859 -0.25391,-0.25391 -0.60547,-0.375 -1.04688,-0.375 z m -0.10156,0.58594 c 0.56641,0 0.89844,0.37109 0.89844,0.99609 0,0.44922 -0.12891,0.94922 -0.33594,1.33594 -0.29297,0.52734 -0.70703,0.80859 -1.23828,0.80859 -0.54297,0 -0.88672,-0.39062 -0.88672,-1 0,-0.4375 0.12891,-0.94531 0.34375,-1.33203 0.28125,-0.51953 0.71094,-0.80859 1.21875,-0.80859 z m 3.78125,-2.04688 h -0.64453 l -1.1875,5.59766 h 0.64453 z m 1.71094,0 h -0.64453 l -1.1875,5.59766 h 0.64453 z m 2.30469,1.46094 c -0.71485,0 -1.34766,0.32031 -1.73829,0.88672 -0.34375,0.49609 -0.60156,1.33984 -0.60156,1.98828 0,0.85547 0.59375,1.4375 1.45703,1.4375 0.73828,0 1.31641,-0.29688 1.75,-0.88672 0.35157,-0.48828 0.60547,-1.32422 0.60547,-1.99219 0,-0.40625 -0.15625,-0.79687 -0.42578,-1.05859 -0.25391,-0.25391 -0.60547,-0.375 -1.04687,-0.375 z m -0.10157,0.58594 c 0.57032,0 0.89844,0.37109 0.89844,0.99609 0,0.44922 -0.12891,0.94922 -0.33594,1.33594 -0.29297,0.52734 -0.70703,0.80859 -1.23828,0.80859 -0.54297,0 -0.88672,-0.39062 -0.88672,-1 0,-0.4375 0.13282,-0.94531 0.34375,-1.33203 0.28125,-0.51953 0.71094,-0.80859 1.21875,-0.80859 z m 5.69532,3.55078 2.03125,-4.02344 h -0.70313 l -1.50391,3.13281 -0.082,-3.13281 h -0.8125 l -1.44922,3.13281 -0.14453,-3.13281 h -0.69922 l 0.30469,4.02344 h 0.73828 l 1.5,-3.21094 0.0937,3.21094 z m 5.60546,-1.80078 0.0234,-0.1211 c 0.0703,-0.37109 0.10547,-0.69531 0.10547,-0.90234 0,-0.73828 -0.63672,-1.3125 -1.46875,-1.3125 -0.66797,0 -1.3125,0.3125 -1.69922,0.82422 -0.35547,0.48828 -0.64453,1.36328 -0.64453,1.98437 0,0.41797 0.18359,0.83594 0.47656,1.125 0.26953,0.26172 0.61328,0.37891 1.05078,0.37891 0.91797,0 1.71094,-0.56641 1.94922,-1.39453 h -0.64453 c -0.28125,0.52734 -0.6875,0.80859 -1.19922,0.80859 -0.60547,0 -0.95703,-0.38281 -0.95703,-1.03125 0,-0.16406 0.0117,-0.23828 0.043,-0.35937 z m -2.82421,-0.54688 c 0.19921,-0.70703 0.76562,-1.20312 1.38671,-1.20312 0.54297,0 0.89063,0.37109 0.89063,0.94531 0,0.082 -0.0117,0.13281 -0.0234,0.25781 z m 4.15234,-1.67578 -0.84766,4.02344 h 0.64453 l 0.44141,-2.08594 c 0.20313,-0.9375 0.75,-1.40625 1.59375,-1.375 l 0.14063,-0.65625 c -0.10157,-0.0117 -0.16407,-0.0195 -0.2461,-0.0195 -0.44922,0 -0.79297,0.19922 -1.26953,0.74609 l 0.13281,-0.63281"
     id="path2360" />
  <path
     fill-rule="nonzero"
     fill="#cef2ce"
     fill-opacity="1"
     d="m 161.78517,35.093752 h 25.42969 c 5.94922,0 10.74218,3.07812 10.74218,6.90234 0,3.82422 -4.79296,6.89844 -10.74218,6.89844 h -25.42969 c -5.94922,0 -10.74219,-3.07422 -10.74219,-6.89844 0,-3.82422 4.79297,-6.90234 10.74219,-6.90234"
     id="path2361" />
  <path
     fill="none"
     stroke-width="0.96"
     stroke-linecap="round"
     stroke-linejoin="miter"
     stroke="#000000"
     stroke-opacity="1"
     stroke-miterlimit="4"
     d="m 161.78517,35.093752 h 25.42969 c 5.94922,0 10.74218,3.07812 10.74218,6.90234 0,3.82422 -4.79296,6.89844 -10.74218,6.89844 h -25.42969 c -5.94922,0 -10.74219,-3.07422 -10.74219,-6.89844 0,-3.82422 4.79297,-6.90234 10.74219,-6.90234 z m 0,0"
     id="path2362" />
  <path
     fill-rule="nonzero"
     fill="#000000"
     fill-opacity="1"
     d="m 164.68361,39.152342 h -0.71875 l -1.19141,5.59766 h 3.48828 l 0.12891,-0.62891 h -2.76172 z m 6.07812,3.79688 0.0234,-0.1211 c 0.0703,-0.37109 0.10547,-0.69531 0.10547,-0.90234 0,-0.73828 -0.63672,-1.3125 -1.46875,-1.3125 -0.66797,0 -1.3125,0.3125 -1.69922,0.82422 -0.35547,0.48828 -0.64453,1.36328 -0.64453,1.98437 0,0.41797 0.18359,0.83594 0.47656,1.125 0.26953,0.26172 0.61328,0.37891 1.05078,0.37891 0.91797,0 1.71094,-0.56641 1.94922,-1.39453 h -0.64453 c -0.28125,0.52734 -0.6875,0.80859 -1.19922,0.80859 -0.60547,0 -0.95703,-0.38281 -0.95703,-1.03125 0,-0.16406 0.0117,-0.23828 0.043,-0.35937 z m -2.82812,-0.54688 c 0.20312,-0.70703 0.76953,-1.20312 1.39062,-1.20312 0.54297,0 0.89063,0.37109 0.89063,0.94531 0,0.082 -0.0117,0.13281 -0.0234,0.25781 z m 7.01562,1.95703 c -0.0703,0.0195 -0.10156,0.0195 -0.125,0.0195 -0.20312,0 -0.29297,-0.0703 -0.29297,-0.22656 0,-0.0312 0,-0.0508 0.004,-0.0742 l 0.49609,-2.3125 c 0.043,-0.20703 0.043,-0.20703 0.043,-0.28906 0,-0.51953 -0.53125,-0.86328 -1.33984,-0.86328 -1.06641,0 -1.71875,0.44922 -1.86328,1.30078 h 0.64453 c 0.0703,-0.21484 0.12109,-0.32031 0.23437,-0.42578 0.16797,-0.16797 0.48438,-0.28906 0.81641,-0.28906 0.46484,0 0.8125,0.20703 0.8125,0.49609 0,0.0312 -0.008,0.082 -0.0117,0.14453 l -0.0273,0.13672 c -0.0664,0.32031 -0.21094,0.40234 -0.77344,0.45703 -1.02344,0.0937 -1.35156,0.16797 -1.72656,0.40625 -0.39844,0.25391 -0.62891,0.66016 -0.62891,1.10547 0,0.61328 0.41016,0.98047 1.10547,0.98047 0.26953,0 0.58984,-0.0469 0.86719,-0.14844 0.24609,-0.0898 0.36328,-0.16406 0.67578,-0.4375 v 0.082 c 0,0.31641 0.21484,0.50391 0.58203,0.50391 0.0898,0 0.11328,0 0.30078,-0.043 0.0195,-0.004 0.0625,-0.0195 0.10547,-0.0234 z m -0.92578,-0.87109 c -0.10156,0.48047 -0.77344,0.89062 -1.45703,0.89062 -0.4375,0 -0.67969,-0.1914 -0.67969,-0.50781 0,-0.25781 0.14453,-0.50781 0.375,-0.65234 0.1875,-0.10938 0.41797,-0.17188 0.79297,-0.22266 0.71875,-0.10156 0.78125,-0.11328 1.11719,-0.22656 z m 5.95703,-4.33594 h -0.64453 l -0.46484,2.15625 c -0.24219,-0.49609 -0.55469,-0.69531 -1.09766,-0.69531 -1.27344,0 -2.22656,1.21484 -2.22656,2.83203 0,0.89844 0.51172,1.48047 1.3125,1.48047 0.33203,0 0.68359,-0.10547 0.98828,-0.28516 0.23047,-0.14453 0.33203,-0.25781 0.4375,-0.46875 l -0.11719,0.57813 h 0.61719 z m -2.26953,2.04688 c 0.57031,0 0.90625,0.39062 0.90625,1.03906 0,0.45703 -0.11719,0.92578 -0.35156,1.32422 -0.30078,0.51562 -0.67578,0.77734 -1.14453,0.77734 -0.56641,0 -0.89844,-0.39062 -0.89844,-1.05078 0,-0.42578 0.13281,-0.91797 0.33594,-1.3125 0.29687,-0.52734 0.66406,-0.77734 1.15234,-0.77734 z m 5.875,1.75 0.0234,-0.1211 c 0.0703,-0.37109 0.10547,-0.69531 0.10547,-0.90234 0,-0.73828 -0.63672,-1.3125 -1.46485,-1.3125 -0.67187,0 -1.3164,0.3125 -1.70312,0.82422 -0.35547,0.48828 -0.64063,1.36328 -0.64063,1.98437 0,0.41797 0.17969,0.83594 0.47266,1.125 0.26953,0.26172 0.61328,0.37891 1.05078,0.37891 0.91797,0 1.71094,-0.56641 1.94922,-1.39453 h -0.64453 c -0.28125,0.52734 -0.6875,0.80859 -1.19922,0.80859 -0.60547,0 -0.95703,-0.38281 -0.95703,-1.03125 0,-0.16406 0.0117,-0.23828 0.043,-0.35937 z m -2.82422,-0.54688 c 0.19922,-0.70703 0.76953,-1.20312 1.38672,-1.20312 0.54297,0 0.89453,0.37109 0.89453,0.94531 0,0.082 -0.0117,0.13281 -0.0273,0.25781 z m 4.15625,-1.67578 -0.85156,4.02344 h 0.64453 l 0.44531,-2.08594 c 0.19922,-0.9375 0.75,-1.40625 1.59375,-1.375 l 0.13672,-0.65625 c -0.10156,-0.0117 -0.16406,-0.0195 -0.24609,-0.0195 -0.44922,0 -0.79297,0.19922 -1.26953,0.74609 l 0.13281,-0.63281"
     id="path2363" />
  <path
     fill-rule="nonzero"
     fill="#000000"
     fill-opacity="1"
     d="m 142.77345,6.7265607 v 4.0234373 h 0.64453 V 8.6601537 c 0,-0.574218 0.14453,-0.953124 0.45703,-1.171874 0.19922,-0.152344 0.38672,-0.195313 0.83594,-0.203126 v -0.652343 c -0.11328,-0.01563 -0.16016,-0.01953 -0.25,-0.01953 -0.41016,0 -0.73047,0.242187 -1.09766,0.84375 v -0.730469 z m 5.97266,2.222656 c 0,-0.613281 -0.043,-0.980469 -0.15625,-1.28125 -0.26172,-0.660156 -0.875,-1.054687 -1.63282,-1.054687 -1.11718,0 -1.83984,0.855468 -1.83984,2.179687 0,1.3203133 0.69922,2.1328133 1.82813,2.1328133 0.92187,0 1.55859,-0.519532 1.71875,-1.3945323 h -0.64454 c -0.17968,0.5273443 -0.53515,0.8046883 -1.05468,0.8046883 -0.40625,0 -0.75,-0.1875 -0.96875,-0.5234383 -0.14844,-0.230468 -0.20703,-0.460937 -0.21094,-0.863281 z m -2.94532,-0.519531 c 0.0508,-0.742188 0.50782,-1.230469 1.15235,-1.230469 0.63281,0 1.11328,0.527344 1.11328,1.183594 0,0.01563 0,0.02734 -0.008,0.04687 z m 6.90235,-0.355469 c -0.0312,-0.386719 -0.11719,-0.644531 -0.26953,-0.867187 -0.27344,-0.375 -0.76172,-0.59375 -1.32422,-0.59375 -1.08203,0 -1.78906,0.855468 -1.78906,2.195312 0,1.2968753 0.69531,2.1171883 1.78125,2.1171883 0.96484,0 1.57031,-0.574219 1.64453,-1.5585943 h -0.64453 c -0.10547,0.6445313 -0.4375,0.9687503 -0.98047,0.9687503 -0.70703,0 -1.13282,-0.5781253 -1.13282,-1.5273443 0,-1.007812 0.41407,-1.609375 1.11329,-1.609375 0.53906,0 0.875,0.320313 0.95703,0.875 z m 4.15625,0.875 c 0,-0.613281 -0.043,-0.980469 -0.15625,-1.28125 -0.26172,-0.660156 -0.875,-1.054687 -1.62891,-1.054687 -1.12109,0 -1.84375,0.855468 -1.84375,2.179687 0,1.3203133 0.69922,2.1328133 1.82813,2.1328133 0.92187,0 1.55859,-0.519532 1.72265,-1.3945323 h -0.64453 c -0.18359,0.5273443 -0.53906,0.8046883 -1.05859,0.8046883 -0.40625,0 -0.75,-0.1875 -0.96875,-0.5234383 -0.14844,-0.230468 -0.20313,-0.460937 -0.21094,-0.863281 z m -2.94141,-0.519531 c 0.0469,-0.742188 0.50391,-1.230469 1.14844,-1.230469 0.63281,0 1.11328,0.527344 1.11328,1.183594 0,0.01563 0,0.02734 -0.008,0.04687 z m 4.42969,-1.703125 h -0.63672 v 4.0234373 h 0.63672 z m 0,-1.578125 h -0.64453 v 0.808594 h 0.64453 z m 2.75,5.6015623 1.54297,-4.0234373 h -0.71875 l -1.13672,3.261719 -1.07813,-3.261719 h -0.72265 l 1.41015,4.0234373 z m 5.58594,-1.8007813 c 0,-0.613281 -0.043,-0.980469 -0.15235,-1.28125 -0.26562,-0.660156 -0.875,-1.054687 -1.63281,-1.054687 -1.11719,0 -1.84375,0.855468 -1.84375,2.179687 0,1.3203133 0.69922,2.1328133 1.83203,2.1328133 0.91797,0 1.55469,-0.519532 1.71875,-1.3945323 h -0.64453 c -0.17969,0.5273443 -0.53906,0.8046883 -1.05469,0.8046883 -0.40625,0 -0.75,-0.1875 -0.97265,-0.5234383 -0.14844,-0.230468 -0.20313,-0.460937 -0.21094,-0.863281 z m -2.94141,-0.519531 c 0.0508,-0.742188 0.50781,-1.230469 1.14844,-1.230469 0.63281,0 1.11328,0.527344 1.11328,1.183594 0,0.01563 0,0.02734 -0.004,0.04687 z m 6.64453,-0.585938 c -0.008,-0.785156 -0.52734,-1.230468 -1.45703,-1.230468 -0.9375,0 -1.54297,0.480468 -1.54297,1.222656 0,0.632812 0.31641,0.933594 1.27344,1.164062 l 0.60156,0.144532 c 0.44141,0.105468 0.61719,0.265624 0.61719,0.5625 0,0.3750003 -0.375,0.6289063 -0.9375,0.6289063 -0.34375,0 -0.63672,-0.09766 -0.80078,-0.265625 -0.0977,-0.1210943 -0.14063,-0.2343753 -0.17969,-0.5195313 h -0.67578 c 0.0312,0.9296873 0.55078,1.3750003 1.60547,1.3750003 1.01562,0 1.65625,-0.5 1.65625,-1.2773443 0,-0.597656 -0.33594,-0.921875 -1.13672,-1.117188 l -0.61328,-0.148437 c -0.52344,-0.121094 -0.74219,-0.289063 -0.74219,-0.574219 0,-0.371094 0.33203,-0.609375 0.85156,-0.609375 0.51172,0 0.79297,0.226563 0.80469,0.644531 z m 4.79297,2.9062503 1.54297,-4.0234373 h -0.71875 l -1.13672,3.261719 -1.07422,-3.261719 h -0.72265 l 1.41015,4.0234373 z m 3.74219,-4.1367183 c -1.125,0 -1.8125,0.804687 -1.8125,2.15625 0,1.3476563 0.67578,2.1562503 1.82422,2.1562503 1.125,0 1.82031,-0.808594 1.82031,-2.1250003 0,-1.394532 -0.66797,-2.1875 -1.83203,-2.1875 z m 0.0117,0.585937 c 0.71875,0 1.15234,0.59375 1.15234,1.59375 0,0.945313 -0.44531,1.5429693 -1.15234,1.5429693 -0.71875,0 -1.15625,-0.5937503 -1.15625,-1.5664063 0,-0.96875 0.4375,-1.570313 1.15625,-1.570313 z m 4.125,-0.472656 h -0.66407 v -1.109375 h -0.63671 v 1.109375 h -0.54297 v 0.523437 h 0.54297 v 3.0351563 c 0,0.410157 0.28125,0.640626 0.78125,0.640626 0.14843,0 0.30859,-0.01563 0.51953,-0.05078 v -0.539062 c -0.082,0.01953 -0.17969,0.03125 -0.30469,0.03125 -0.27734,0 -0.35938,-0.08203 -0.35938,-0.359375 V 7.2499997 h 0.66407 z m 4.11718,2.222656 c 0,-0.613281 -0.043,-0.980469 -0.15625,-1.28125 -0.26171,-0.660156 -0.875,-1.054687 -1.63281,-1.054687 -1.11719,0 -1.83984,0.855468 -1.83984,2.179687 0,1.3203133 0.69922,2.1328133 1.82812,2.1328133 0.92188,0 1.5586,-0.519532 1.71875,-1.3945323 h -0.64062 c -0.1836,0.5273443 -0.53906,0.8046883 -1.0586,0.8046883 -0.40625,0 -0.75,-0.1875 -0.96875,-0.5234383 -0.14843,-0.230468 -0.20703,-0.460937 -0.21093,-0.863281 z m -2.94531,-0.519531 c 0.0508,-0.742188 0.50781,-1.230469 1.15235,-1.230469 0.6289,0 1.11328,0.527344 1.11328,1.183594 0,0.01563 0,0.02734 -0.008,0.04687 z m 6.64453,-0.585938 c -0.004,-0.785156 -0.52343,-1.230468 -1.45312,-1.230468 -0.94141,0 -1.54688,0.480468 -1.54688,1.222656 0,0.632812 0.32032,0.933594 1.27735,1.164062 l 0.59765,0.144532 c 0.44532,0.105468 0.6211,0.265624 0.6211,0.5625 0,0.3750003 -0.375,0.6289063 -0.9375,0.6289063 -0.34375,0 -0.63672,-0.09766 -0.80078,-0.265625 -0.10157,-0.1210943 -0.14454,-0.2343753 -0.17969,-0.5195313 h -0.67578 c 0.0312,0.9296873 0.54687,1.3750003 1.60547,1.3750003 1.01171,0 1.65625,-0.5 1.65625,-1.2773443 0,-0.597656 -0.33594,-0.921875 -1.13672,-1.117188 l -0.61328,-0.148437 c -0.52735,-0.121094 -0.74219,-0.289063 -0.74219,-0.574219 0,-0.371094 0.32812,-0.609375 0.84765,-0.609375 0.51172,0 0.79297,0.226563 0.8086,0.644531 z m 4.58985,-1.117187 h -0.66797 v -0.632813 c 0,-0.269531 0.15625,-0.40625 0.4414,-0.40625 0.0586,0 0.082,0 0.22657,0.0078 v -0.527344 c -0.14453,-0.03125 -0.23047,-0.04297 -0.36328,-0.04297 -0.58594,0 -0.94141,0.335938 -0.94141,0.917969 v 0.683594 h -0.53906 v 0.523437 h 0.53906 v 3.5000003 h 0.63672 V 7.2499837 h 0.66797 z m 0.67968,0 v 4.0234373 h 0.64454 V 8.6601537 c 0,-0.574218 0.14453,-0.953124 0.45703,-1.171874 0.19922,-0.152344 0.38672,-0.195313 0.83593,-0.203126 v -0.652343 c -0.11328,-0.01563 -0.16015,-0.01953 -0.25,-0.01953 -0.41015,0 -0.73046,0.242187 -1.10156,0.84375 v -0.730469 z m 4.1211,-0.113281 c -1.125,0 -1.8125,0.804687 -1.8125,2.15625 0,1.3476563 0.67578,2.1562503 1.82422,2.1562503 1.125,0 1.82031,-0.808594 1.82031,-2.1250003 0,-1.394532 -0.67188,-2.1875 -1.83203,-2.1875 z m 0.0117,0.585937 c 0.71875,0 1.14843,0.59375 1.14843,1.59375 0,0.945313 -0.4414,1.5429693 -1.14843,1.5429693 -0.71875,0 -1.15625,-0.5937503 -1.15625,-1.5664063 0,-0.96875 0.4375,-1.570313 1.15625,-1.570313 z m 2.71093,-0.472656 v 4.0234373 h 0.64454 V 8.2265607 c 0,-0.589844 0.42578,-1.058594 0.94531,-1.058594 0.48047,0 0.75,0.292969 0.75,0.808594 v 2.7734373 h 0.64453 V 8.2265607 c 0,-0.589844 0.41797,-1.058594 0.94141,-1.058594 0.46875,0 0.74609,0.300781 0.74609,0.808594 v 2.7734373 h 0.64844 V 7.7304667 c 0,-0.722656 -0.41797,-1.117187 -1.16797,-1.117187 -0.53906,0 -0.86328,0.15625 -1.23828,0.613281 -0.23828,-0.433594 -0.5625,-0.613281 -1.08203,-0.613281 -0.53516,0 -0.89454,0.199218 -1.23438,0.679687 v -0.566406"
     id="path2364" />
  <path
     fill-rule="nonzero"
     fill="#000000"
     fill-opacity="1"
     d="m 144.70314,16.324222 v 4.02734 h 0.64062 v -2.52734 c 0,-0.58594 0.42578,-1.05469 0.94532,-1.05469 0.48046,0 0.75,0.29297 0.75,0.80469 v 2.77734 h 0.64453 v -2.52734 c 0,-0.58594 0.41797,-1.05469 0.9414,-1.05469 0.46875,0 0.7461,0.30078 0.7461,0.80469 v 2.77734 h 0.64843 v -3.01953 c 0,-0.72656 -0.41796,-1.1211 -1.16796,-1.1211 -0.53907,0 -0.86329,0.15625 -1.23829,0.61329 -0.23828,-0.42969 -0.5625,-0.61329 -1.08203,-0.61329 -0.53515,0 -0.89453,0.19922 -1.23437,0.6836 v -0.57031 z m 9.97656,3.65234 c -0.0742,0.0117 -0.0977,0.0117 -0.14062,0.0117 -0.21875,0 -0.34375,-0.11328 -0.34375,-0.3125 v -2.36719 c 0,-0.71484 -0.51954,-1.09766 -1.51563,-1.09766 -0.58203,0 -1.06641,0.17188 -1.33594,0.46875 -0.17968,0.20704 -0.26172,0.4375 -0.27343,0.83204 h 0.64062 c 0.0586,-0.48829 0.34375,-0.71094 0.94531,-0.71094 0.57422,0 0.89844,0.21875 0.89844,0.59765 v 0.17188 c 0,0.26562 -0.16016,0.38672 -0.66797,0.44141 -0.90625,0.12109 -1.04297,0.14843 -1.28906,0.25 -0.46875,0.1875 -0.70313,0.55078 -0.70313,1.07421 0,0.73438 0.50391,1.1875 1.31641,1.1875 0.50781,0 0.91406,-0.17187 1.37109,-0.58593 0.043,0.40625 0.24219,0.58593 0.65625,0.58593 0.12891,0 0.23047,-0.0117 0.44141,-0.0664 z m -1.125,-0.89453 c 0,0.21875 -0.0625,0.34765 -0.25,0.52344 -0.26172,0.23828 -0.58203,0.36328 -0.95703,0.36328 -0.5,0 -0.78516,-0.24219 -0.78516,-0.64844 0,-0.42188 0.28125,-0.64063 0.96094,-0.73828 0.68359,-0.0898 0.82031,-0.1211 1.03125,-0.21875 z m 1.82422,-2.75781 v 4.60546 c 0,0.40235 -0.12891,0.53125 -0.52344,0.53125 -0.0195,0 -0.0195,0 -0.14844,-0.004 v 0.54297 c 0.0742,0.0195 0.11329,0.0234 0.21094,0.0234 0.72656,0 1.10156,-0.29296 1.10156,-0.83593 v -4.86328 z m 0.64062,-1.574224 h -0.64062 v 0.808594 h 0.64062 z m 2.6211,1.460934 c -1.125,0 -1.8125,0.8086 -1.8125,2.15625 0,1.35157 0.67578,2.15625 1.82422,2.15625 1.125,0 1.82031,-0.80468 1.82031,-2.125 0,-1.39062 -0.67188,-2.1875 -1.83203,-2.1875 z m 0.0117,0.58985 c 0.71875,0 1.14843,0.59375 1.14843,1.59375 0,0.9414 -0.4414,1.54297 -1.14843,1.54297 -0.71875,0 -1.15625,-0.59375 -1.15625,-1.57032 0,-0.96875 0.4375,-1.5664 1.15625,-1.5664 z m 2.70703,-0.47656 v 4.02734 h 0.64453 v -2.08984 c 0,-0.57422 0.14062,-0.95313 0.45312,-1.17579 0.20313,-0.14843 0.39063,-0.1914 0.83985,-0.19921 v -0.65625 c -0.11328,-0.0117 -0.16406,-0.0195 -0.25,-0.0195 -0.41406,0 -0.73047,0.2461 -1.10156,0.84766 v -0.73437 z m 3.18359,0 h -0.63672 v 4.02734 h 0.63672 z m 0,-1.574224 h -0.64453 v 0.808594 h 0.64453 z m 2.50781,1.574224 h -0.66015 v -1.105474 h -0.63672 v 1.105474 h -0.54688 v 0.52734 h 0.54688 v 3.03516 c 0,0.40625 0.28125,0.63671 0.78125,0.63671 0.14844,0 0.30469,-0.0117 0.51562,-0.0469 v -0.53906 c -0.0781,0.0195 -0.17968,0.0312 -0.30468,0.0312 -0.27344,0 -0.35547,-0.082 -0.35547,-0.36328 v -2.75391 h 0.66015 z m 3.16407,0 -1.11328,3.13281 -1.03125,-3.13281 h -0.67969 l 1.35547,4.03906 -0.24219,0.63672 c -0.10156,0.28515 -0.25,0.39453 -0.51953,0.39453 -0.0899,0 -0.19922,-0.0117 -0.33985,-0.043 v 0.57422 c 0.13282,0.0664 0.26563,0.0977 0.4336,0.0977 0.20703,0 0.42969,-0.0664 0.59765,-0.1914 0.20313,-0.14453 0.3125,-0.3125 0.44141,-0.63672 l 1.78516,-4.87109 z m 5.07422,-0.11329 c -1.125,0 -1.8125,0.8086 -1.8125,2.15625 0,1.35157 0.67578,2.15625 1.82421,2.15625 1.125,0 1.82032,-0.80468 1.82032,-2.125 0,-1.39062 -0.66797,-2.1875 -1.83203,-2.1875 z m 0.0117,0.58985 c 0.71875,0 1.15235,0.59375 1.15235,1.59375 0,0.9414 -0.44531,1.54297 -1.15235,1.54297 -0.71484,0 -1.15625,-0.59375 -1.15625,-1.57032 0,-0.96875 0.44141,-1.5664 1.15625,-1.5664 z m 4.15625,-0.47656 h -0.66796 v -0.628911 c 0,-0.269531 0.15625,-0.410157 0.44531,-0.410157 0.0547,0 0.082,0 0.22265,0.0078 v -0.523437 c -0.14062,-0.03125 -0.23046,-0.04297 -0.35937,-0.04297 -0.58984,0 -0.94531,0.335937 -0.94531,0.917969 v 0.679692 h -0.53516 v 0.52734 h 0.53516 v 3.5 h 0.63672 v -3.5 h 0.66796 z m 5.64454,1.12109 c -0.008,-0.78906 -0.52735,-1.23438 -1.45704,-1.23438 -0.9375,0 -1.54296,0.48438 -1.54296,1.22657 0,0.63281 0.32031,0.92968 1.27343,1.16406 l 0.60157,0.14062 c 0.44531,0.10938 0.61718,0.26954 0.61718,0.56641 0,0.37109 -0.375,0.62891 -0.9375,0.62891 -0.34375,0 -0.63672,-0.10157 -0.80078,-0.26953 -0.0976,-0.11719 -0.14062,-0.23047 -0.17969,-0.51954 h -0.67578 c 0.0312,0.9336 0.55078,1.375 1.60547,1.375 1.01563,0 1.65625,-0.5 1.65625,-1.27343 0,-0.60157 -0.33594,-0.92578 -1.13672,-1.11719 l -0.61328,-0.15234 c -0.52344,-0.11719 -0.74219,-0.28516 -0.74219,-0.57422 0,-0.3711 0.33204,-0.60547 0.85157,-0.60547 0.51172,0 0.79297,0.22265 0.80468,0.64453 z m 4.41406,1.10547 c 0,-0.61328 -0.043,-0.98047 -0.15625,-1.28125 -0.26172,-0.66406 -0.875,-1.0586 -1.63281,-1.0586 -1.11719,0 -1.84375,0.85938 -1.84375,2.1836 0,1.3164 0.70312,2.1289 1.83203,2.1289 0.91797,0 1.55468,-0.51562 1.71875,-1.39062 h -0.64453 c -0.17969,0.52344 -0.53516,0.80469 -1.05469,0.80469 -0.40625,0 -0.75,-0.1875 -0.96875,-0.52735 -0.14844,-0.23047 -0.20703,-0.46093 -0.21485,-0.85937 z m -2.94531,-0.51953 c 0.0508,-0.7461 0.50781,-1.23047 1.15234,-1.23047 0.62891,0 1.11328,0.52344 1.11328,1.17969 0,0.0195 0,0.0312 -0.008,0.0508 z m 3.8125,-1.70703 v 4.02734 h 0.64453 v -2.08984 c 0,-0.57422 0.14453,-0.95313 0.45703,-1.17579 0.19922,-0.14843 0.38672,-0.1914 0.83594,-0.19921 v -0.65625 c -0.11329,-0.0117 -0.16016,-0.0195 -0.25,-0.0195 -0.41016,0 -0.73047,0.2461 -1.09766,0.84766 v -0.73437 z m 4.22265,4.02734 1.54297,-4.02734 h -0.71875 l -1.13672,3.26171 -1.07422,-3.26171 h -0.72656 l 1.41406,4.02734 z m 5.58985,-1.80078 c 0,-0.61328 -0.043,-0.98047 -0.15625,-1.28125 -0.26172,-0.66406 -0.875,-1.0586 -1.62891,-1.0586 -1.12109,0 -1.84375,0.85938 -1.84375,2.1836 0,1.3164 0.69922,2.1289 1.82812,2.1289 0.92188,0 1.5586,-0.51562 1.72266,-1.39062 h -0.64453 c -0.18359,0.52344 -0.53906,0.80469 -1.05859,0.80469 -0.40625,0 -0.75,-0.1875 -0.96875,-0.52735 -0.14844,-0.23047 -0.20704,-0.46093 -0.21094,-0.85937 z m -2.94141,-0.51953 c 0.0469,-0.7461 0.50391,-1.23047 1.14844,-1.23047 0.63281,0 1.11328,0.52344 1.11328,1.17969 0,0.0195 0,0.0312 -0.008,0.0508 z m 3.8125,-1.70703 v 4.02734 h 0.64062 v -2.08984 c 0,-0.57422 0.14454,-0.95313 0.45704,-1.17579 0.20312,-0.14843 0.38671,-0.1914 0.83984,-0.19921 v -0.65625 c -0.11328,-0.0117 -0.16406,-0.0195 -0.25,-0.0195 -0.41406,0 -0.73438,0.2461 -1.10156,0.84766 v -0.73437 z m 5.39453,1.12109 c -0.008,-0.78906 -0.52734,-1.23438 -1.45703,-1.23438 -0.9375,0 -1.54297,0.48438 -1.54297,1.22657 0,0.63281 0.32031,0.92968 1.27344,1.16406 l 0.60156,0.14062 c 0.44531,0.10938 0.61719,0.26954 0.61719,0.56641 0,0.37109 -0.375,0.62891 -0.9375,0.62891 -0.34375,0 -0.63672,-0.10157 -0.80078,-0.26953 -0.0977,-0.11719 -0.14063,-0.23047 -0.17969,-0.51954 h -0.67578 c 0.0312,0.9336 0.55078,1.375 1.60547,1.375 1.01562,0 1.65625,-0.5 1.65625,-1.27343 0,-0.60157 -0.33594,-0.92578 -1.13672,-1.11719 l -0.61328,-0.15234 c -0.52344,-0.11719 -0.74219,-0.28516 -0.74219,-0.57422 0,-0.3711 0.33203,-0.60547 0.85156,-0.60547 0.51172,0 0.79297,0.22265 0.80469,0.64453"
     id="path2365" />
  <path
     fill="none"
     stroke-width="0.96"
     stroke-linecap="round"
     stroke-linejoin="miter"
     stroke="#000000"
     stroke-opacity="1"
     stroke-miterlimit="4"
     d="m 128.02736,35.675782 c 7.15625,-9.90235 31.01953,-18.28516 40.96093,-4.55469"
     id="path2366" />
  <path
     fill-rule="evenodd"
     fill="#000000"
     fill-opacity="1"
     d="m 170.28908,32.917972 -3.50391,-1.56641 3.10937,-2.25"
     id="path2367" />
  <path
     fill="none"
     stroke-width="0.48"
     stroke-linecap="butt"
     stroke-linejoin="miter"
     stroke="#000000"
     stroke-opacity="1"
     stroke-miterlimit="4"
     d="m 170.28908,32.917972 -3.50391,-1.56641 3.10937,-2.25 z m 0,0"
     id="path2368" />
  <path
     fill-rule="nonzero"
     fill="#000000"
     fill-opacity="1"
     d="m 43.433602,10.972654 h -0.66407 V 9.8671857 h -0.63671 v 1.1054683 h -0.54297 v 0.523438 h 0.54297 v 3.039062 c 0,0.40625 0.28125,0.636719 0.78125,0.636719 0.14843,0 0.30468,-0.01172 0.51953,-0.05078 v -0.535156 c -0.082,0.01563 -0.1836,0.03125 -0.3086,0.03125 -0.27343,0 -0.35547,-0.08203 -0.35547,-0.363282 v -2.757813 h 0.66407 z m 1.32812,0 h -0.63672 v 4.023438 h 0.63672 z m 0,-1.5742183 h -0.64453 v 0.8046873 h 0.64453 z m 1.09766,1.5742183 v 4.023438 h 0.64453 v -2.523438 c 0,-0.589843 0.42187,-1.054687 0.94141,-1.054687 0.48046,0 0.75,0.292969 0.75,0.804687 v 2.773438 h 0.64453 v -2.523438 c 0,-0.589843 0.41797,-1.054687 0.94531,-1.054687 0.46875,0 0.74219,0.296875 0.74219,0.804687 v 2.773438 h 0.64843 v -3.019531 c 0,-0.722657 -0.41796,-1.117188 -1.16796,-1.117188 -0.53516,0 -0.86329,0.15625 -1.23829,0.613281 -0.23437,-0.429687 -0.5625,-0.613281 -1.08203,-0.613281 -0.53515,0 -0.89062,0.199219 -1.23437,0.683594 v -0.570313 z m 9.80469,2.222657 c 0,-0.609375 -0.043,-0.980469 -0.15625,-1.277344 -0.26172,-0.664063 -0.875,-1.058594 -1.62891,-1.058594 -1.12109,0 -1.84375,0.855469 -1.84375,2.183594 0,1.316406 0.69922,2.128906 1.83203,2.128906 0.91797,0 1.55469,-0.519531 1.71875,-1.394531 h -0.64844 c -0.17968,0.527344 -0.53515,0.808594 -1.05468,0.808594 -0.40625,0 -0.75,-0.1875 -0.96875,-0.527344 -0.14844,-0.230469 -0.20704,-0.460938 -0.21094,-0.863281 z m -2.94141,-0.515625 c 0.0469,-0.746094 0.50391,-1.234375 1.14844,-1.234375 0.63281,0 1.11328,0.527343 1.11328,1.183593 0,0.01953 0,0.03125 -0.008,0.05078 z m 6.64453,-0.589844 c -0.008,-0.785156 -0.52734,-1.230469 -1.45703,-1.230469 -0.9375,0 -1.54297,0.480469 -1.54297,1.226563 0,0.628906 0.31641,0.929687 1.27344,1.160156 l 0.59765,0.144531 c 0.44532,0.105469 0.6211,0.269531 0.6211,0.5625 0,0.375 -0.375,0.632813 -0.9375,0.632813 -0.34375,0 -0.63672,-0.101563 -0.80078,-0.269532 -0.10157,-0.121093 -0.14453,-0.230468 -0.1836,-0.519531 h -0.67187 c 0.0312,0.929688 0.55078,1.375 1.60547,1.375 1.01172,0 1.65625,-0.5 1.65625,-1.273437 0,-0.601563 -0.33985,-0.925782 -1.13672,-1.121094 l -0.61328,-0.148438 c -0.52344,-0.117187 -0.74219,-0.289062 -0.74219,-0.574218 0,-0.371094 0.33203,-0.609375 0.84766,-0.609375 0.51171,0 0.79296,0.226562 0.80468,0.644531 z m 4.69141,-1.230469 c -1.125,0 -1.8125,0.808594 -1.8125,2.15625 0,1.351563 0.67578,2.15625 1.82422,2.15625 1.125,0 1.82031,-0.804687 1.82031,-2.125 0,-1.394531 -0.66797,-2.1875 -1.83203,-2.1875 z m 0.0117,0.585938 c 0.71875,0 1.15234,0.597656 1.15234,1.597656 0,0.941406 -0.44531,1.542969 -1.15234,1.542969 -0.71875,0 -1.15625,-0.59375 -1.15625,-1.570313 0,-0.96875 0.4375,-1.570312 1.15625,-1.570312 z m 5.87502,3.550781 v -4.023438 h -0.63672 v 2.28125 c 0,0.824219 -0.42578,1.363282 -1.09375,1.363282 -0.50782,0 -0.83203,-0.3125 -0.83203,-0.796875 v -2.847657 h -0.63672 v 3.105469 c 0,0.664063 0.5,1.09375 1.28125,1.09375 0.59375,0 0.96875,-0.207031 1.34375,-0.738281 v 0.5625 z m 2.52734,-4.023438 h -0.66406 V 9.8671857 h -0.63672 v 1.1054683 h -0.54297 v 0.523438 h 0.54297 v 3.039062 c 0,0.40625 0.28125,0.636719 0.78125,0.636719 0.14844,0 0.30469,-0.01172 0.51953,-0.05078 v -0.535156 c -0.082,0.01563 -0.18359,0.03125 -0.30859,0.03125 -0.27344,0 -0.35547,-0.08203 -0.35547,-0.363282 v -2.757813 h 0.66406 z m 0.84766,3.222657 v 0.800781 h 0.46484 v 0.136719 c 0,0.535156 -0.10156,0.6875 -0.46484,0.703125 v 0.292966 c 0.53906,0 0.80859,-0.35156 0.80859,-1.00781 v -0.925781"
     id="path2369" />
  <path
     fill-rule="nonzero"
     fill="#000000"
     fill-opacity="1"
     d="m 37.796882,21.691402 c -0.008,-0.78906 -0.52735,-1.23047 -1.45703,-1.23047 -0.9375,0 -1.54297,0.48047 -1.54297,1.22266 0,0.63281 0.3164,0.93359 1.27344,1.16406 l 0.60156,0.14453 c 0.4414,0.10547 0.61719,0.26954 0.61719,0.5625 0,0.375 -0.375,0.62891 -0.9375,0.62891 -0.34375,0 -0.63672,-0.0977 -0.80079,-0.26562 -0.0976,-0.1211 -0.14453,-0.23438 -0.17968,-0.51954 h -0.67578 c 0.0312,0.92969 0.55078,1.375 1.60546,1.375 1.01172,0 1.65625,-0.5 1.65625,-1.27734 0,-0.59766 -0.33593,-0.92578 -1.13671,-1.11719 l -0.61329,-0.15234 c -0.52343,-0.11719 -0.74218,-0.28516 -0.74218,-0.57422 0,-0.36719 0.33203,-0.60547 0.84765,-0.60547 0.51172,0 0.79297,0.22656 0.8086,0.64453 z m 2.42578,-1.12109 h -0.66406 v -1.10547 h -0.63672 v 1.10547 h -0.54297 v 0.52734 h 0.54297 v 3.03516 c 0,0.41016 0.28125,0.64062 0.78125,0.64062 0.14844,0 0.30469,-0.0117 0.51953,-0.0508 v -0.53906 c -0.082,0.0195 -0.18359,0.0312 -0.30859,0.0312 -0.27344,0 -0.35547,-0.082 -0.35547,-0.36328 v -2.75391 h 0.66406 z m 4.29297,3.65234 c -0.0781,0.0117 -0.10156,0.0117 -0.14453,0.0117 -0.21875,0 -0.34375,-0.11328 -0.34375,-0.3125 v -2.36719 c 0,-0.71484 -0.51953,-1.09375 -1.51172,-1.09375 -0.58203,0 -1.07031,0.16797 -1.33985,0.46875 -0.17968,0.20313 -0.26171,0.4375 -0.27343,0.83204 h 0.64453 c 0.0547,-0.48829 0.34375,-0.71485 0.9414,-0.71485 0.57813,0 0.90235,0.21875 0.90235,0.60156 v 0.16797 c 0,0.26953 -0.16406,0.38672 -0.66797,0.44532 -0.90625,0.11718 -1.04688,0.14843 -1.28906,0.25 -0.46875,0.18359 -0.70703,0.54687 -0.70703,1.07421 0,0.73047 0.50781,1.1875 1.32031,1.1875 0.5039,0 0.91015,-0.17578 1.36719,-0.58984 0.043,0.40625 0.24609,0.58984 0.65625,0.58984 0.13281,0 0.23046,-0.0117 0.44531,-0.0703 z m -1.125,-0.89453 c 0,0.21875 -0.0625,0.35156 -0.25,0.52344 -0.26172,0.23828 -0.58203,0.36328 -0.95703,0.36328 -0.5,0 -0.78907,-0.24219 -0.78907,-0.64844 0,-0.41797 0.28125,-0.63672 0.96485,-0.73828 0.67969,-0.0859 0.8164,-0.11719 1.03125,-0.21875 z m 1.8164,-2.75781 v 4.02734 h 0.64454 v -2.08593 c 0,-0.57813 0.14453,-0.95704 0.45703,-1.17579 0.19922,-0.15234 0.38672,-0.19531 0.83593,-0.20312 v -0.65625 c -0.10937,-0.0117 -0.16015,-0.0156 -0.25,-0.0156 -0.41015,0 -0.73046,0.24219 -1.09765,0.84375 v -0.73437 z m 3.98438,0 h -0.66016 v -1.10547 h -0.64062 v 1.10547 h -0.54297 v 0.52734 h 0.54297 v 3.03516 c 0,0.41016 0.28125,0.64062 0.78125,0.64062 0.15234,0 0.30859,-0.0117 0.51953,-0.0508 v -0.53906 c -0.082,0.0195 -0.17969,0.0312 -0.30469,0.0312 -0.27734,0 -0.35547,-0.082 -0.35547,-0.36328 v -2.75391 h 0.66016 z m 3.54297,1.12109 c -0.008,-0.78906 -0.52735,-1.23047 -1.45703,-1.23047 -0.9375,0 -1.54297,0.48047 -1.54297,1.22266 0,0.63281 0.3164,0.93359 1.27344,1.16406 l 0.60156,0.14453 c 0.4414,0.10547 0.61719,0.26954 0.61719,0.5625 0,0.375 -0.375,0.62891 -0.9375,0.62891 -0.34375,0 -0.63672,-0.0977 -0.80079,-0.26562 -0.0976,-0.1211 -0.14062,-0.23438 -0.17968,-0.51954 h -0.67578 c 0.0312,0.92969 0.55078,1.375 1.60546,1.375 1.01563,0 1.65625,-0.5 1.65625,-1.27734 0,-0.59766 -0.33593,-0.92578 -1.13671,-1.11719 l -0.61329,-0.15234 c -0.52343,-0.11719 -0.74218,-0.28516 -0.74218,-0.57422 0,-0.36719 0.33203,-0.60547 0.85156,-0.60547 0.51172,0 0.79297,0.22656 0.80469,0.64453 z m 6.54687,1.10547 c 0,-0.61328 -0.0469,-0.98047 -0.16015,-1.28125 -0.26172,-0.66406 -0.8711,-1.05469 -1.62891,-1.05469 -1.12109,0 -1.84375,0.85547 -1.84375,2.17969 0,1.32031 0.69922,2.13281 1.83203,2.13281 0.91797,0 1.55469,-0.51953 1.71875,-1.39453 h -0.64453 c -0.18359,0.52344 -0.53906,0.80469 -1.05469,0.80469 -0.41015,0 -0.75,-0.1875 -0.96875,-0.52344 -0.15234,-0.23047 -0.20703,-0.46484 -0.21484,-0.86328 z m -2.94531,-0.51953 c 0.0508,-0.74219 0.50391,-1.23047 1.14844,-1.23047 0.63281,0 1.11328,0.52344 1.11328,1.17969 0,0.0195 0,0.0352 -0.008,0.0508 z m 4.44922,-3.28125 h -0.64453 v 5.60156 h 0.64453 z m 4.48047,3.80078 c 0,-0.61328 -0.043,-0.98047 -0.15625,-1.28125 -0.26172,-0.66406 -0.875,-1.05469 -1.63281,-1.05469 -1.11719,0 -1.84375,0.85547 -1.84375,2.17969 0,1.32031 0.70312,2.13281 1.83203,2.13281 0.91797,0 1.55468,-0.51953 1.71875,-1.39453 h -0.64453 c -0.17969,0.52344 -0.53516,0.80469 -1.05469,0.80469 -0.40625,0 -0.75,-0.1875 -0.96875,-0.52344 -0.14844,-0.23047 -0.20703,-0.46484 -0.21485,-0.86328 z m -2.94531,-0.51953 c 0.0508,-0.74219 0.50781,-1.23047 1.15234,-1.23047 0.62891,0 1.11328,0.52344 1.11328,1.17969 0,0.0195 0,0.0352 -0.008,0.0508 z m 6.90234,-0.35547 c -0.0352,-0.38672 -0.12109,-0.64453 -0.26953,-0.86719 -0.27735,-0.375 -0.76563,-0.59375 -1.32422,-0.59375 -1.08203,0 -1.78906,0.85547 -1.78906,2.19141 0,1.30078 0.69531,2.12109 1.78125,2.12109 0.96484,0 1.5664,-0.57812 1.64453,-1.55859 h -0.64453 c -0.10547,0.64453 -0.4375,0.96875 -0.98047,0.96875 -0.70703,0 -1.13281,-0.58203 -1.13281,-1.53125 0,-1.00391 0.41406,-1.60547 1.11328,-1.60547 0.53906,0 0.875,0.32031 0.95703,0.875 z m 2.16797,-1.35156 h -0.66016 v -1.10547 h -0.64062 v 1.10547 h -0.54297 v 0.52734 h 0.54297 v 3.03516 c 0,0.41016 0.28125,0.64062 0.78125,0.64062 0.15234,0 0.30859,-0.0117 0.51953,-0.0508 v -0.53906 c -0.082,0.0195 -0.17969,0.0312 -0.30469,0.0312 -0.27734,0 -0.35547,-0.082 -0.35547,-0.36328 v -2.75391 h 0.66016 z m 1.33203,0 h -0.63672 v 4.02734 h 0.63672 z m 0,-1.57422 h -0.64453 v 0.80859 h 0.64453 z m 2.64844,1.46484 c -1.125,0 -1.8125,0.80469 -1.8125,2.15625 0,1.34766 0.67187,2.15625 1.82422,2.15625 1.125,0 1.82031,-0.80859 1.82031,-2.125 0,-1.39453 -0.67188,-2.1875 -1.83203,-2.1875 z m 0.0117,0.58594 c 0.71875,0 1.14843,0.59375 1.14843,1.59375 0,0.94531 -0.4414,1.54297 -1.14843,1.54297 -0.71875,0 -1.15625,-0.59375 -1.15625,-1.56641 0,-0.96875 0.4375,-1.57031 1.15625,-1.57031 z m 2.71093,-0.47656 v 4.02734 h 0.64453 v -2.21875 c 0,-0.82422 0.4336,-1.36328 1.09375,-1.36328 0.50782,0 0.83204,0.30469 0.83204,0.79297 v 2.78906 h 0.63671 v -3.04297 c 0,-0.67187 -0.5,-1.09375 -1.27343,-1.09375 -0.60157,0 -0.98828,0.22266 -1.33985,0.78516 v -0.67578"
     id="path2370" />
  <path
     fill="none"
     stroke-width="0.96"
     stroke-linecap="round"
     stroke-linejoin="miter"
     stroke="#000000"
     stroke-opacity="1"
     stroke-miterlimit="4"
     d="m 64.445322,35.281252 c 2.80078,-10.51563 18.30468,-12.53907 25.77734,-2.60547"
     id="path2371" />
  <path
     fill-rule="evenodd"
     fill="#000000"
     fill-opacity="1"
     d="m 91.554692,34.445312 -3.53125,-1.5 3.06641,-2.30859"
     id="path2372" />
  <path
     fill="none"
     stroke-width="0.48"
     stroke-linecap="butt"
     stroke-linejoin="miter"
     stroke="#000000"
     stroke-opacity="1"
     stroke-miterlimit="4"
     d="m 91.554692,34.445312 -3.53125,-1.5 3.06641,-2.30859 z m 0,0"
     id="path2373" />
  <path
     fill="none"
     stroke-width="0.96"
     stroke-linecap="round"
     stroke-linejoin="miter"
     stroke="#000000"
     stroke-opacity="1"
     stroke-miterlimit="4"
     d="m 10.144542,19.710932 c -0.2890696,12.32032 0.54296,20.69922 9.82421,21.46875"
     id="path2374" />
  <path
     fill-rule="evenodd"
     fill="#000000"
     fill-opacity="1"
     d="m 22.175782,41.363282 -3.46875,1.64062 0.32032,-3.82812"
     id="path2375" />
  <path
     fill="none"
     stroke-width="0.48"
     stroke-linecap="butt"
     stroke-linejoin="miter"
     stroke="#000000"
     stroke-opacity="1"
     stroke-miterlimit="4"
     d="m 22.175792,41.363282 -3.46875,1.64062 0.32031,-3.82812 z m 0,0"
     id="path2376" />
  <g
     clip-path="url(#clip-0)"
     id="g2377"
     transform="translate(-328.68358,-84.003908)">
    <path
       fill-rule="nonzero"
       fill="#000000"
       fill-opacity="1"
       d="m 331.78125,97.359375 c -0.008,-0.789063 -0.52344,-1.230469 -1.45703,-1.230469 -0.9375,0 -1.54297,0.480469 -1.54297,1.222656 0,0.632813 0.32031,0.933594 1.27344,1.164063 l 0.60156,0.144531 c 0.44531,0.105469 0.61719,0.269532 0.61719,0.5625 0,0.375 -0.375,0.628906 -0.9336,0.628906 -0.34765,0 -0.64062,-0.09766 -0.80078,-0.265624 -0.10156,-0.121094 -0.14453,-0.234376 -0.18359,-0.519532 h -0.67188 c 0.0312,0.929688 0.54688,1.375004 1.60547,1.375004 1.01172,0 1.65625,-0.500004 1.65625,-1.277348 0,-0.597656 -0.33984,-0.925781 -1.14062,-1.117187 l -0.60938,-0.152344 c -0.52734,-0.117187 -0.74609,-0.285156 -0.74609,-0.574219 0,-0.367187 0.33203,-0.605468 0.85156,-0.605468 0.51172,0 0.79297,0.226562 0.80469,0.644531 z m 2.42578,-1.121094 h -0.66016 v -1.105469 h -0.64062 v 1.105469 h -0.54297 v 0.527344 h 0.54297 v 3.035156 c 0,0.410159 0.28125,0.640629 0.78125,0.640629 0.15234,0 0.30859,-0.0117 0.51953,-0.0508 v -0.539068 c -0.0781,0.01953 -0.17969,0.03125 -0.30469,0.03125 -0.27343,0 -0.35547,-0.08203 -0.35547,-0.363281 v -2.753906 h 0.66016 z m 4.29688,3.652344 c -0.0781,0.01172 -0.10157,0.01172 -0.14454,0.01172 -0.21875,0 -0.34375,-0.113282 -0.34375,-0.3125 v -2.367188 c 0,-0.714844 -0.51953,-1.09375 -1.51171,-1.09375 -0.58204,0 -1.07032,0.167969 -1.33985,0.46875 -0.17969,0.203125 -0.26172,0.4375 -0.27344,0.832032 h 0.64063 c 0.0586,-0.488282 0.34766,-0.714844 0.94531,-0.714844 0.57422,0 0.90235,0.21875 0.90235,0.601562 v 0.167969 c 0,0.269531 -0.16407,0.386719 -0.67188,0.445313 -0.90625,0.117187 -1.04297,0.148437 -1.28516,0.25 -0.46875,0.183593 -0.70703,0.546874 -0.70703,1.074218 0,0.730469 0.50782,1.187503 1.31641,1.187503 0.50781,0 0.91406,-0.17578 1.37109,-0.589847 0.043,0.406247 0.24219,0.589847 0.65625,0.589847 0.12891,0 0.23047,-0.0117 0.44532,-0.0703 z m -1.125,-0.894531 c 0,0.21875 -0.0664,0.351562 -0.25,0.523437 -0.26563,0.238281 -0.58204,0.363281 -0.95704,0.363281 -0.5,0 -0.78906,-0.242187 -0.78906,-0.648437 0,-0.417969 0.28125,-0.636719 0.96485,-0.738281 0.67968,-0.08594 0.8164,-0.117188 1.03125,-0.21875 z m 1.8164,-2.757813 v 4.027349 h 0.64453 v -2.085942 c 0,-0.578126 0.14453,-0.957032 0.45703,-1.175782 0.19922,-0.152344 0.38672,-0.195312 0.83594,-0.203125 v -0.65625 c -0.11328,-0.01172 -0.16015,-0.01563 -0.25,-0.01563 -0.41015,0 -0.73047,0.242188 -1.10156,0.84375 v -0.734375 z m 3.98438,0 h -0.66407 v -1.105469 h -0.63671 v 1.105469 h -0.54297 v 0.527344 h 0.54297 v 3.035156 c 0,0.410159 0.28125,0.640629 0.78125,0.640629 0.14843,0 0.30468,-0.0117 0.51953,-0.0508 v -0.539068 c -0.082,0.01953 -0.1836,0.03125 -0.3086,0.03125 -0.27343,0 -0.35547,-0.08203 -0.35547,-0.363281 v -2.753906 h 0.66407 z m 3.54297,1.121094 c -0.008,-0.789063 -0.52735,-1.230469 -1.45704,-1.230469 -0.9375,0 -1.54296,0.480469 -1.54296,1.222656 0,0.632813 0.3164,0.933594 1.27343,1.164063 l 0.60157,0.144531 c 0.4414,0.105469 0.61718,0.269532 0.61718,0.5625 0,0.375 -0.375,0.628906 -0.9375,0.628906 -0.34375,0 -0.63672,-0.09766 -0.80078,-0.265624 -0.0976,-0.121094 -0.14453,-0.234376 -0.17969,-0.519532 h -0.67578 c 0.0312,0.929688 0.55078,1.375004 1.60547,1.375004 1.01172,0 1.65625,-0.500004 1.65625,-1.277348 0,-0.597656 -0.33594,-0.925781 -1.13672,-1.117187 l -0.61328,-0.152344 c -0.52344,-0.117187 -0.74219,-0.285156 -0.74219,-0.574219 0,-0.367187 0.33204,-0.605468 0.84766,-0.605468 0.51563,0 0.79297,0.226562 0.80859,0.644531 z m 6.30468,2.906255 v -4.027349 h -0.63672 v 2.28125 c 0,0.828125 -0.42578,1.363281 -1.09375,1.363281 -0.50781,0 -0.83203,-0.3125 -0.83203,-0.792968 v -2.851563 h -0.63672 v 3.109375 c 0,0.660154 0.5,1.093754 1.28125,1.093754 0.59375,0 0.96875,-0.20703 1.34375,-0.738285 v 0.562505 z m 0.98828,1.67578 h 0.64844 v -2.101566 c 0.33985,0.417966 0.71485,0.601566 1.23438,0.601566 1.03515,0 1.72265,-0.839848 1.72265,-2.121098 0,-1.347656 -0.66015,-2.191406 -1.73047,-2.191406 -0.54296,0 -0.98046,0.242188 -1.28125,0.71875 v -0.609375 h -0.59375 z m 1.76954,-5.218754 c 0.70703,0 1.16796,0.625 1.16796,1.585938 0,0.914062 -0.46875,1.53125 -1.16796,1.53125 -0.67579,0 -1.1211,-0.613282 -1.1211,-1.554688 0,-0.945312 0.44531,-1.5625 1.1211,-1.5625"
       id="path2377" />
  </g>
  <path
     fill-rule="nonzero"
     fill="#000000"
     fill-opacity="1"
     d="m 106.54689,69.480462 h -0.63672 v 2.08204 c -0.26953,-0.40625 -0.69531,-0.61719 -1.23828,-0.61719 -1.04297,0 -1.72266,0.83594 -1.72266,2.11719 0,1.35546 0.66797,2.19531 1.75,2.19531 0.55469,0 0.9375,-0.20703 1.28125,-0.70703 v 0.53125 h 0.56641 z m -1.76172,2.05469 c 0.6875,0 1.125,0.6211 1.125,1.57813 0,0.92968 -0.44531,1.54297 -1.11719,1.54297 -0.70703,0 -1.17578,-0.6211 -1.17578,-1.55469 0,-0.94141 0.46875,-1.56641 1.16797,-1.56641 z m 3.38672,-0.47656 h -0.63672 v 4.02344 h 0.63672 z m 0,-1.57813 h -0.64063 v 0.80469 h 0.64063 z m 3.92187,2.69532 c -0.004,-0.78907 -0.52343,-1.23047 -1.45703,-1.23047 -0.93359,0 -1.54297,0.48047 -1.54297,1.22265 0,0.63282 0.32032,0.9336 1.27735,1.16407 l 0.59765,0.14453 c 0.44532,0.10547 0.6211,0.26562 0.6211,0.55859 0,0.375 -0.375,0.63281 -0.9375,0.63281 -0.34375,0 -0.64063,-0.0977 -0.80078,-0.26953 -0.10157,-0.11718 -0.14454,-0.23047 -0.17969,-0.51562 h -0.67578 c 0.0312,0.92969 0.55078,1.375 1.60547,1.375 1.01171,0 1.65625,-0.5 1.65625,-1.27735 0,-0.59765 -0.33594,-0.92187 -1.13672,-1.11718 l -0.61328,-0.15235 c -0.52735,-0.11718 -0.7461,-0.28515 -0.7461,-0.57422 0,-0.36718 0.33203,-0.60546 0.85156,-0.60546 0.51172,0 0.79297,0.22656 0.8086,0.64453 z m 4.09766,0.23047 c -0.0312,-0.38672 -0.11719,-0.64454 -0.26953,-0.8711 -0.27344,-0.375 -0.76172,-0.58984 -1.32422,-0.58984 -1.08203,0 -1.78906,0.85547 -1.78906,2.1914 0,1.30079 0.69531,2.1211 1.78125,2.1211 0.96484,0 1.57031,-0.57813 1.64453,-1.5586 h -0.64453 c -0.10547,0.64454 -0.4336,0.96875 -0.98047,0.96875 -0.70313,0 -1.12891,-0.58203 -1.12891,-1.53125 0,-1.0039 0.41016,-1.60546 1.10938,-1.60546 0.53906,0 0.875,0.32031 0.95703,0.875 z m 2.30859,-1.46094 c -1.125,0 -1.8125,0.80469 -1.8125,2.15625 0,1.34765 0.67578,2.15625 1.82422,2.15625 1.125,0 1.82031,-0.8086 1.82031,-2.125 0,-1.39453 -0.66796,-2.1875 -1.83203,-2.1875 z m 0.0117,0.58594 c 0.71875,0 1.15235,0.59375 1.15235,1.59375 0,0.94531 -0.44532,1.54296 -1.15235,1.54296 -0.71875,0 -1.15625,-0.59375 -1.15625,-1.5664 0,-0.96875 0.4375,-1.57031 1.15625,-1.57031 z m 4.36328,3.55078 1.54297,-4.02344 h -0.71875 l -1.13672,3.26172 -1.07422,-3.26172 h -0.72656 l 1.41406,4.02344 z m 5.58985,-1.80078 c 0,-0.61329 -0.043,-0.98047 -0.15625,-1.28125 -0.26172,-0.66407 -0.875,-1.05469 -1.63282,-1.05469 -1.11718,0 -1.83984,0.85547 -1.83984,2.17969 0,1.32031 0.69922,2.13281 1.82813,2.13281 0.92187,0 1.55859,-0.51953 1.71875,-1.39453 h -0.64454 c -0.17968,0.52343 -0.53515,0.80468 -1.05468,0.80468 -0.40625,0 -0.75,-0.1875 -0.96875,-0.52343 -0.14844,-0.23438 -0.20703,-0.46485 -0.21094,-0.86328 z m -2.94532,-0.51954 c 0.0508,-0.74218 0.50782,-1.23046 1.15235,-1.23046 0.6289,0 1.11328,0.52734 1.11328,1.17968 0,0.0195 0,0.0312 -0.008,0.0508 z m 3.81641,-1.70312 v 4.02344 h 0.64063 v -2.08985 c 0,-0.57422 0.14453,-0.95703 0.45703,-1.17187 0.19922,-0.15235 0.38672,-0.19531 0.83593,-0.20313 v -0.65625 c -0.10937,-0.0117 -0.16015,-0.0156 -0.25,-0.0156 -0.41015,0 -0.73046,0.24219 -1.09765,0.83984 v -0.72656 z m 5.39453,1.11719 c -0.008,-0.78907 -0.52344,-1.23047 -1.45703,-1.23047 -0.9375,0 -1.54297,0.48047 -1.54297,1.22265 0,0.63282 0.32031,0.9336 1.27344,1.16407 l 0.60156,0.14453 c 0.44531,0.10547 0.61719,0.26562 0.61719,0.55859 0,0.375 -0.375,0.63281 -0.93359,0.63281 -0.34375,0 -0.64063,-0.0977 -0.80079,-0.26953 -0.10156,-0.11718 -0.14453,-0.23047 -0.18359,-0.51562 h -0.67578 c 0.0352,0.92969 0.55078,1.375 1.60937,1.375 1.01172,0 1.65625,-0.5 1.65625,-1.27735 0,-0.59765 -0.33984,-0.92187 -1.14062,-1.11718 l -0.60938,-0.15235 c -0.52734,-0.11718 -0.74609,-0.28515 -0.74609,-0.57422 0,-0.36718 0.33203,-0.60546 0.85156,-0.60546 0.51172,0 0.79297,0.22656 0.80469,0.64453 z m 5.96875,0 c -0.004,-0.78907 -0.52344,-1.23047 -1.45703,-1.23047 -0.9375,0 -1.54297,0.48047 -1.54297,1.22265 0,0.63282 0.32031,0.9336 1.27344,1.16407 l 0.60156,0.14453 c 0.44531,0.10547 0.6211,0.26562 0.6211,0.55859 0,0.375 -0.375,0.63281 -0.94141,0.63281 -0.33984,0 -0.63672,-0.0977 -0.79688,-0.26953 -0.10156,-0.11718 -0.14453,-0.23047 -0.18359,-0.51562 h -0.67578 c 0.0312,0.92969 0.55078,1.375 1.60937,1.375 1.01172,0 1.65625,-0.5 1.65625,-1.27735 0,-0.59765 -0.33984,-0.92187 -1.14062,-1.11718 l -0.60938,-0.15235 c -0.52734,-0.11718 -0.74609,-0.28515 -0.74609,-0.57422 0,-0.36718 0.33203,-0.60546 0.85156,-0.60546 0.51172,0 0.79297,0.22656 0.80469,0.64453 z m 4.41797,1.10547 c 0,-0.61329 -0.0469,-0.98047 -0.16016,-1.28125 -0.26171,-0.66407 -0.87109,-1.05469 -1.6289,-1.05469 -1.1211,0 -1.84375,0.85547 -1.84375,2.17969 0,1.32031 0.69922,2.13281 1.83203,2.13281 0.91797,0 1.55469,-0.51953 1.71875,-1.39453 h -0.64453 c -0.1836,0.52343 -0.53906,0.80468 -1.05469,0.80468 -0.41016,0 -0.75,-0.1875 -0.96875,-0.52343 -0.15234,-0.23438 -0.20703,-0.46485 -0.21484,-0.86328 z m -2.94531,-0.51954 c 0.0508,-0.74218 0.5039,-1.23046 1.14844,-1.23046 0.63281,0 1.11328,0.52734 1.11328,1.17968 0,0.0195 0,0.0312 -0.008,0.0508 z m 3.8125,-1.70312 v 4.02344 h 0.64453 v -2.08985 c 0,-0.57422 0.14062,-0.95703 0.45703,-1.17187 0.19922,-0.15235 0.38672,-0.19531 0.83594,-0.20313 v -0.65625 c -0.11328,-0.0117 -0.16406,-0.0156 -0.25,-0.0156 -0.41406,0 -0.73438,0.24219 -1.10156,0.83984 v -0.72656 z m 4.22265,4.02344 1.54297,-4.02344 h -0.71875 l -1.13672,3.26172 -1.07421,-3.26172 h -0.72657 l 1.41016,4.02344 z m 5.58985,-1.80078 c 0,-0.61329 -0.0469,-0.98047 -0.16016,-1.28125 -0.26172,-0.66407 -0.875,-1.05469 -1.6289,-1.05469 -1.1211,0 -1.84375,0.85547 -1.84375,2.17969 0,1.32031 0.69921,2.13281 1.83203,2.13281 0.91797,0 1.55468,-0.51953 1.71875,-1.39453 h -0.64453 c -0.1836,0.52343 -0.53907,0.80468 -1.0586,0.80468 -0.40625,0 -0.75,-0.1875 -0.96484,-0.52343 -0.15235,-0.23438 -0.20703,-0.46485 -0.21485,-0.86328 z m -2.94531,-0.51954 c 0.0508,-0.74218 0.5039,-1.23046 1.14843,-1.23046 0.63282,0 1.11328,0.52734 1.11328,1.17968 0,0.0195 0,0.0312 -0.008,0.0508 z m 3.8125,-1.70312 v 4.02344 h 0.64453 v -2.08985 c 0,-0.57422 0.14453,-0.95703 0.45312,-1.17187 0.20313,-0.15235 0.39063,-0.19531 0.83985,-0.20313 v -0.65625 c -0.11329,-0.0117 -0.16407,-0.0156 -0.25,-0.0156 -0.41407,0 -0.73047,0.24219 -1.10157,0.83984 v -0.72656"
     id="path2378" />
  <g
     clip-path="url(#clip-1)"
     id="g2379"
     transform="translate(-328.68358,-84.003908)">
    <path
       fill-rule="nonzero"
       fill="#000000"
       fill-opacity="1"
       d="m 436.32422,168.68359 1.18359,-4.02343 h -0.71875 l -0.80078,3.1289 -0.79297,-3.1289 h -0.78125 l -0.76953,3.1289 -0.82422,-3.1289 h -0.70703 l 1.16797,4.02343 h 0.72656 l 0.77344,-3.15625 0.8125,3.15625 z m 2.44531,-4.02343 h -0.63672 v 4.02343 h 0.63672 z m 0,-1.57422 H 438.125 v 0.80468 h 0.64453 z m 2.50781,1.57422 h -0.66015 v -1.10547 h -0.63672 v 1.10547 h -0.54688 v 0.52343 h 0.54688 v 3.03907 c 0,0.40625 0.27734,0.63671 0.77734,0.63671 0.15235,0 0.3086,-0.0117 0.51953,-0.0469 v -0.53906 c -0.082,0.0156 -0.17968,0.0312 -0.30468,0.0312 -0.27735,0 -0.35547,-0.082 -0.35547,-0.36328 v -2.75782 h 0.66015 z m 0.71875,-1.57422 v 5.59765 h 0.63672 v -2.21875 c 0,-0.82422 0.42969,-1.35937 1.09375,-1.35937 0.20703,0 0.41406,0.0664 0.57031,0.18359 0.17969,0.13281 0.25391,0.32031 0.25391,0.60938 v 2.78515 h 0.63672 v -3.04297 c 0,-0.67578 -0.48047,-1.09375 -1.26172,-1.09375 -0.56641,0 -0.91797,0.17579 -1.29297,0.66407 v -2.125 z m 6.40625,0 v 5.59765 h 0.63672 v -2.21875 c 0,-0.82422 0.4336,-1.35937 1.09375,-1.35937 0.20703,0 0.41406,0.0664 0.57031,0.18359 0.17969,0.13281 0.25391,0.32031 0.25391,0.60938 v 2.78515 h 0.64063 v -3.04297 c 0,-0.67578 -0.48438,-1.09375 -1.26563,-1.09375 -0.56641,0 -0.91797,0.17579 -1.29297,0.66407 v -2.125 z m 4.88672,1.57422 h -0.63672 v 4.02343 h 0.63672 z m 0,-1.57422 h -0.64453 v 0.80468 h 0.64453 z m 3.72266,1.57422 v 0.58203 c -0.32031,-0.47657 -0.71094,-0.69532 -1.22656,-0.69532 -1.02344,0 -1.71094,0.88672 -1.71094,2.19532 0,0.66015 0.17578,1.19922 0.5039,1.58203 0.30079,0.33594 0.73438,0.53515 1.15235,0.53515 0.5039,0 0.86328,-0.21093 1.22265,-0.71875 v 0.20704 c 0,0.54296 -0.0742,0.875 -0.23046,1.10156 -0.16797,0.23437 -0.5,0.375 -0.89454,0.375 -0.29296,0 -0.54687,-0.0781 -0.73046,-0.21875 -0.14454,-0.11328 -0.20704,-0.21875 -0.24219,-0.45703 h -0.65235 c 0.0703,0.7539 0.65625,1.21093 1.60157,1.21093 0.60156,0 1.11718,-0.19531 1.375,-0.51171 0.3125,-0.36719 0.42578,-0.88282 0.42578,-1.82422 v -3.36328 z m -1.15625,0.47656 c 0.6875,0 1.09765,0.58594 1.09765,1.59375 0,0.95312 -0.41796,1.54297 -1.09375,1.54297 -0.69921,0 -1.11718,-0.59375 -1.11718,-1.57032 0,-0.96875 0.42578,-1.5664 1.11328,-1.5664 z m 2.80469,-2.05078 v 5.59765 h 0.64062 v -2.21875 c 0,-0.82422 0.42969,-1.35937 1.08984,-1.35937 0.20704,0 0.41407,0.0664 0.57032,0.18359 0.17968,0.13281 0.25781,0.32031 0.25781,0.60938 v 2.78515 h 0.63672 v -3.04297 c 0,-0.67578 -0.48438,-1.09375 -1.26172,-1.09375 -0.57031,0 -0.92188,0.17579 -1.29297,0.66407 v -2.125 z m 7.67578,3.80078 c 0,-0.61328 -0.043,-0.98438 -0.15625,-1.28125 -0.26172,-0.66406 -0.875,-1.0586 -1.62891,-1.0586 -1.12109,0 -1.84766,0.85547 -1.84766,2.1836 0,1.3164 0.70313,2.1289 1.83204,2.1289 0.91796,0 1.55859,-0.51953 1.71875,-1.39453 h -0.64454 c -0.17968,0.52735 -0.53515,0.8086 -1.05468,0.8086 -0.40625,0 -0.75,-0.1875 -0.96875,-0.52735 -0.14844,-0.23047 -0.20703,-0.46093 -0.21485,-0.85937 z m -2.94532,-0.51953 c 0.0508,-0.7461 0.50782,-1.23047 1.15235,-1.23047 0.6289,0 1.11328,0.52344 1.11328,1.17969 0,0.0195 0,0.0312 -0.008,0.0508 z m 3.8125,-1.70703 v 4.02343 h 0.64454 v -2.08593 c 0,-0.57422 0.14453,-0.95704 0.45703,-1.17579 0.19922,-0.14843 0.38672,-0.1914 0.83593,-0.19921 v -0.65625 c -0.10937,-0.0117 -0.16015,-0.0195 -0.25,-0.0195 -0.41015,0 -0.73046,0.24219 -1.09765,0.84375 v -0.73046 z m 6.11719,0 h -0.66406 v -1.10547 h -0.63672 v 1.10547 h -0.54297 v 0.52343 h 0.54297 v 3.03907 c 0,0.40625 0.28125,0.63671 0.78125,0.63671 0.14844,0 0.30469,-0.0117 0.51953,-0.0469 v -0.53906 c -0.082,0.0156 -0.18359,0.0312 -0.30859,0.0312 -0.27344,0 -0.35547,-0.082 -0.35547,-0.36328 v -2.75782 h 0.66406 z m 4.11719,2.22656 c 0,-0.61328 -0.0469,-0.98438 -0.15625,-1.28125 -0.26172,-0.66406 -0.875,-1.0586 -1.63281,-1.0586 -1.11719,0 -1.84375,0.85547 -1.84375,2.1836 0,1.3164 0.69922,2.1289 1.83203,2.1289 0.91797,0 1.55469,-0.51953 1.71875,-1.39453 h -0.64453 c -0.17969,0.52735 -0.53907,0.8086 -1.05469,0.8086 -0.40625,0 -0.75,-0.1875 -0.96875,-0.52735 -0.15234,-0.23047 -0.20703,-0.46093 -0.21484,-0.85937 z m -2.94531,-0.51953 c 0.0508,-0.7461 0.50781,-1.23047 1.14843,-1.23047 0.63282,0 1.11329,0.52344 1.11329,1.17969 0,0.0195 0,0.0312 -0.004,0.0508 z m 3.8125,-1.70703 v 4.02343 h 0.64453 v -2.08593 c 0,-0.57422 0.14453,-0.95704 0.45703,-1.17579 0.19922,-0.14843 0.38672,-0.1914 0.83594,-0.19921 v -0.65625 c -0.11328,-0.0117 -0.16407,-0.0195 -0.25,-0.0195 -0.41407,0 -0.73047,0.24219 -1.10157,0.84375 v -0.73046 z m 2.57422,0 v 4.02343 h 0.64062 v -2.52343 c 0,-0.58594 0.42578,-1.05469 0.94531,-1.05469 0.48047,0 0.75,0.29297 0.75,0.80469 v 2.77343 h 0.64453 v -2.52343 c 0,-0.58594 0.41797,-1.05469 0.94141,-1.05469 0.46875,0 0.74609,0.29687 0.74609,0.80469 v 2.77343 h 0.64844 v -3.01953 c 0,-0.72265 -0.41797,-1.11719 -1.16797,-1.11719 -0.53906,0 -0.86328,0.15625 -1.23828,0.61329 -0.23828,-0.42969 -0.5625,-0.61329 -1.08203,-0.61329 -0.53516,0 -0.89453,0.19922 -1.23437,0.6836 v -0.57031"
       id="path2379" />
  </g>
  <path
     fill="none"
     stroke-width="0.96"
     stroke-linecap="round"
     stroke-linejoin="miter"
     stroke="#000000"
     stroke-opacity="1"
     stroke-miterlimit="4"
     d="m 94.863282,49.472652 c -41.17578,24.19532 -46.72656,6.71875 -48.33203,2.45703"
     id="path2380" />
  <path
     fill-rule="evenodd"
     fill="#000000"
     fill-opacity="1"
     d="m 45.750002,49.859372 2.96485,2.42969 -3.59375,1.35547"
     id="path2381" />
  <path
     fill="none"
     stroke-width="0.48"
     stroke-linecap="butt"
     stroke-linejoin="miter"
     stroke="#000000"
     stroke-opacity="1"
     stroke-miterlimit="4"
     d="m 45.746102,49.859372 2.96875,2.42969 -3.58985,1.35547 z m 0,0"
     id="path2382" />
  <path
     fill-rule="nonzero"
     fill="#000000"
     fill-opacity="1"
     d="m 21.960942,66.011712 h -0.63672 v 2.07813 c -0.26953,-0.40625 -0.69531,-0.61719 -1.23828,-0.61719 -1.04297,0 -1.72266,0.83594 -1.72266,2.11719 0,1.35547 0.66797,2.19531 1.75,2.19531 0.55469,0 0.9375,-0.20703 1.28125,-0.70703 v 0.53125 h 0.56641 z m -1.76172,2.05469 c 0.6875,0 1.125,0.61719 1.125,1.57422 0,0.92969 -0.44531,1.54297 -1.11719,1.54297 -0.70703,0 -1.17578,-0.61719 -1.17578,-1.55469 0,-0.9375 0.46875,-1.5625 1.16797,-1.5625 z m 3.38672,-0.48047 h -0.63672 v 4.02344 h 0.63672 z m 0,-1.57422 h -0.64062 v 0.80469 h 0.64062 z m 3.92188,2.69141 c -0.004,-0.78516 -0.52344,-1.23047 -1.45704,-1.23047 -0.93359,0 -1.54296,0.48047 -1.54296,1.22266 0,0.63281 0.32031,0.93359 1.27734,1.16406 l 0.59766,0.14453 c 0.44531,0.10547 0.62109,0.26953 0.62109,0.5625 0,0.375 -0.375,0.62891 -0.9375,0.62891 -0.34375,0 -0.64063,-0.0977 -0.80078,-0.26563 -0.10156,-0.12109 -0.14453,-0.23437 -0.17969,-0.51953 h -0.67578 c 0.0273,0.92969 0.54687,1.375 1.60547,1.375 1.01172,0 1.65625,-0.5 1.65625,-1.27344 0,-0.60156 -0.33594,-0.92578 -1.13672,-1.12109 l -0.61328,-0.14844 c -0.52735,-0.12109 -0.7461,-0.28906 -0.7461,-0.57422 0,-0.37109 0.33204,-0.60937 0.85157,-0.60937 0.51172,0 0.79297,0.22656 0.80859,0.64453 z m 4.09765,0.23047 c -0.0312,-0.38672 -0.11719,-0.64063 -0.26953,-0.86719 -0.27344,-0.375 -0.76172,-0.59375 -1.32422,-0.59375 -1.08203,0 -1.78906,0.85547 -1.78906,2.19531 0,1.29688 0.69531,2.11719 1.78125,2.11719 0.96484,0 1.57031,-0.57422 1.64453,-1.55859 h -0.64453 c -0.10547,0.64453 -0.43359,0.96875 -0.98047,0.96875 -0.70312,0 -1.12891,-0.57813 -1.12891,-1.52735 0,-1.00781 0.41016,-1.60937 1.10938,-1.60937 0.53906,0 0.875,0.32031 0.95703,0.875 z m 2.3086,-1.46094 c -1.125,0 -1.8125,0.80469 -1.8125,2.15625 0,1.34766 0.67578,2.15625 1.82421,2.15625 1.125,0 1.82032,-0.80859 1.82032,-2.125 0,-1.39453 -0.66797,-2.1875 -1.83203,-2.1875 z m 0.0117,0.58594 c 0.71875,0 1.15235,0.59375 1.15235,1.59375 0,0.94531 -0.44531,1.54297 -1.15235,1.54297 -0.71875,0 -1.15625,-0.59375 -1.15625,-1.56641 0,-0.96875 0.4375,-1.57031 1.15625,-1.57031 z m 4.36329,3.55078 1.54687,-4.02344 h -0.71875 l -1.14062,3.26172 -1.07422,-3.26172 h -0.72657 l 1.41407,4.02344 z m 5.58984,-1.80078 c 0,-0.61328 -0.043,-0.98047 -0.15625,-1.28125 -0.26172,-0.66016 -0.875,-1.05469 -1.63281,-1.05469 -1.11719,0 -1.83985,0.85547 -1.83985,2.17969 0,1.32031 0.69922,2.13281 1.82813,2.13281 0.92187,0 1.55859,-0.51953 1.71875,-1.39453 h -0.64063 c -0.18359,0.52734 -0.53906,0.80469 -1.05859,0.80469 -0.40625,0 -0.75,-0.1836 -0.96875,-0.52344 -0.14844,-0.23047 -0.20703,-0.46094 -0.21094,-0.86328 z m -2.94531,-0.51563 c 0.0508,-0.74609 0.50781,-1.23437 1.15234,-1.23437 0.62891,0 1.11328,0.52734 1.11328,1.18359 0,0.0195 0,0.0312 -0.008,0.0508 z m 3.8164,-1.70703 v 4.02344 h 0.64063 v -2.08594 c 0,-0.57812 0.14453,-0.95703 0.45703,-1.17578 0.19922,-0.15234 0.38672,-0.19531 0.83594,-0.19922 v -0.65625 c -0.10938,-0.0156 -0.16016,-0.0195 -0.25,-0.0195 -0.41016,0 -0.73047,0.24219 -1.09766,0.84375 v -0.73047 z m 5.39453,1.11719 c -0.008,-0.78516 -0.52343,-1.23047 -1.45703,-1.23047 -0.9375,0 -1.54297,0.48047 -1.54297,1.22266 0,0.63281 0.32032,0.93359 1.27735,1.16406 l 0.59765,0.14453 c 0.44532,0.10547 0.61719,0.26953 0.61719,0.5625 0,0.375 -0.375,0.62891 -0.93359,0.62891 -0.34766,0 -0.64063,-0.0977 -0.80078,-0.26563 -0.10157,-0.12109 -0.14453,-0.23437 -0.1836,-0.51953 h -0.67187 c 0.0273,0.92969 0.54687,1.375 1.60547,1.375 1.01172,0 1.65625,-0.5 1.65625,-1.27344 0,-0.60156 -0.33985,-0.92578 -1.13672,-1.12109 l -0.61328,-0.14844 c -0.52735,-0.12109 -0.7461,-0.28906 -0.7461,-0.57422 0,-0.37109 0.33203,-0.60937 0.85157,-0.60937 0.51171,0 0.79296,0.22656 0.80468,0.64453 z m 6.22657,0.23047 c -0.0312,-0.38672 -0.11719,-0.64063 -0.26953,-0.86719 -0.27344,-0.375 -0.76172,-0.59375 -1.32422,-0.59375 -1.08203,0 -1.78907,0.85547 -1.78907,2.19531 0,1.29688 0.69532,2.11719 1.78125,2.11719 0.96485,0 1.57032,-0.57422 1.64454,-1.55859 h -0.64454 c -0.10546,0.64453 -0.43359,0.96875 -0.98046,0.96875 -0.70313,0 -1.12891,-0.57813 -1.12891,-1.52735 0,-1.00781 0.41016,-1.60937 1.10937,-1.60937 0.53907,0 0.875,0.32031 0.95704,0.875 z m 3.92187,2.67578 v -4.02344 h -0.63672 v 2.28125 c 0,0.82422 -0.42578,1.35938 -1.09765,1.35938 -0.50391,0 -0.82813,-0.3086 -0.82813,-0.79297 v -2.84766 h -0.64062 v 3.10547 c 0,0.66016 0.5,1.09375 1.28125,1.09375 0.59375,0 0.96875,-0.20703 1.34375,-0.73828 v 0.5625 z m 1.10547,-4.02344 v 4.02344 h 0.64453 v -2.08594 c 0,-0.57812 0.14063,-0.95703 0.45703,-1.17578 0.19922,-0.15234 0.38672,-0.19531 0.83594,-0.19922 v -0.65625 c -0.11328,-0.0156 -0.16406,-0.0195 -0.25,-0.0195 -0.41406,0 -0.73047,0.24219 -1.10156,0.84375 v -0.73047 z m 2.56641,0 v 4.02344 h 0.64062 v -2.08594 c 0,-0.57812 0.14453,-0.95703 0.45703,-1.17578 0.19922,-0.15234 0.39063,-0.19531 0.83985,-0.19922 v -0.65625 c -0.11328,-0.0156 -0.16407,-0.0195 -0.25,-0.0195 -0.41407,0 -0.73047,0.24219 -1.10157,0.84375 v -0.73047 z m 5.96875,2.22266 c 0,-0.61328 -0.043,-0.98047 -0.15625,-1.28125 -0.26172,-0.66016 -0.875,-1.05469 -1.63282,-1.05469 -1.11718,0 -1.84375,0.85547 -1.84375,2.17969 0,1.32031 0.70313,2.13281 1.83204,2.13281 0.91796,0 1.55468,-0.51953 1.71875,-1.39453 h -0.64454 c -0.17968,0.52734 -0.53515,0.80469 -1.05468,0.80469 -0.40625,0 -0.75,-0.1836 -0.96875,-0.52344 -0.14844,-0.23047 -0.20703,-0.46094 -0.21094,-0.86328 z m -2.94532,-0.51563 c 0.0508,-0.74609 0.50782,-1.23437 1.15235,-1.23437 0.6289,0 1.11328,0.52734 1.11328,1.18359 0,0.0195 0,0.0312 -0.008,0.0508 z m 3.82032,-1.70703 v 4.02344 h 0.64453 v -2.21875 c 0,-0.82422 0.42969,-1.36328 1.09375,-1.36328 0.5039,0 0.83203,0.30859 0.83203,0.79297 v 2.78906 h 0.63672 v -3.04297 c 0,-0.66797 -0.5,-1.09375 -1.27735,-1.09375 -0.59765,0 -0.98437,0.22266 -1.33593,0.78906 v -0.67578 z m 5.6875,0 h -0.66016 v -1.10937 h -0.64062 v 1.10937 h -0.54297 v 0.52344 h 0.54297 v 3.03906 c 0,0.40625 0.28125,0.63672 0.78125,0.63672 0.15234,0 0.30859,-0.0117 0.51953,-0.0508 v -0.53906 c -0.082,0.0195 -0.17969,0.0312 -0.3086,0.0312 -0.27343,0 -0.35156,-0.0781 -0.35156,-0.35938 v -2.75781 h 0.66016"
     id="path2383" />
  <path
     fill-rule="nonzero"
     fill="#000000"
     fill-opacity="1"
     d="m 16.546882,75.609372 h -0.64063 v 5.60156 h 0.64063 z m 4.48047,3.80078 c 0,-0.61328 -0.043,-0.98047 -0.15625,-1.28125 -0.26172,-0.66406 -0.875,-1.05859 -1.63282,-1.05859 -1.11718,0 -1.84375,0.85937 -1.84375,2.18359 0,1.31641 0.70313,2.12891 1.83204,2.12891 0.91796,0 1.55859,-0.51563 1.71875,-1.39063 h -0.64454 c -0.17968,0.52344 -0.53515,0.80469 -1.05468,0.80469 -0.40625,0 -0.75,-0.1875 -0.96875,-0.52344 -0.14844,-0.23047 -0.20703,-0.46484 -0.21094,-0.86328 z m -2.94141,-0.51953 c 0.0469,-0.74219 0.50391,-1.23047 1.14844,-1.23047 0.63281,0 1.11328,0.52344 1.11328,1.17969 0,0.0195 0,0.0312 -0.008,0.0508 z m 7.39063,1.94531 c -0.0742,0.0117 -0.0977,0.0117 -0.14063,0.0117 -0.21875,0 -0.34766,-0.11328 -0.34766,-0.3125 v -2.36719 c 0,-0.71484 -0.51562,-1.09765 -1.51171,-1.09765 -0.58204,0 -1.06641,0.17187 -1.33594,0.47265 -0.1836,0.20313 -0.26172,0.4336 -0.27344,0.82813 h 0.64063 c 0.0586,-0.48828 0.34375,-0.71094 0.94531,-0.71094 0.57422,0 0.89844,0.21875 0.89844,0.60156 v 0.16797 c 0,0.26563 -0.16407,0.38672 -0.66797,0.44141 -0.90625,0.12109 -1.04297,0.15234 -1.28907,0.25 -0.46875,0.1875 -0.70703,0.55078 -0.70703,1.07422 0,0.73437 0.50782,1.1875 1.32032,1.1875 0.50781,0 0.91406,-0.17188 1.37109,-0.58594 0.043,0.40625 0.24219,0.58594 0.65625,0.58594 0.12891,0 0.23047,-0.0117 0.44141,-0.0664 z m -1.125,-0.89453 c 0,0.21875 -0.0625,0.35156 -0.25,0.52344 -0.26172,0.23828 -0.58204,0.36328 -0.95704,0.36328 -0.5,0 -0.78515,-0.24219 -0.78515,-0.64844 0,-0.41797 0.28125,-0.63672 0.96094,-0.73828 0.68359,-0.0898 0.82031,-0.12109 1.03125,-0.21875 z m 5.08593,-4.33203 h -0.63672 v 2.08203 c -0.26562,-0.40625 -0.6914,-0.62109 -1.23437,-0.62109 -1.04688,0 -1.72656,0.83984 -1.72656,2.12109 0,1.35547 0.66797,2.19141 1.75,2.19141 0.55468,0 0.9375,-0.20313 1.28125,-0.70313 v 0.53125 h 0.5664 z m -1.76172,2.05859 c 0.69141,0 1.125,0.61719 1.125,1.57422 0,0.92969 -0.4414,1.54297 -1.11718,1.54297 -0.70703,0 -1.17578,-0.61719 -1.17578,-1.55859 0,-0.9336 0.46875,-1.5586 1.16796,-1.5586 z m 6.17579,1.74219 c 0,-0.61328 -0.043,-0.98047 -0.15625,-1.28125 -0.26172,-0.66406 -0.875,-1.05859 -1.62891,-1.05859 -1.12109,0 -1.84375,0.85937 -1.84375,2.18359 0,1.31641 0.69922,2.12891 1.82812,2.12891 0.92188,0 1.5586,-0.51563 1.71875,-1.39063 h -0.64062 c -0.18359,0.52344 -0.53906,0.80469 -1.05859,0.80469 -0.40625,0 -0.75,-0.1875 -0.96875,-0.52344 -0.14844,-0.23047 -0.20704,-0.46484 -0.21094,-0.86328 z m -2.94141,-0.51953 c 0.0469,-0.74219 0.50391,-1.23047 1.14844,-1.23047 0.6289,0 1.11328,0.52344 1.11328,1.17969 0,0.0195 0,0.0312 -0.008,0.0508 z m 3.8125,-1.70703 v 4.02734 h 0.64453 v -2.08984 c 0,-0.57422 0.14063,-0.95313 0.45313,-1.17578 0.19921,-0.14844 0.38671,-0.19141 0.83984,-0.19922 v -0.65625 c -0.11328,-0.0117 -0.16406,-0.0195 -0.25,-0.0195 -0.41406,0 -0.73438,0.24609 -1.10156,0.84765 v -0.73437 z m 6.25,-0.11328 c -1.125,0 -1.8125,0.80859 -1.8125,2.15625 0,1.35156 0.67578,2.15625 1.82422,2.15625 1.125,0 1.8164,-0.80469 1.8164,-2.1211 0,-1.39453 -0.66796,-2.1914 -1.82812,-2.1914 z m 0.0117,0.58984 c 0.71875,0 1.14844,0.59375 1.14844,1.59375 0,0.94141 -0.44532,1.54297 -1.14844,1.54297 -0.71875,0 -1.15625,-0.59375 -1.15625,-1.57031 0,-0.96485 0.4375,-1.56641 1.15625,-1.56641 z m 2.70312,-0.47656 v 4.02734 h 0.64844 v -2.08984 c 0,-0.57422 0.14063,-0.95313 0.45313,-1.17578 0.19921,-0.14844 0.38671,-0.19141 0.83984,-0.19922 v -0.65625 c -0.11328,-0.0117 -0.16406,-0.0195 -0.25,-0.0195 -0.41406,0 -0.73438,0.24609 -1.10156,0.84765 v -0.73437 z m 4.70313,0 v 4.02734 h 0.64453 v -2.21875 c 0,-0.82422 0.42969,-1.36328 1.09375,-1.36328 0.50781,0 0.83203,0.30469 0.83203,0.79297 v 2.78906 h 0.63672 v -3.04297 c 0,-0.67187 -0.5,-1.09765 -1.27344,-1.09765 -0.60156,0 -0.98828,0.22656 -1.33984,0.78906 v -0.67578 z m 7.67578,2.22656 c 0,-0.61328 -0.043,-0.98047 -0.15625,-1.28125 -0.26172,-0.66406 -0.875,-1.05859 -1.62891,-1.05859 -1.12109,0 -1.84765,0.85937 -1.84765,2.18359 0,1.31641 0.70312,2.12891 1.83203,2.12891 0.91797,0 1.55859,-0.51563 1.71875,-1.39063 h -0.64453 c -0.17969,0.52344 -0.53516,0.80469 -1.05469,0.80469 -0.40625,0 -0.75,-0.1875 -0.96875,-0.52344 -0.14844,-0.23047 -0.20703,-0.46484 -0.21094,-0.86328 z m -2.94531,-0.51953 c 0.0508,-0.74219 0.50781,-1.23047 1.15234,-1.23047 0.63281,0 1.11328,0.52344 1.11328,1.17969 0,0.0195 0,0.0312 -0.008,0.0508 z m 7.53906,2.32031 1.17969,-4.02734 h -0.71875 l -0.79688,3.13281 -0.79297,-3.13281 h -0.78125 l -0.76953,3.13281 -0.82422,-3.13281 h -0.70703 l 1.16797,4.02734 h 0.72266 l 0.77734,-3.15625 0.8125,3.15625 z m 5.375,-4.02734 h -0.66406 v -1.10547 h -0.63672 v 1.10547 h -0.54688 v 0.52734 h 0.54688 v 3.03516 c 0,0.40625 0.28125,0.63672 0.78125,0.63672 0.14844,0 0.30469,-0.0117 0.51953,-0.0469 v -0.53906 c -0.082,0.0195 -0.18359,0.0312 -0.30859,0.0312 -0.27344,0 -0.35547,-0.082 -0.35547,-0.36328 v -2.75391 h 0.66406 z m 4.11719,2.22656 c 0,-0.61328 -0.043,-0.98047 -0.15625,-1.28125 -0.26172,-0.66406 -0.875,-1.05859 -1.62891,-1.05859 -1.12109,0 -1.84766,0.85937 -1.84766,2.18359 0,1.31641 0.70313,2.12891 1.83204,2.12891 0.91796,0 1.55859,-0.51563 1.71875,-1.39063 h -0.64454 c -0.17968,0.52344 -0.53515,0.80469 -1.05468,0.80469 -0.40625,0 -0.75,-0.1875 -0.96875,-0.52344 -0.14844,-0.23047 -0.20703,-0.46484 -0.21485,-0.86328 z m -2.94532,-0.51953 c 0.0508,-0.74219 0.50782,-1.23047 1.15235,-1.23047 0.6289,0 1.11328,0.52344 1.11328,1.17969 0,0.0195 0,0.0312 -0.008,0.0508 z m 3.8125,-1.70703 v 4.02734 h 0.64454 v -2.08984 c 0,-0.57422 0.14453,-0.95313 0.45703,-1.17578 0.19922,-0.14844 0.38672,-0.19141 0.83593,-0.19922 v -0.65625 c -0.10937,-0.0117 -0.16015,-0.0195 -0.25,-0.0195 -0.41015,0 -0.73046,0.24609 -1.09765,0.84765 v -0.73437 z m 2.57032,0 v 4.02734 h 0.64453 v -2.52734 c 0,-0.58594 0.42578,-1.05469 0.94531,-1.05469 0.48047,0 0.75,0.29297 0.75,0.80469 v 2.77734 h 0.64453 v -2.52734 c 0,-0.58594 0.41797,-1.05469 0.94141,-1.05469 0.46875,0 0.74609,0.30078 0.74609,0.80469 v 2.77734 h 0.64844 v -3.01953 c 0,-0.72656 -0.41797,-1.12109 -1.16797,-1.12109 -0.53906,0 -0.86328,0.15625 -1.23828,0.61328 -0.23828,-0.42969 -0.5625,-0.61328 -1.08203,-0.61328 -0.53516,0 -0.89063,0.20312 -1.23828,0.68359 v -0.57031"
     id="path2384" />
  <path
     fill="none"
     stroke-width="0.96"
     stroke-linecap="round"
     stroke-linejoin="miter"
     stroke="#000000"
     stroke-opacity="1"
     stroke-miterlimit="4"
     d="m 103.74611,34.714842 c -13.988288,-21.35547 20.72265,-24.08984 11.49609,-3.17969"
     id="path2385" />
  <path
     fill-rule="evenodd"
     fill="#000000"
     fill-opacity="1"
     d="m 114.34767,33.562502 -0.41797,-3.8125 3.51563,1.54687"
     id="path2386" />
  <path
     fill="none"
     stroke-width="0.48"
     stroke-linecap="butt"
     stroke-linejoin="miter"
     stroke="#000000"
     stroke-opacity="1"
     stroke-miterlimit="4"
     d="m 114.34767,33.562502 -0.41797,-3.8125 3.51563,1.54687 z m 0,0"
     id="path2387" />
  <path
     fill-rule="nonzero"
     fill="#000000"
     fill-opacity="1"
     d="m 95.500002,1.5742167 h -0.66406 V 0.46874778 h -0.63672 V 1.5742167 h -0.54297 v 0.523437 h 0.54297 v 3.039063 c 0,0.40625 0.28125,0.636719 0.78125,0.636719 0.14844,0 0.3086,-0.01172 0.51953,-0.05078 v -0.535156 c -0.082,0.01953 -0.17968,0.03125 -0.30468,0.03125 -0.27735,0 -0.35938,-0.08203 -0.35938,-0.363281 v -2.757813 h 0.66406 z m 1.32813,0 h -0.63672 v 4.023437 h 0.63672 z m 0,-1.5742189227307 h -0.64453 V 0.80468578 h 0.64453 z M 97.925782,1.5742167 v 4.023437 h 0.64454 v -2.523437 c 0,-0.589844 0.42578,-1.058594 0.9414,-1.058594 0.48438,0 0.750008,0.296875 0.750008,0.808594 v 2.773437 h 0.64453 v -2.523437 c 0,-0.589844 0.41797,-1.058594 0.94532,-1.058594 0.46875,0 0.74218,0.300781 0.74218,0.808594 v 2.773437 h 0.65235 v -3.015624 c 0,-0.726563 -0.42188,-1.121094 -1.17188,-1.121094 -0.53515,0 -0.85937,0.15625 -1.23437,0.613281 -0.23828,-0.433594 -0.5625,-0.613281 -1.082038,-0.613281 -0.53907,0 -0.89454,0.199218 -1.23829,0.679687 v -0.566406 z m 9.804698,2.222656 c 0,-0.609375 -0.043,-0.980469 -0.15625,-1.28125 -0.26172,-0.660156 -0.875,-1.054687 -1.6289,-1.054687 -1.1211,0 -1.84766,0.855468 -1.84766,2.179687 0,1.320313 0.70312,2.132813 1.83203,2.132813 0.91797,0 1.55859,-0.519532 1.71875,-1.394532 h -0.64453 c -0.17969,0.527344 -0.53516,0.808594 -1.05469,0.808594 -0.40625,0 -0.75,-0.1875 -0.96875,-0.527344 -0.14844,-0.230468 -0.20703,-0.460937 -0.21094,-0.863281 z m -2.9414,-0.515625 c 0.0469,-0.746094 0.5039,-1.234375 1.14843,-1.234375 0.63282,0 1.11328,0.527344 1.11328,1.183594 0,0.01953 0,0.03125 -0.008,0.05078 z m 6.64062,-0.589844 c -0.004,-0.785156 -0.52344,-1.230468 -1.45703,-1.230468 -0.93359,0 -1.54297,0.480468 -1.54297,1.226562 0,0.628906 0.32031,0.929688 1.27734,1.160156 l 0.59766,0.144532 c 0.44531,0.105468 0.62109,0.269531 0.62109,0.5625 0,0.375 -0.375,0.632812 -0.9375,0.632812 -0.34375,0 -0.64062,-0.101562 -0.80078,-0.269531 -0.10156,-0.121094 -0.14453,-0.230469 -0.18359,-0.519531 h -0.67188 c 0.0312,0.933594 0.54688,1.375 1.60547,1.375 1.01172,0 1.65625,-0.5 1.65625,-1.273438 0,-0.601562 -0.33984,-0.925781 -1.13672,-1.121094 l -0.61328,-0.148437 c -0.52343,-0.121094 -0.74609,-0.289063 -0.74609,-0.574219 0,-0.371094 0.33203,-0.609375 0.85156,-0.609375 0.51172,0 0.79297,0.226563 0.80469,0.644531 z m 4.69531,-1.230468 c -1.125,0 -1.8125,0.804687 -1.8125,2.15625 0,1.351562 0.67578,2.15625 1.82422,2.15625 1.125,0 1.82031,-0.804688 1.82031,-2.125 0,-1.394532 -0.66796,-2.1875 -1.83203,-2.1875 z m 0.0117,0.585937 c 0.71875,0 1.15235,0.59375 1.15235,1.59375 0,0.945313 -0.44532,1.546875 -1.15235,1.546875 -0.71484,0 -1.15625,-0.59375 -1.15625,-1.570312 0,-0.96875 0.44141,-1.570313 1.15625,-1.570313 z m 5.875,3.550781 v -4.023437 h -0.63672 v 2.28125 c 0,0.824219 -0.42187,1.363281 -1.09375,1.363281 -0.5039,0 -0.82812,-0.3125 -0.82812,-0.792968 v -2.851563 h -0.64063 v 3.105469 c 0,0.664062 0.5,1.09375 1.28125,1.09375 0.59375,0 0.96875,-0.207032 1.34375,-0.738282 v 0.5625 z m 2.52735,-4.023437 h -0.66407 V 0.46874778 h -0.63672 V 1.5742167 h -0.54296 v 0.523437 h 0.54296 v 3.039063 c 0,0.40625 0.28125,0.636719 0.78125,0.636719 0.15235,0 0.30469,-0.01172 0.51954,-0.05078 v -0.535156 c -0.082,0.01953 -0.1836,0.03125 -0.3086,0.03125 -0.27344,0 -0.35547,-0.08203 -0.35547,-0.363281 v -2.757813 h 0.66407 z m 0.84765,3.222656 v 0.800781 h 0.46094 v 0.136719 c 0,0.53125 -0.0977,0.691407 -0.46094,0.703125 v 0.292969 c 0.53906,0 0.8086,-0.351563 0.8086,-1.007813 v -0.925781"
     id="path2388" />
  <path
     fill-rule="nonzero"
     fill="#000000"
     fill-opacity="1"
     d="m 89.375002,11.17578 v 4.023437 h 0.64453 v -2.21875 c 0,-0.824219 0.4336,-1.363281 1.09375,-1.363281 0.50782,0 0.83204,0.308594 0.83204,0.792968 v 2.789063 h 0.63671 v -3.042969 c 0,-0.671875 -0.5,-1.09375 -1.27343,-1.09375 -0.60157,0 -0.98828,0.222656 -1.33985,0.785156 V 11.17578 Z m 7.67578,2.222656 c 0,-0.613282 -0.043,-0.980469 -0.15625,-1.28125 -0.26171,-0.660156 -0.875,-1.054688 -1.63281,-1.054688 -1.11719,0 -1.83984,0.855469 -1.83984,2.179688 0,1.320312 0.69922,2.132812 1.82812,2.132812 0.92188,0 1.5586,-0.519531 1.71875,-1.394531 h -0.64453 c -0.17969,0.523437 -0.53515,0.804687 -1.05469,0.804687 -0.40625,0 -0.75,-0.1875 -0.96875,-0.523437 -0.14843,-0.230469 -0.20703,-0.464844 -0.21093,-0.863281 z m -2.94531,-0.519532 c 0.0508,-0.742187 0.50781,-1.230468 1.15235,-1.230468 0.6289,0 1.11328,0.527344 1.11328,1.183594 0,0.01562 0,0.02734 -0.008,0.04687 z m 7.539068,2.320313 1.17969,-4.023437 h -0.71875 l -0.79687,3.128906 -0.79688,-3.128906 h -0.781258 l -0.76562,3.128906 -0.82813,-3.128906 h -0.70312 l 1.16797,4.023437 h 0.72265 l 0.777358,-3.15625 0.8125,3.15625 z m 7.35938,-1.800781 c 0,-0.613282 -0.043,-0.980469 -0.15625,-1.28125 -0.26172,-0.660156 -0.875,-1.054688 -1.62891,-1.054688 -1.12109,0 -1.84375,0.855469 -1.84375,2.179688 0,1.320312 0.69922,2.132812 1.83203,2.132812 0.91797,0 1.55469,-0.519531 1.71875,-1.394531 h -0.64453 c -0.18359,0.523437 -0.53906,0.804687 -1.05859,0.804687 -0.40234,0 -0.75,-0.1875 -0.96875,-0.523437 -0.14844,-0.230469 -0.20313,-0.464844 -0.21094,-0.863281 z m -2.94141,-0.519532 c 0.0508,-0.742187 0.50782,-1.230468 1.14844,-1.230468 0.63281,0 1.11328,0.527344 1.11328,1.183594 0,0.01562 0,0.02734 -0.004,0.04687 z m 4.44922,-3.2812503 h -0.64453 v 5.6015633 h 0.64453 z m 4.48047,3.8007823 c 0,-0.613282 -0.043,-0.980469 -0.15625,-1.28125 -0.26172,-0.660156 -0.875,-1.054688 -1.63281,-1.054688 -1.11719,0 -1.84375,0.855469 -1.84375,2.179688 0,1.320312 0.69922,2.132812 1.83203,2.132812 0.91797,0 1.55859,-0.519531 1.71875,-1.394531 h -0.64453 c -0.17969,0.523437 -0.53516,0.804687 -1.05469,0.804687 -0.40625,0 -0.75,-0.1875 -0.96875,-0.523437 -0.15234,-0.230469 -0.20703,-0.464844 -0.21094,-0.863281 z m -2.94531,-0.519532 c 0.0508,-0.742187 0.50781,-1.230468 1.15234,-1.230468 0.62891,0 1.10938,0.527344 1.10938,1.183594 0,0.01562 0,0.02734 -0.004,0.04687 z m 6.90234,-0.355468 c -0.0312,-0.386719 -0.12109,-0.644532 -0.26953,-0.867188 -0.27344,-0.375 -0.76172,-0.59375 -1.32422,-0.59375 -1.08203,0 -1.78906,0.855469 -1.78906,2.191406 0,1.300782 0.69531,2.121094 1.78125,2.121094 0.96094,0 1.57031,-0.578125 1.64453,-1.558594 h -0.64453 c -0.10547,0.644532 -0.4375,0.96875 -0.98047,0.96875 -0.70703,0 -1.13281,-0.578124 -1.13281,-1.53125 0,-1.003906 0.41406,-1.605468 1.11328,-1.605468 0.53906,0 0.875,0.320312 0.95703,0.875 z m 2.16797,-1.347656 h -0.66016 v -1.109376 h -0.63671 v 1.109376 h -0.54688 v 0.523437 h 0.54688 v 3.035156 c 0,0.40625 0.27734,0.640625 0.77734,0.640625 0.15234,0 0.30859,-0.01563 0.51953,-0.05078 v -0.539063 c -0.0781,0.01953 -0.17969,0.03125 -0.30469,0.03125 -0.27343,0 -0.35547,-0.08203 -0.35547,-0.359374 v -2.757813 h 0.66016 z m 1.33203,0 h -0.63672 v 4.023437 h 0.63672 z m 0,-1.5781263 h -0.64453 v 0.8085943 h 0.64453 z m 2.64844,1.4648443 c -1.125,0 -1.8125,0.804688 -1.8125,2.15625 0,1.347656 0.67187,2.15625 1.82422,2.15625 1.125,0 1.8164,-0.808594 1.8164,-2.125 0,-1.394531 -0.66796,-2.1875 -1.82812,-2.1875 z m 0.0117,0.585938 c 0.71875,0 1.14844,0.59375 1.14844,1.59375 0,0.945312 -0.44141,1.542968 -1.14844,1.542968 -0.71875,0 -1.15625,-0.59375 -1.15625,-1.566406 0,-0.96875 0.4375,-1.570312 1.15625,-1.570312 z m 2.71094,-0.472656 v 4.023437 h 0.64453 v -2.21875 c 0,-0.824219 0.42968,-1.363281 1.09375,-1.363281 0.50781,0 0.83203,0.308594 0.83203,0.792968 v 2.789063 h 0.63672 v -3.042969 c 0,-0.671875 -0.5,-1.09375 -1.27344,-1.09375 -0.60156,0 -0.98828,0.222656 -1.33984,0.785156 V 11.17578"
     id="path2389" />
</svg>
